<?xml version="1.0" encoding="iso-8859-1"?>
<!-- Generator: Adobe Illustrator 19.0.0, SVG Export Plug-In . SVG Version: 6.00 Build 0)  -->
<svg version="1.1" id="Capa_1" xmlns="http://www.w3.org/2000/svg" xmlns:xlink="http://www.w3.org/1999/xlink" x="0px" y="0px"
	 viewBox="0 0 512.001 512.001" style="enable-background:new 0 0 512.001 512.001;" xml:space="preserve">
<path style="fill:#A66856;" d="M402.261,198.21c-0.338,0-0.678-0.011-1.02-0.035c-80.912-5.556-103.477-22.818-132.045-44.673
	c-11.102-8.493-22.58-17.274-39.409-26.602c-53.901-29.877-106.428-20.5-106.952-20.401c-8.058,1.509-15.8-3.875-17.292-12.027
	S117.961,9.046,126.02,7.536c2.565-0.48,32.136,10.858,95.204,45.814c18.735,10.385,56.251,54.028,67.648,62.747
	c25.587,19.574,44.073,33.717,116.155,38.667c8.177,0.562,12.582,21.183,12.026,29.454
	C416.519,192.14,409.998,198.208,402.261,198.21z"/>
<path style="fill:#8F5040;" d="M211.983,480.865c-0.644,0-1.295-0.042-1.95-0.128c-8.176-1.07-13.936-8.629-12.873-16.849
	c0.447-3.453,11.964-85.462,100.207-163.331c92.864-81.947,96.016-121.522,99.115-146.449c1.023-8.226,35.512-20.613,34.489-12.388
	c-3.429,27.58-13.138,92.473-113.911,181.4c-41.423,36.554-63.758,73.912-75.2,98.815c-12.424,27.041-15.075,45.695-15.101,45.88
	C225.781,475.377,219.367,480.866,211.983,480.865z"/>
<rect x="96.007" y="7.535" style="fill:#FFCE55;" width="30.009" height="450.933"/>
<path style="fill:#A66856;" d="M251.047,504.501H81.007v-40.029c0-3.315,2.688-6.003,6.003-6.003h158.034
	c3.315,0,6.003,2.688,6.003,6.003V504.501z"/>
<path style="fill:#8F5040;" d="M245.044,458.47h-29.999c3.315,0,6.003,2.688,6.003,6.003v40.029h29.999v-40.029
	C251.047,461.157,248.359,458.47,245.044,458.47z"/>
<path d="M429.064,131.649c-7.932-0.987-28.336,5.192-36.57,14.58c-59.077-5.521-75.936-18.404-99.069-36.091
	c-3.754-2.871-11.689-11.018-20.091-19.642c-16.713-17.155-35.656-36.6-48.477-43.708c-34.565-19.16-57.581-30.401-70.802-36.458
	C132.615,0.51,127.696-0.198,125.434,0.034H96.011c-4.143,0-7.5,3.358-7.5,7.5V63.85c0,4.142,3.357,7.5,7.5,7.5
	c4.143,0,7.5-3.358,7.5-7.5V15.034h15.007v91.124c0,0.015,0,0.03,0,0.045v343.934H103.51V96.016c0-4.142-3.357-7.5-7.5-7.5
	c-4.143,0-7.5,3.358-7.5,7.5V450.97H87.01c-7.445,0-13.502,6.058-13.502,13.502v40.029c0,4.142,3.357,7.5,7.5,7.5h170.04
	c4.143,0,7.5-3.358,7.5-7.5v-40.029c0-7.445-6.058-13.502-13.502-13.502h-6.394c1.102-3.521,2.479-7.567,4.184-12.026
	c1.479-3.869-0.457-8.205-4.326-9.685c-3.866-1.478-8.203,0.458-9.684,4.326c-2.271,5.938-4.226,11.762-5.838,17.384h-15.455
	c2.82-10.822,8.049-26.803,17.549-45.962c11.492-23.169,26.502-45.412,44.617-66.117c9.884-11.315,20.862-22.32,32.634-32.71
	c5.08-4.483,9.66-8.624,13.994-12.651c34.866-32.309,58.444-60.531,72.081-86.278c1.268-2.394,2.417-4.716,3.471-6.974
	c0.007-0.013,0.012-0.027,0.019-0.041c8.777-18.821,10.529-33.008,11.841-43.673l0.08-0.644c2.481-2.858,12.431-7.318,18.896-8.876
	c-3.945,27.797-17.848,88.587-110.62,170.451c-28.939,25.544-52.241,54.399-69.26,85.765c-1.976,3.641-0.626,8.194,3.015,10.169
	c3.641,1.975,8.194,0.624,10.169-3.015c16.179-29.816,38.386-57.295,66.002-81.672c104.747-92.43,113.211-160.474,116.398-186.095
	C438.996,137.98,436.315,132.548,429.064,131.649z M217.585,59.908c10.892,6.038,30.608,26.278,45.005,41.056
	c9.555,9.808,17.101,17.553,21.758,21.115c23.762,18.168,42.738,32.669,103.706,38.789c-1.106,7.775-2.921,16.862-7.502,27.961
	c-27.954-3.064-49.132-8.046-66.311-15.573c-16.166-7.09-27.435-15.716-40.484-25.707l-0.46-0.352
	c-1.564-1.196-3.138-2.4-4.715-3.587c-11.137-8.445-21.376-15.634-35.151-23.27c-3.854-2.139-7.872-4.171-11.938-6.037
	c-0.05-0.023-0.101-0.043-0.151-0.066c-0.033-0.014-0.065-0.029-0.099-0.043c-15.409-7.052-31.929-11.947-49.117-14.541
	c-16.065-2.415-29.692-2.343-38.611-1.808V17.778C145.73,22.673,172.124,34.708,217.585,59.908z M225.862,133.299
	c0.096,0.053,0.197,0.102,0.293,0.155c12.819,7.106,22.403,13.884,30.395,19.868v177.849
	c-11.479,13.335-21.742,27.278-30.688,41.685V133.299z M133.516,112.867c6.929-0.464,17.407-0.648,29.997,0.777V450.97h-29.997
	V112.867z M243.547,497.001H88.507V465.97l0,0c0.023,0-0.023,0,0,0s-0.023,0,0,0h155.04c0.033,0,0,0,0.033,0c0.037,0-0.07,0-0.033,0
	l0,0c0.029,0-14.838,0.005-14.809,0.005c0.022,0,14.787-0.005,14.809-0.005l0,0V497.001z M178.513,450.97v-334.94
	c11.197,2.27,22.031,5.607,32.35,9.988v273.918c-10.659,21.823-16.099,39.785-18.788,51.034L178.513,450.97L178.513,450.97z
	 M318.728,270.541v-30.613c0-4.142-3.357-7.5-7.5-7.5s-7.5,3.358-7.5,7.5v44.817c-3.541,3.255-7.262,6.607-11.323,10.192
	c-7.264,6.412-14.232,13.056-20.856,19.857V164.716c9.733,7.32,19.654,14.214,32.18,20.208v23.172c0,4.142,3.357,7.5,7.5,7.5
	s7.5-3.358,7.5-7.5v-16.958c15.272,5.434,33.134,9.333,54.885,11.985C363.85,220.693,347.323,242.57,318.728,270.541z"/>
<g>
</g>
<g>
</g>
<g>
</g>
<g>
</g>
<g>
</g>
<g>
</g>
<g>
</g>
<g>
</g>
<g>
</g>
<g>
</g>
<g>
</g>
<g>
</g>
<g>
</g>
<g>
</g>
<g>
</g>
</svg>
