<?xml version="1.0" encoding="UTF-8" standalone="no"?>
<!-- Generator: Adobe Illustrator 19.0.0, SVG Export Plug-In . SVG Version: 6.00 Build 0)  -->

<svg
   xmlns:dc="http://purl.org/dc/elements/1.1/"
   xmlns:cc="http://creativecommons.org/ns#"
   xmlns:rdf="http://www.w3.org/1999/02/22-rdf-syntax-ns#"
   xmlns:svg="http://www.w3.org/2000/svg"
   xmlns="http://www.w3.org/2000/svg"
   xmlns:sodipodi="http://sodipodi.sourceforge.net/DTD/sodipodi-0.dtd"
   xmlns:inkscape="http://www.inkscape.org/namespaces/inkscape"
   version="1.1"
   id="Capa_1"
   x="0px"
   y="0px"
   viewBox="0 0 512.006 512.006"
   xml:space="preserve"
   sodipodi:docname="banjo.svg"
   inkscape:version="0.92.4 (5da689c313, 2019-01-14)"
   style="enable-background:new 0 0 512.006 512.006;"><metadata
   id="metadata53"><rdf:RDF><cc:Work
       rdf:about=""><dc:format>image/svg+xml</dc:format><dc:type
         rdf:resource="http://purl.org/dc/dcmitype/StillImage" /></cc:Work></rdf:RDF></metadata><defs
   id="defs51" /><sodipodi:namedview
   pagecolor="#ffffff"
   bordercolor="#666666"
   borderopacity="1"
   objecttolerance="10"
   gridtolerance="10"
   guidetolerance="10"
   inkscape:pageopacity="0"
   inkscape:pageshadow="2"
   inkscape:window-width="1794"
   inkscape:window-height="698"
   id="namedview49"
   showgrid="false"
   inkscape:zoom="0.46093212"
   inkscape:cx="-540.2102"
   inkscape:cy="301.7519"
   inkscape:window-x="44"
   inkscape:window-y="187"
   inkscape:window-maximized="0"
   inkscape:current-layer="Capa_1"
   showguides="false" />
<circle
   style="fill:#735458;"
   cx="173.505"
   cy="338.503"
   r="166"
   id="circle2" />
<path
   style="fill:#5C4346;"
   d="M290.885,221.123c-36.233-36.233-85.047-52.206-132.38-47.937  c37.354,3.369,73.785,19.343,102.38,47.937c64.827,64.827,64.827,169.932,0,234.759c-28.594,28.594-65.026,44.568-102.38,47.937  c47.333,4.269,96.147-11.704,132.38-47.937C355.712,391.056,355.712,285.95,290.885,221.123z"
   id="path4" />
<circle
   style="fill:#FFDEA9;"
   cx="173.505"
   cy="338.503"
   r="135.59"
   id="circle6" />
<polygon
   style="fill:#A66856;"
   points="240.593,302.879 209.244,271.547 419.987,60.923 451.336,92.255 "
   id="polygon8" />
<path
   style="fill:#735458;"
   d="M504.315,41.393c-0.04,0.09-0.09,0.17-0.15,0.25l-24.72,34.23c-0.29,0.41-0.73,0.63-1.26,0.68  c-3.14,0.3-6.14,1.47-8.16,3.9l-23.47,28.29c-0.86,1.21-3.12,0.77-4.83-0.95l-19.51-19.5l-17.78-17.76  c-1.71-1.71-2.16-3.95-0.97-4.83l28.4-23.52c2.41-2,3.57-4.97,3.83-8.09c0.05-0.52,0.26-0.97,0.66-1.26l33.98-24.98  c1.04-0.78,3-0.21,4.51,1.29l8.61,8.61l19.41,19.4C504.255,38.543,504.835,40.303,504.315,41.393z"
   id="path10" />
<path
   style="fill:#5C4346;"
   d="M504.315,41.393c-0.04,0.09-0.09,0.17-0.14,0.25l-24.73,34.23c-0.29,0.41-0.73,0.63-1.26,0.68  c-3.14,0.3-6.14,1.47-8.16,3.9l-23.47,28.29c-0.86,1.21-3.12,0.77-4.83-0.95l-19.51-19.5h0.01c1.71,1.72,3.97,2.16,4.83,0.95  l23.47-28.29c2.02-2.43,5.02-3.6,8.16-3.9c0.53-0.05,0.97-0.27,1.26-0.68l24.73-34.23c0.74-1.03,0.2-2.91-1.22-4.39l19.41,19.4  C504.255,38.543,504.835,40.303,504.315,41.393z"
   id="path12" />
<path
   d="M387.209,166.937c2.93-2.929,2.932-7.678,0.003-10.608c-2.714-2.714-6.987-2.91-9.93-0.597l-20.776-20.777l21.239-21.227  l20.82,20.82c-2.046,2.925-1.77,6.98,0.841,9.592c1.465,1.466,3.385,2.199,5.305,2.199c1.919,0,3.838-0.732,5.303-2.196l0,0  c0.008-0.008-0.008,0.008,0,0s-0.008,0.008,0,0l28.996-28.983c1.888,1.152,3.959,1.782,6.018,1.782c0.283,0,0.565-0.012,0.847-0.035  c2.611-0.218,4.969-1.481,6.533-3.483l7.855-9.469l6.23,6.225c1.465,1.463,3.383,2.195,5.302,2.195c1.921,0,3.841-0.733,5.306-2.199  c2.928-2.931,2.926-7.681-0.004-10.609l-7.214-7.208l5.899-7.11c0.729-0.879,2.254-1.145,3.103-1.225  c2.689-0.257,5.112-1.636,6.625-3.752l6.848-9.481l6.77,6.765c1.465,1.464,3.383,2.195,5.302,2.195c1.921,0,3.841-0.733,5.306-2.199  c2.928-2.931,2.927-7.68-0.004-10.608l-8.477-8.471l8.99-12.448c2.976-4.139,2.116-9.969-2.094-14.177L480.124,3.835  c-4.208-4.206-10.221-5.047-14.248-2.036l-12.286,9.033l-8.307-8.301c-2.931-2.929-7.68-2.927-10.608,0.004  s-2.927,7.68,0.004,10.608l6.683,6.679l-9.479,6.969c-2.109,1.551-3.451,3.976-3.684,6.66c-0.069,0.806-0.311,2.263-1.149,2.957  l-7.188,5.954l-7.212-7.213c-2.929-2.929-7.679-2.929-10.608,0c-2.93,2.929-2.93,7.679,0,10.608l6.216,6.216l-9.516,7.882  c-1.996,1.577-3.246,3.954-3.445,6.571c-0.175,2.308,0.461,4.667,1.757,6.793l-24.571,24.557c-0.014,0.014-0.029,0.025-0.043,0.039  s-0.025,0.029-0.038,0.042l-98.935,98.88c-31.431-22.209-69.653-33.375-108.39-31.513c-4.138,0.198-7.331,3.714-7.133,7.852  s3.706,7.329,7.852,7.133c34.518-1.656,68.592,8.005,96.888,27.306l-11.123,11.117c-5.209-3.399-10.621-6.441-16.198-9.115  c0.556-3.346-1.218-6.76-4.481-8.135c-3.279-1.383-6.983-0.251-8.983,2.514c-13.376-4.804-27.452-7.61-41.748-8.283  c-0.708-3.408-3.726-5.969-7.343-5.969c-3.637,0-6.668,2.589-7.354,6.024c-1.006,0.056-2.013,0.121-3.02,0.198  c-12.645,0.97-25.016,3.621-36.811,7.806c-1.892-3.053-5.758-4.392-9.194-2.994c-3.469,1.412-5.299,5.124-4.467,8.658  c-12.677,6.036-24.48,13.934-34.973,23.509c-2.943-2.309-7.212-2.112-9.923,0.599c-2.736,2.736-2.915,7.06-0.54,10.005  c-9.149,10.274-16.557,21.559-22.228,33.473c-3.687-1.24-7.761,0.549-9.295,4.192c-1.549,3.674,0.058,7.879,3.583,9.625  c-4.676,13.257-7.349,27.068-8.009,40.96c-4.054,0.101-7.312,3.413-7.312,7.492c0,4.105,3.298,7.434,7.388,7.496  c0.749,13.265,3.321,26.446,7.735,39.124c-3.814,1.574-5.645,5.935-4.088,9.761c1.185,2.911,3.99,4.675,6.95,4.675  c0.939,0,1.893-0.178,2.815-0.552c5.822,12.351,13.5,24.037,23.048,34.627c-2.874,2.933-2.861,7.639,0.049,10.551  c1.465,1.466,3.385,2.199,5.306,2.199c1.903,0,3.805-0.722,5.265-2.161c10.006,9.028,21.084,16.506,32.984,22.31  c-1.576,3.807,0.213,8.178,4.015,9.78c0.951,0.401,1.938,0.591,2.91,0.591c2.895,0,5.642-1.691,6.87-4.502  c8.862,3.21,18.088,5.551,27.589,6.977c4.408,0.662,8.814,1.094,13.213,1.35c0.096,4.059,3.41,7.322,7.492,7.322  c4.048,0,7.339-3.209,7.487-7.221c13.412-0.621,26.628-3.124,39.346-7.473c1.285,2.627,3.924,4.214,6.72,4.214  c0.942,0,1.9-0.179,2.825-0.555c3.656-1.488,5.496-5.53,4.312-9.227c1.682-0.779,3.357-1.579,5.015-2.426  c3.689-1.884,5.154-6.402,3.269-10.092c-1.885-3.69-6.403-5.153-10.092-3.27c-1.503,0.768-3.016,1.5-4.537,2.204  c-2.069-1.828-5.067-2.448-7.795-1.337c-2.698,1.098-4.404,3.588-4.641,6.303c-11.545,3.948-23.427,6.182-35.31,6.741  c-1.269-2.342-3.748-3.933-6.599-3.933c-2.824,0-5.281,1.562-6.561,3.868c-12.576-0.707-25.004-3.253-36.87-7.615  c-0.335-2.555-1.972-4.871-4.519-5.944c-2.518-1.061-5.285-0.636-7.342,0.868c-10.712-5.219-20.806-11.987-29.946-20.261  c0.627-2.477-0.02-5.21-1.957-7.149c-1.944-1.945-4.689-2.591-7.173-1.955c-8.693-9.601-15.666-20.214-20.927-31.437  c1.51-2.035,1.959-4.781,0.934-7.299c-1.029-2.526-3.279-4.179-5.79-4.575c-4.036-11.499-6.381-23.463-7.044-35.504  c2.225-1.302,3.723-3.71,3.723-6.473c0-2.792-1.528-5.222-3.79-6.514c0.569-12.511,2.959-24.953,7.166-36.892  c2.7-0.219,5.19-1.878,6.315-4.546c1.141-2.706,0.566-5.7-1.221-7.789c5.048-10.621,11.638-20.683,19.772-29.851  c0.843,0.314,1.73,0.478,2.618,0.478c1.92,0,3.839-0.733,5.304-2.197c2.17-2.17,2.728-5.338,1.683-8.026  c9.269-8.445,19.676-15.43,30.849-20.794c1.413,1.47,3.363,2.321,5.4,2.321c0.942,0,1.9-0.179,2.826-0.555  c2.964-1.207,4.731-4.094,4.665-7.113c10.471-3.688,21.444-6.028,32.658-6.888c0.717-0.055,1.434-0.098,2.15-0.141  c1.022,2.927,3.8,5.031,7.076,5.031c3.3,0,6.097-2.135,7.1-5.097c12.421,0.629,24.651,3.054,36.294,7.167  c-0.302,3.176,1.46,6.316,4.556,7.62c0.951,0.401,1.938,0.591,2.91,0.591c2.204,0,4.324-0.979,5.753-2.686  c3.849,1.868,7.61,3.932,11.266,6.189l-36.797,36.777c-1.407,1.406-2.199,3.315-2.199,5.305s0.791,3.899,2.198,5.306l31.354,31.345  c1.465,1.464,3.384,2.196,5.303,2.196c1.919,0,3.838-0.732,5.302-2.196l36.757-36.74c2.491,4.05,4.745,8.23,6.759,12.515  c-2.481,2.029-3.467,5.51-2.196,8.633c1.185,2.912,3.99,4.676,6.95,4.676c0.199,0,0.399-0.012,0.6-0.029  c3.801,11.196,6.055,22.913,6.658,34.805c-2.962,1.003-5.097,3.8-5.097,7.1c0,3.276,2.104,6.054,5.031,7.077  c-0.045,0.748-0.091,1.496-0.149,2.245c-0.907,11.714-3.43,23.164-7.417,34.052c-3.014-0.098-5.915,1.633-7.156,4.578  c-1.228,2.913-0.472,6.16,1.649,8.252c-5.268,10.634-12.014,20.55-20.097,29.424c-2.688-1.045-5.855-0.487-8.025,1.683  c-2.141,2.14-2.71,5.25-1.722,7.914c-0.393,0.349-0.78,0.713-1.176,1.056c-3.131,2.712-3.471,7.45-0.758,10.581  c1.484,1.713,3.572,2.59,5.673,2.59c1.74,0,3.489-0.603,4.908-1.831c0.504-0.436,0.995-0.897,1.495-1.343  c1.371,1.109,3.04,1.665,4.711,1.665c1.92,0,3.839-0.733,5.304-2.197c2.712-2.712,2.908-6.981,0.599-9.924  c9.174-10.054,16.813-21.31,22.745-33.387c0.599,0.15,1.204,0.231,1.803,0.231c2.927,0,5.708-1.724,6.915-4.59  c1.444-3.426,0.144-7.313-2.895-9.239c4.52-12.258,7.379-25.158,8.401-38.358c0.081-1.042,0.15-2.084,0.207-3.126  c3.435-0.687,6.023-3.717,6.023-7.354c0-3.618-2.561-6.636-5.969-7.344c-0.646-13.703-3.248-27.205-7.694-40.082  c2.793-1.965,3.971-5.657,2.629-8.955c-1.338-3.285-4.738-5.101-8.094-4.579c-2.82-6.075-6.067-11.964-9.74-17.612l11.128-11.123  c19.693,28.948,29.265,63.798,27.045,99.079c-2.424,38.507-18.802,74.757-46.117,102.073c-61.808,61.81-162.374,61.81-224.182,0  c-61.807-61.81-61.807-162.382,0-224.192c20.315-20.316,45.699-34.723,73.409-41.665c4.019-1.007,6.46-5.081,5.453-9.1  c-1.007-4.019-5.081-6.461-9.099-5.453c-30.344,7.602-58.136,23.374-80.371,45.61c-67.657,67.659-67.657,177.75,0,245.409  c33.832,33.834,78.258,50.749,122.699,50.745c44.43-0.004,88.875-16.919,122.699-50.745c29.9-29.901,47.827-69.583,50.481-111.739  c2.491-39.569-8.577-78.651-31.233-110.801L387.209,166.937 M313.542,219.358l-20.737-20.738l21.239-21.227l20.736,20.737  L313.542,219.358z M240.545,292.321l-20.744-20.738l62.393-62.358c0.003-0.003-0.003,0.003,0,0l0,0l20.737,20.739L240.545,292.321z   M366.63,166.296l-21.238,21.229l-20.736-20.736l21.24-21.228L366.63,166.296z M407.38,84.11l20.737,20.726l-19.028,19.02  l-20.732-20.733L407.38,84.11z M474.787,69.493c-4.323,0.917-7.936,3.022-10.552,6.175l-19.981,24.086c-0.01,0.012,0.01-0.012,0,0  l0,0l0,0c-0.021-0.022,0.021,0.021,0,0c-0.022-0.022,0.022,0.021,0,0l-31.796-31.779l0,0c0.002-0.002-0.002,0.002,0,0l24.163-20.015  c3.111-2.577,5.237-6.257,6.134-10.542l28.664-21.074l24.25,24.237L474.787,69.493z"
   id="path14" />
<path
   d="M127.183,344.84c-2.93-2.93-7.68-2.928-10.608,0.003c-2.929,2.93-2.927,7.68,0.003,10.608l40.062,40.042  c1.465,1.464,3.383,2.196,5.302,2.196c1.92,0,3.841-0.733,5.305-2.199c2.929-2.93,2.927-7.68-0.003-10.608L127.183,344.84z"
   id="path16" />
<g
   id="g18">
</g>
<g
   id="g20">
</g>
<g
   id="g22">
</g>
<g
   id="g24">
</g>
<g
   id="g26">
</g>
<g
   id="g28">
</g>
<g
   id="g30">
</g>
<g
   id="g32">
</g>
<g
   id="g34">
</g>
<g
   id="g36">
</g>
<g
   id="g38">
</g>
<g
   id="g40">
</g>
<g
   id="g42">
</g>
<g
   id="g44">
</g>
<g
   id="g46">
</g>
<flowRoot
   xml:space="preserve"
   id="flowRoot837"
   style="fill:black;fill-opacity:1;stroke:none;font-family:sans-serif;font-style:normal;font-weight:normal;font-size:40px;line-height:1.25;letter-spacing:0px;word-spacing:0px"><flowRegion
     id="flowRegion839"><rect
       id="rect841"
       width="887.3324"
       height="264.68106"
       x="-1028.351"
       y="184.40894" /></flowRegion><flowPara
     id="flowPara843" /></flowRoot>
</svg>