<?xml version="1.0" encoding="UTF-8" standalone="no"?>
<!-- Generator: Adobe Illustrator 19.0.0, SVG Export Plug-In . SVG Version: 6.00 Build 0)  -->

<svg
   xmlns:dc="http://purl.org/dc/elements/1.1/"
   xmlns:cc="http://creativecommons.org/ns#"
   xmlns:rdf="http://www.w3.org/1999/02/22-rdf-syntax-ns#"
   xmlns:svg="http://www.w3.org/2000/svg"
   xmlns="http://www.w3.org/2000/svg"
   xmlns:sodipodi="http://sodipodi.sourceforge.net/DTD/sodipodi-0.dtd"
   xmlns:inkscape="http://www.inkscape.org/namespaces/inkscape"
   version="1.1"
   id="Capa_1"
   x="0px"
   y="0px"
   viewBox="0 0 512 512"
   xml:space="preserve"
   sodipodi:docname="bateria.svg"
   style="enable-background:new 0 0 512 512;"
   inkscape:version="0.92.4 (5da689c313, 2019-01-14)"><metadata
   id="metadata79"><rdf:RDF><cc:Work
       rdf:about=""><dc:format>image/svg+xml</dc:format><dc:type
         rdf:resource="http://purl.org/dc/dcmitype/StillImage" /></cc:Work></rdf:RDF></metadata><defs
   id="defs77" /><sodipodi:namedview
   pagecolor="#ffffff"
   bordercolor="#666666"
   borderopacity="1"
   objecttolerance="10"
   gridtolerance="10"
   guidetolerance="10"
   inkscape:pageopacity="0"
   inkscape:pageshadow="2"
   inkscape:window-width="1651"
   inkscape:window-height="773"
   id="namedview75"
   showgrid="false"
   inkscape:zoom="0.4609375"
   inkscape:cx="259.06281"
   inkscape:cy="167.21006"
   inkscape:window-x="0"
   inkscape:window-y="0"
   inkscape:window-maximized="0"
   inkscape:current-layer="Capa_1" />
<rect
   x="7.5"
   y="426"
   style="fill:#595959;"
   width="497"
   height="30"
   id="rect2" />
<rect
   x="474.5"
   y="426"
   style="fill:#464646;"
   width="30"
   height="30"
   id="rect4" />
<rect
   x="77"
   y="158"
   style="fill:#A66856;"
   width="128"
   height="86"
   id="rect6" />
<rect
   x="175"
   y="158"
   style="fill:#8F5040;"
   width="30"
   height="86"
   id="rect8" />
<rect
   x="71"
   y="134"
   style="fill:#FFDEA9;"
   width="140"
   height="24"
   id="rect10" />
<rect
   x="307"
   y="158"
   style="fill:#A66856;"
   width="128"
   height="86"
   id="rect12" />
<rect
   x="405"
   y="158"
   style="fill:#8F5040;"
   width="30"
   height="86"
   id="rect14" />
<rect
   x="301"
   y="134"
   style="fill:#FFDEA9;"
   width="140"
   height="24"
   id="rect16" />
<g
   id="g22">
	<rect
   x="181"
   y="134"
   style="fill:#FFBF7B;"
   width="30"
   height="24"
   id="rect18" />
	<rect
   x="410.98"
   y="134"
   style="fill:#FFBF7B;"
   width="30"
   height="24"
   id="rect20" />
</g>
<g
   id="g28">
	<path
   style="fill:#FFCE55;"
   d="M141,93H37c0,0,8-24,53-24S141,93,141,93z"
   id="path24" />
	<path
   style="fill:#FFCE55;"
   d="M474,93H370c0,0,8-24,53-24S474,93,474,93z"
   id="path26" />
</g>
<g
   id="g34">
	<path
   style="fill:#FFBC38;"
   d="M423,69c-5.56,0-10.551,0.369-15.036,1.011C439.39,74.569,444,93,444,93h30C474,93,468,69,423,69z"
   id="path30" />
	<path
   style="fill:#FFBC38;"
   d="M90,69c-5.56,0-10.551,0.369-15.036,1.011C106.39,74.569,111,93,111,93h30C141,93,135,69,90,69z"
   id="path32" />
</g>
<circle
   style="fill:#FFDEA9;"
   cx="256"
   cy="289"
   r="121"
   id="circle36" />
<path
   style="fill:#595959;"
   d="M256,384c-52.383,0-95-42.617-95-95s42.617-95,95-95s95,42.617,95,95S308.383,384,256,384z"
   id="path38" />
<path
   d="M504.5,418.5h-46.061L429.5,382.981V251.5h5.5c4.142,0,7.5-3.358,7.5-7.5v-20.125c0-4.142-3.358-7.5-7.5-7.5  s-7.5,3.358-7.5,7.5V236.5h-54.223c-11.995-26.69-32.839-48.576-58.777-61.895V165.5h113v26.375c0,4.142,3.358,7.5,7.5,7.5  s7.5-3.358,7.5-7.5v-26.526c3.423-0.695,6-3.721,6-7.349v-24c0-4.142-3.358-7.5-7.5-7.5h-11.5v-26H474  c2.31,0,4.49-1.064,5.912-2.884s1.925-4.194,1.364-6.435c-0.289-1.158-7.327-27.183-51.776-29.513V56c0-4.142-3.358-7.5-7.5-7.5  s-7.5,3.358-7.5,7.5v5.79c-42.475,2.953-51.242,27.72-51.615,28.839c-0.762,2.287-0.379,4.801,1.031,6.757s3.674,3.115,6.084,3.115  h44.5v26H301c-4.142,0-7.5,3.358-7.5,7.5v24c0,3.628,2.577,6.654,6,7.349v2.736c-13.592-4.905-28.238-7.585-43.5-7.585  s-29.908,2.68-43.5,7.585v-2.736c3.423-0.695,6-3.721,6-7.349v-24c0-4.142-3.358-7.5-7.5-7.5h-50.75c-4.142,0-7.5,3.358-7.5,7.5  s3.358,7.5,7.5,7.5h43.25v9h-125v-9H128c4.142,0,7.5-3.358,7.5-7.5s-3.358-7.5-7.5-7.5H97.5v-26H141c2.31,0,4.49-1.064,5.912-2.884  s1.925-4.194,1.364-6.435c-0.287-1.149-7.224-26.789-50.776-29.454V56c0-4.142-3.358-7.5-7.5-7.5s-7.5,3.358-7.5,7.5v5.726  c-43.336,2.631-52.24,27.775-52.615,28.902c-0.762,2.287-0.379,4.801,1.031,6.757c1.41,1.956,3.674,3.115,6.084,3.115h45.5v26H71  c-4.142,0-7.5,3.358-7.5,7.5v24c0,3.628,2.577,6.654,6,7.349V244c0,4.142,3.358,7.5,7.5,7.5h5.5v131.481L53.561,418.5H7.5  c-4.142,0-7.5,3.358-7.5,7.5v30c0,4.142,3.358,7.5,7.5,7.5h497c4.142,0,7.5-3.358,7.5-7.5v-30  C512,421.858,508.642,418.5,504.5,418.5z M423,76.5c18.962,0,29.856,4.459,36.034,9h-72.87C392.885,80.931,404.24,76.5,423,76.5z   M308.5,141.5h125v9h-125V141.5z M90,76.5c18.962,0,29.856,4.459,36.034,9h-72.87C59.885,80.931,71.24,76.5,90,76.5z M439.09,418.5  h-9.59v-11.771L439.09,418.5z M404.91,418.5l9.59-11.771V418.5H404.91z M414.5,251.5v131.481L385.561,418.5H351.09l-17.485-27.153  C364.508,367.858,384.5,330.722,384.5,289c0-13.041-1.959-25.631-5.587-37.5H414.5z M256,417.5c23.764,0,46.038-6.492,65.154-17.785  L333.25,418.5h-154.5l12.096-18.785C209.962,411.008,232.236,417.5,256,417.5z M369.5,289c0,62.584-50.916,113.5-113.5,113.5  S142.5,351.584,142.5,289S193.416,175.5,256,175.5S369.5,226.416,369.5,289z M197.5,165.5v9.105  c-25.938,13.318-46.782,35.204-58.777,61.895H84.5v-71H197.5z M133.087,251.5c-3.628,11.869-5.587,24.459-5.587,37.5  c0,41.722,19.992,78.858,50.894,102.347L160.909,418.5h-34.471L97.5,382.981V251.5H133.087z M97.5,406.729l9.59,11.771H97.5V406.729  z M82.5,406.729V418.5h-9.59L82.5,406.729z M497,448.5H15v-15l0,0c0.005,0-0.005,0,0,0s-0.005,0,0,0h482  c0.005,0-149.998,0.001-149.993,0.001s0.009-0.001,0.014-0.001H497V448.5z"
   id="path40" />
<path
   d="M153.525,291.284c0.092,4.142,3.542,7.447,7.665,7.332c4.141-0.092,7.423-3.523,7.332-7.665  c-0.014-0.648-0.021-1.299-0.021-1.951c0-48.248,39.252-87.5,87.5-87.5s87.5,39.252,87.5,87.5s-39.252,87.5-87.5,87.5  c-36.189,0-69.104-22.785-81.904-56.697c-1.462-3.875-5.79-5.833-9.665-4.368c-3.875,1.462-5.831,5.79-4.368,9.665  c14.99,39.716,53.544,66.4,95.937,66.4c56.519,0,102.5-45.981,102.5-102.5S312.519,186.5,256,186.5S153.5,232.481,153.5,289  C153.5,289.763,153.508,290.524,153.525,291.284z"
   id="path42" />
<g
   id="g44">
</g>
<g
   id="g46">
</g>
<g
   id="g48">
</g>
<g
   id="g50">
</g>
<g
   id="g52">
</g>
<g
   id="g54">
</g>
<g
   id="g56">
</g>
<g
   id="g58">
</g>
<g
   id="g60">
</g>
<g
   id="g62">
</g>
<g
   id="g64">
</g>
<g
   id="g66">
</g>
<g
   id="g68">
</g>
<g
   id="g70">
</g>
<g
   id="g72">
</g>
<text
   xml:space="preserve"
   style="font-style:normal;font-weight:normal;font-size:40px;line-height:1.25;font-family:sans-serif;letter-spacing:0px;word-spacing:0px;fill:#000000;fill-opacity:1;stroke:none"
   x="-650.84747"
   y="182.23729"
   id="text891"><tspan
     sodipodi:role="line"
     id="tspan889"
     x="-650.84747"
     y="218.7305"></tspan></text>
</svg>