<?xml version="1.0" encoding="iso-8859-1"?>
<!-- Generator: Adobe Illustrator 19.0.0, SVG Export Plug-In . SVG Version: 6.00 Build 0)  -->
<svg version="1.1" id="Capa_1" xmlns="http://www.w3.org/2000/svg" xmlns:xlink="http://www.w3.org/1999/xlink" x="0px" y="0px"
	 viewBox="0 0 512 512" style="enable-background:new 0 0 512 512;" xml:space="preserve">
<path style="fill:#A66856;" d="M420.62,36.846v15.72c0,18.97-34.77,149.688-64.62,179.538H156
	c-29.85-29.85-64.62-160.568-64.62-179.538v-15.72C91.38,36.846,420.62,36.846,420.62,36.846z"/>
<path style="fill:#8F5040;" d="M390.12,36.846v15.72c0,18.97-11.16,74.955-49.293,179.538H356
	c29.85-29.85,64.62-160.568,64.62-179.538v-15.72C420.62,36.846,390.12,36.846,390.12,36.846z"/>
<rect x="151" y="232.1" style="fill:#FFDEA9;" width="210" height="46"/>
<rect x="331" y="232.1" style="fill:#FFBF7B;" width="30" height="46"/>
<path style="fill:#735458;" d="M376.338,504.5H135.662c-2.505,0-4.394-2.277-3.931-4.739l41.655-221.657h165.227l41.655,221.657
	C380.732,502.223,378.843,504.5,376.338,504.5z"/>
<path style="fill:#5C4346;" d="M380.269,499.761l-41.655-221.657h-30l41.655,221.657c0.463,2.462-1.426,4.739-3.931,4.739h30
	C378.843,504.5,380.732,502.223,380.269,499.761z"/>
<path style="fill:#FFDEA9;" d="M429,64.5c-17.299,0-17.299-14-34.599-14s-17.3,14-34.6,14c-17.297,0-17.297-14-34.594-14
	c-17.298,0-17.298,14-34.595,14c-17.3,0-17.3-14-34.599-14c-17.3,0-17.3,14-34.6,14c-17.301,0-17.301-14-34.602-14
	c-17.3,0-17.3,14-34.6,14c-17.303,0-17.303-14-34.605-14s-17.303,14-34.605,14v-47c0-5.523,4.477-10,10-10h326
	c5.523,0,10,4.477,10,10L429,64.5L429,64.5z"/>
<path style="fill:#FFBF7B;" d="M419,7.5h-30c5.523,0,10,4.477,10,10v33.378c12.861,2.225,14.389,13.622,30,13.622v-47
	C429,11.977,424.523,7.5,419,7.5z"/>
<path d="M158.5,239.604C158.504,239.604,158.496,239.604,158.5,239.604C158.503,239.604,158.497,239.604,158.5,239.604h195
	c0.003,0-0.003,0,0,0c0.004,0-0.004,0,0,0l0,0c0.014,0-0.014,0,0,0c0.009,0-0.009,0,0,0l0,0v31h-33.157c-4.143,0-7.5,3.358-7.5,7.5
	s3.357,7.5,7.5,7.5h12.049L372.119,497H139.881l3.107-16.531c0.765-4.071-1.915-7.991-5.985-8.756
	c-4.074-0.764-7.991,1.915-8.757,5.986l-3.887,20.68c-0.633,3.374,0.261,6.824,2.453,9.465c2.191,2.641,5.417,4.156,8.85,4.156
	h240.676c3.433,0,6.658-1.515,8.85-4.156c2.192-2.642,3.086-6.092,2.453-9.468l-39.986-212.772H361c4.143,0,7.5-3.358,7.5-7.5v-46
	c0-0.958-0.186-1.87-0.514-2.712c25.365-35.188,49.659-121.559,57.258-157.586C426.429,71.928,427.675,72,429,72
	c4.143,0,7.5-3.358,7.5-7.5v-47C436.5,7.851,428.649,0,419,0H93c-9.649,0-17.5,7.851-17.5,17.5v47c0,4.142,3.357,7.5,7.5,7.5
	c1.319,0,2.558-0.071,3.738-0.193c1.603,7.701,3.814,16.981,6.44,26.973c0.885,3.368,3.923,5.596,7.249,5.596
	c0.631,0,1.272-0.081,1.911-0.248c4.006-1.053,6.4-5.154,5.348-9.16c-2.837-10.796-5.17-20.691-6.733-28.515
	c1.485-1.037,2.818-2.112,4.068-3.123c3.967-3.21,6.588-5.331,12.585-5.331s8.618,2.121,12.585,5.331
	c3.695,2.99,8.102,6.536,15.143,7.99c2.092,19.462,10.407,81.446,36.977,153.28H159.28c-12.363-14.444-28.22-50.981-42.924-99.137
	c-1.209-3.962-5.403-6.193-9.363-4.982c-3.961,1.209-6.192,5.401-4.982,9.363c8.574,28.082,24.637,75.358,42.01,99.529
	c-0.332,0.847-0.521,1.767-0.521,2.732v46c0,4.142,3.357,7.5,7.5,7.5h13.346l-30.179,160.584c-0.765,4.071,1.915,7.991,5.986,8.756
	c0.468,0.088,0.934,0.13,1.394,0.13c3.536,0,6.686-2.514,7.362-6.116l30.699-163.355h108.734c4.143,0,7.5-3.358,7.5-7.5
	s-3.357-7.5-7.5-7.5H158.5c-0.004,0,0.004,0,0,0l0,0V239.604 M117.605,43c-11.306,0-17.247,4.807-22.021,8.669
	c-1.827,1.479-3.368,2.725-5.085,3.641V17.5c0-1.378,1.121-2.5,2.5-2.5h326c1.379,0,2.5,1.122,2.5,2.5v37.809
	c-1.716-0.915-3.256-2.162-5.082-3.639C411.645,47.807,405.704,43,394.4,43c-11.305,0-17.245,4.807-22.018,8.67
	C368.415,54.879,365.795,57,359.8,57c-5.994,0-8.614-2.121-12.579-5.33C342.45,47.807,336.51,43,325.207,43
	c-11.304,0-17.244,4.808-22.017,8.67c-3.965,3.209-6.585,5.33-12.578,5.33c-5.995,0-8.615-2.121-12.582-5.33
	c-4.772-3.863-10.713-8.67-22.018-8.67c-11.305,0-17.244,4.807-22.018,8.67c-3.967,3.209-6.587,5.33-12.583,5.33
	s-8.616-2.121-12.583-5.33c-4.773-3.863-10.714-8.67-22.019-8.67s-17.245,4.807-22.018,8.67c-3.967,3.209-6.587,5.33-12.582,5.33
	c-5.997,0-8.618-2.121-12.585-5.331C134.853,47.807,128.911,43,117.605,43z M239.215,224.6
	c-7.574-69.707-9.66-133.12-10.161-153.438c6.603-1.545,10.816-4.95,14.377-7.832c3.967-3.209,6.587-5.33,12.582-5.33
	c5.995,0,8.615,2.121,12.582,5.33c3.82,3.092,8.396,6.782,15.865,8.135c-0.514,20.64-2.615,83.751-10.154,153.135H239.215z
	 M289.394,224.6c7.571-70.367,9.61-134.071,10.085-153.758c5.904-1.659,9.816-4.813,13.15-7.512c3.965-3.209,6.585-5.33,12.579-5.33
	c5.993,0,8.613,2.12,12.578,5.33c3.719,3.01,8.159,6.583,15.281,8.019c-2.418,20.936-11.368,83.458-37.874,153.252h-25.799V224.6z
	 M160.417,71.014c6.275-1.604,10.355-4.887,13.811-7.684c3.967-3.209,6.587-5.33,12.582-5.33c5.996,0,8.616,2.121,12.583,5.33
	c3.611,2.922,7.895,6.381,14.658,7.894c0.492,20.116,2.553,83.456,10.075,153.376h-25.798
	C171.682,154.436,162.778,91.617,160.417,71.014z M388.167,148.665c-12.673,37.253-25.16,63.969-35.442,75.936H331.21
	c26.736-72.285,34.989-134.596,37.017-153.643c6.151-1.624,10.177-4.863,13.593-7.627c3.967-3.209,6.587-5.33,12.582-5.33
	s8.614,2.12,12.581,5.33c1.248,1.01,2.58,2.084,4.064,3.12C407.275,85.294,398.718,117.648,388.167,148.665z"/>
<g>
</g>
<g>
</g>
<g>
</g>
<g>
</g>
<g>
</g>
<g>
</g>
<g>
</g>
<g>
</g>
<g>
</g>
<g>
</g>
<g>
</g>
<g>
</g>
<g>
</g>
<g>
</g>
<g>
</g>
</svg>
