<?xml version="1.0" encoding="iso-8859-1"?>
<!-- Generator: Adobe Illustrator 19.0.0, SVG Export Plug-In . SVG Version: 6.00 Build 0)  -->
<svg version="1.1" id="Capa_1" xmlns="http://www.w3.org/2000/svg" xmlns:xlink="http://www.w3.org/1999/xlink" x="0px" y="0px"
	 viewBox="0 0 512.002 512.002" style="enable-background:new 0 0 512.002 512.002;" xml:space="preserve">
<g>
	<path style="fill:#735458;" d="M446.461,130.659l-26.397-38.735l-38.758-26.39c-5.683-5.68-5.683-14.891,0-20.571l0,0
		c5.681-5.678,14.889-5.678,20.57,0l26.904,38.246l38.25,26.879c5.683,5.68,5.683,14.891,0,20.571l0,0
		C461.35,136.338,452.141,136.338,446.461,130.659z"/>
	<path style="fill:#735458;" d="M479.67,97.456l-25.714-39.427l-39.44-25.698c-5.683-5.68-5.683-14.891,0-20.571l0,0
		c5.681-5.678,14.889-5.678,20.57,0l25.827,39.315l39.328,25.81c5.683,5.68,5.683,14.891,0,20.571l0,0
		C494.559,103.134,485.351,103.134,479.67,97.456z"/>
</g>
<rect x="41.812" y="263.572" transform="matrix(0.7071 0.7071 -0.7071 0.7071 270.295 -101.4053)" style="fill:#FFDEA9;" width="431.486" height="24"/>
<g>
	<polygon style="fill:#A66856;" points="151.074,152.123 169.268,133.548 141.179,105.458 122.794,123.843 	"/>
	<path style="fill:#A66856;" d="M47.649,461.704c-68.464-70.08-45.94-180.459,41.564-200.733l0.009-0.009
		c23.877,11.914,49.973,10.814,65.793-4.998c11.741-11.736,15.376-29.144,11.579-47.113c5.34-8.644,4.549-10.141,19.031-25.996
		c77.251-84.62,234.103,66.539,141.657,145.409c-16.104,13.733-14.39,11.001-23.96,17.13c-18.029-3.848-35.515-0.23-47.29,11.54
		c-15.82,15.812-16.929,41.888-5.009,65.754C230.662,510.629,118.22,533.923,47.649,461.704z"/>
</g>
<path style="fill:#8F5040;" d="M284.448,168.66c44.361,36.084,67.905,100.427,17.586,143.357
	c-14.897,12.705-14.547,11.318-21.987,15.892c-1.241,0.763-2.724,1.067-4.157,0.809c-17.249-3.111-33.806,0.676-45.105,11.97
	c-15.393,15.386-16.858,40.489-5.945,63.819c0.589,1.259,0.77,2.68,0.432,4.027c-17.938,71.443-97.381,99.026-163.914,65.613
	c70.575,56.608,170.58,30.98,189.667-51.457c-11.92-23.866-10.81-49.942,5.009-65.755c11.776-11.77,29.261-15.387,47.29-11.54
	c9.57-6.129,7.856-3.397,23.96-17.13C386.518,277.727,343.397,197.51,284.448,168.66z"/>
<g>
	<polygon style="fill:#735458;" points="230.598,308.476 203.437,281.329 413.639,71.21 440.8,98.357 	"/>
	<path style="fill:#735458;" d="M29.882,482.027L29.882,482.027c-3.445-3.444-3.837-8.819-0.906-12.427l59.794-73.624l27.179,27.174
		l-73.638,59.784C38.702,485.864,33.327,485.472,29.882,482.027z"/>
</g>
<path style="fill:#8F5040;" d="M421.265,128.756l-38.057-38.037c-1.75-1.749-1.017-5.222,1.581-7.499l74.175-64.991
	c2.282-1.999,5.203-2.354,6.739-0.819l28.609,28.595c1.53,1.529,1.185,4.432-0.796,6.711l-64.727,74.433
	C426.515,129.766,423.022,130.512,421.265,128.756z"/>
<polygon style="fill:#A66856;" points="501.892,53.581 472.902,82.571 451.902,61.571 429.412,39.091 458.402,10.101 
	480.892,32.581 "/>
<rect x="456.4" y="42.728" transform="matrix(-0.7071 0.7071 -0.7071 -0.7071 854.8296 -238.9285)" style="fill:#8F5040;" width="40.998" height="29.698"/>
<path d="M330.825,218.898c10.834,16.079,16.913,33.455,17.261,49.663c0.28,13.004-2.96,24.945-9.652,35.705
	c-0.202,0.271-0.385,0.55-0.546,0.84c-4,6.226-9.153,12.057-15.482,17.456c-11.075,9.451-13.11,10.609-16.803,12.711
	c-0.418,0.238-0.874,0.498-1.356,0.777c-0.102,0.053-0.199,0.115-0.299,0.172c-0.635,0.369-1.331,0.779-2.113,1.255
	c-20.099-3.449-38.589,1.634-51.123,14.157c-17.119,17.117-20.008,45.096-7.629,71.893c-3.702,14.416-10.16,27.242-19.218,38.154
	c-2.646,3.187-2.207,7.916,0.981,10.561c1.401,1.163,3.098,1.73,4.787,1.729c2.154,0,4.292-0.923,5.775-2.71
	c11.09-13.359,18.796-29.129,22.905-46.871c0.394-1.699,0.183-3.482-0.597-5.043c-10.825-21.678-9.411-44.093,3.602-57.104
	c9.5-9.493,24.235-12.96,40.431-9.51c1.627,0.347,3.311,0.135,4.796-0.575l89.773,89.764c1.465,1.464,3.385,2.197,5.304,2.197
	c1.919,0,3.839-0.732,5.304-2.197l16.972-16.97c1.413-1.414,2.204-3.334,2.197-5.333c-0.002-0.434-0.048-0.863-0.123-1.284
	l0.618-2.167c4.825-16.984-2.595-38.496-18.903-54.803l-53.87-53.866c6.41-12.028,9.569-25.253,9.268-39.261
	c-0.428-19.888-8.026-41.009-21.486-60.109l0,0c0.016-0.015-0.031,0.031-0.015,0.016c0.016-0.016,0,0,0.015-0.016l51.277-51.253
	c2.929-2.928,2.93-7.677,0.002-10.607c-2.929-2.928-7.674-2.93-10.604-0.006l-16.551-16.55l22.945-22.933l16.553,16.547
	l-0.321,0.321c-2.93,2.929-2.931,7.677-0.003,10.607c1.465,1.465,3.385,2.198,5.305,2.198c1.919,0,3.838-0.732,5.302-2.195
	l0.325-0.325l0.147,0.147c2.041,2.03,4.791,3.133,7.785,3.133c0.147,0,0.294-0.002,0.442-0.008
	c3.796-0.137,7.532-2.006,10.252-5.131l2.186-2.513l3.626,5.324c0.265,0.387,0.565,0.75,0.896,1.081
	c4.164,4.164,9.699,6.457,15.586,6.457c5.892,0,11.431-2.293,15.595-6.457c8.596-8.596,8.596-22.581,0-31.177
	c-0.306-0.306-0.638-0.584-0.992-0.834l-7.72-5.424l4.451-5.117l5.316,8.146c0.283,0.434,0.611,0.838,0.978,1.205
	c4.158,4.157,9.696,6.447,15.595,6.447c5.892,0,11.428-2.29,15.59-6.452c8.589-8.603,8.587-22.591-0.004-31.182
	c-0.362-0.362-0.76-0.686-1.188-0.966l-5.369-3.524l8.204-8.202c1.407-1.406,2.197-3.315,2.197-5.304s-0.79-3.898-2.197-5.304
	L463.714,4.799c-2.93-2.929-7.679-2.928-10.607,0l-8.22,8.218l-3.533-5.375c-0.28-0.426-0.604-0.823-0.964-1.184
	c-4.164-4.164-9.699-6.457-15.585-6.457c-5.892,0-11.431,2.293-15.595,6.457c-8.596,8.596-8.596,22.581,0,31.177
	c0.368,0.367,0.773,0.696,1.208,0.98l7.971,5.196l-5.044,4.42l-5.337-7.585c-0.248-0.353-0.525-0.683-0.83-0.987
	c-4.164-4.164-9.703-6.457-15.595-6.457c-5.886,0-11.421,2.293-15.586,6.457c-8.596,8.596-8.596,22.582,0,31.177
	c0.332,0.332,0.694,0.632,1.082,0.896l5.316,3.619l-2.549,2.233c-3.107,2.724-4.96,6.458-5.084,10.243
	c-0.104,3.156,1.014,6.068,3.146,8.2l0.15,0.15l0,0c-0.014,0.014,0.028-0.028,0.014-0.014s0,0-0.014,0.014l-74.759,74.72
	c-10.354-6.904-21.174-12.18-32.249-15.686c-3.947-1.248-8.164,0.938-9.415,4.887c-1.25,3.949,0.938,8.164,4.887,9.414
	c8.84,2.798,17.53,6.908,25.931,12.225l-94.344,94.295c-1.407,1.407-2.198,3.315-2.198,5.305s0.791,3.898,2.199,5.305l27.173,27.15
	c1.465,1.463,3.383,2.195,5.302,2.195s3.839-0.732,5.303-2.196L330.825,218.898 M401.623,426.012l-81.941-81.934
	c1.839-1.335,4.069-3.083,7.119-5.608l81.185,81.178L401.623,426.012z M397.079,371.971c9.499,9.498,15.254,21.234,15.895,31.451
	l-74.914-74.908c2.653-2.645,5.101-5.386,7.343-8.215L397.079,371.971z M295.765,232.732l-16.553-16.552l18.227-18.217
	l16.552,16.551L295.765,232.732z M324.601,203.909l-16.552-16.551l18.226-18.217l16.552,16.55L324.601,203.909z M230.584,297.883
	l-16.561-16.548l54.578-54.55l16.553,16.552L230.584,297.883z M371.663,156.869l-18.226,18.217l-16.552-16.55l18.226-18.217
	L371.663,156.869z M458.411,20.709l32.882,32.874l-18.386,18.381l0,0c-0.009-0.009,0.009,0.009,0,0L440.025,39.09L458.411,20.709
	C458.418,20.703,458.405,20.715,458.411,20.709L458.411,20.709z M419.818,17.064c1.33-1.33,3.101-2.063,4.987-2.063
	c1.667,0,3.246,0.576,4.51,1.635l4.739,7.211l-7.429,7.427l-7.242-4.721C417.08,23.788,417.224,19.658,419.818,17.064z
	 M386.21,59.801c-2.346-2.765-2.215-6.927,0.395-9.536c1.33-1.33,3.098-2.063,4.977-2.063c1.706,0,3.319,0.6,4.596,1.7l5.82,8.271
	l-7.949,6.965L386.21,59.801z M424.161,121.053l-33.24-33.229l40.841-35.785c0.021-0.018-0.021,0.019,0,0l0,0l0,0
	c0.039,0.04-0.04-0.039,0,0l28.038,28.03c0.049,0.051-0.051-0.049,0,0l0,0l0,0c-0.018,0.021,0.018-0.021,0,0L424.161,121.053
	 M462.1,115.789c2.377,2.765,2.256,6.952-0.364,9.571c-1.33,1.33-3.101,2.063-4.987,2.063c-1.685,0-3.279-0.588-4.549-1.668
	l-5.378-7.896l6.913-7.948L462.1,115.789z M494.949,92.159c-1.323,1.324-3.091,2.053-4.977,2.053c-1.674,0-3.254-0.571-4.513-1.62
	l-4.725-7.242l7.433-7.431l7.211,4.733C497.689,85.419,497.544,89.56,494.949,92.159z"/>
<path d="M201.674,481.121c-19.336,12.209-43.39,17.664-67.732,15.367c-23.133-2.184-45.344-11.049-64.756-25.732l51.461-41.776
	c1.65-1.339,2.654-3.314,2.763-5.435c0.11-2.122-0.685-4.19-2.187-5.691l-27.182-27.175c-1.502-1.501-3.561-2.299-5.691-2.186
	c-2.121,0.109-4.096,1.113-5.435,2.762l-41.771,51.427c-24.578-32.714-32.586-74.153-20.805-110.149
	c10.518-32.136,35.234-55.206,68.034-63.64c26.815,12.377,54.802,9.49,71.914-7.622c12.52-12.509,17.616-30.969,14.184-51.012
	c0.497-0.853,0.934-1.625,1.347-2.358c0.032-0.059,0.068-0.115,0.099-0.175c0.042-0.074,0.088-0.156,0.129-0.229
	c2.6-4.622,4.479-7.962,15.092-19.586c12.806-14.025,28.439-21.577,46.464-22.447c4.138-0.2,7.33-3.715,7.13-7.853
	c-0.2-4.137-3.719-7.339-7.854-7.13c-11.293,0.545-21.998,3.358-31.834,8.259l-83.619-83.612c-2.929-2.929-7.679-2.929-10.608,0
	c-2.93,2.929-2.93,7.678,0,10.607l19.726,19.724l-7.779,7.779l-4.009-4.009c-1.406-1.407-3.314-2.197-5.304-2.197
	s-3.897,0.79-5.304,2.197L91.175,126.2c-2.93,2.929-2.93,7.678,0,10.607l68.69,68.684c-0.76,1.514-0.991,3.246-0.638,4.916
	c3.409,16.116-0.07,30.788-9.546,40.256c-13.015,13.012-35.445,14.422-57.143,3.593c-1.668-0.834-3.541-0.993-5.262-0.537
	c-39.175,9.146-68.764,36.162-81.196,74.149c-13.66,41.737-3.917,89.75,25.35,126.773l-8.317,10.24
	c-5.375,6.618-4.763,16.273,1.425,22.46l0,0c3.366,3.364,7.759,5.08,12.13,5.08c3.664,0,7.314-1.205,10.332-3.655l10.218-8.295
	c22.304,17.718,48.213,28.393,75.312,30.952c4.106,0.388,8.203,0.579,12.282,0.579c23.369,0,46.033-6.303,64.87-18.196
	c3.503-2.212,4.549-6.844,2.338-10.346C209.81,479.957,205.178,478.91,201.674,481.121z M191.972,166.881
	c-2.886,2.197-5.664,4.612-8.331,7.227l-22.04-22.038l7.699-7.859L191.972,166.881z M141.152,116.067l17.539,17.538l-7.699,7.859
	l-6.459-6.458l-11.161-11.16L141.152,116.067z M113.453,125.139l4.005,4.005c0.002,0.002,0.003,0.003,0.004,0.005l18.494,18.493
	l37.558,37.555c-2.438,2.867-4.229,5.148-5.633,7.095l-60.793-60.788L113.453,125.139z M37.547,477.119
	c-0.612,0.496-1.689,0.323-2.4-0.387c-0.71-0.709-0.883-1.784-0.387-2.396l12.248-15.08c0.02-0.025,0.042-0.05,0.061-0.075
	l42.248-52.014l15.415,15.412L37.547,477.119z"/>
<path d="M166.902,290.771c0,4.16-3.37,7.53-7.52,7.53c-1.62,0-3.12-0.51-4.34-1.38c-2.82-1.26-10.86,0.22-21.39,14.87
	c-12.32,17.15-25.04,21.01-33.99,21.01c-0.49,0-0.97-0.01-1.44-0.03c-10.85-0.51-19.22-6.59-22.41-12.03
	c-2.09-3.58-0.89-8.17,2.68-10.26c3.58-2.1,8.17-0.9,10.27,2.68c0.55,0.94,4.33,4.35,10.15,4.63c7.58,0.37,15.37-4.75,22.56-14.75
	c8.67-12.06,17.76-19.11,27.02-20.96c7.93-1.57,13.12,1.28,14.21,1.95c0.02,0,0.04,0.01,0.05,0.03
	C165.212,285.281,166.902,287.831,166.902,290.771z"/>
<path d="M208.902,390.431c-10.01,7.18-15.11,14.98-14.75,22.54c0.27,5.82,3.68,9.6,4.62,10.15c3.58,2.09,4.78,6.68,2.69,10.26
	c-1.39,2.38-3.9,3.71-6.48,3.71c-1.29,0-2.59-0.33-3.78-1.02c-5.44-3.19-11.53-11.56-12.04-22.4c-0.42-8.99,2.88-22.43,20.99-35.42
	c14.43-10.36,16.1-18.3,14.93-21.24c0.03,0.05,0.07,0.1,0.11,0.14c-0.03-0.04-0.1-0.15-0.18-0.32c0.03,0.06,0.05,0.12,0.07,0.18
	c-0.88-1.23-1.39-2.73-1.39-4.36c0-4.16,3.37-7.53,7.52-7.53c2.9,0,5.42,1.64,6.67,4.05l0.01-0.01
	C228.382,349.941,239.552,368.431,208.902,390.431z"/>
<path d="M215.192,357.151c-0.04-0.04-0.08-0.09-0.11-0.14c-0.02-0.06-0.04-0.12-0.07-0.18
	C215.092,357.001,215.162,357.111,215.192,357.151z"/>
<path d="M183.554,366.412c1.465,1.464,3.384,2.196,5.303,2.196c1.92,0,3.84-0.732,5.304-2.197c2.929-2.929,2.929-7.678-0.001-10.607
	l-38.055-38.044c-2.929-2.929-7.679-2.928-10.608,0.001c-2.929,2.929-2.929,7.678,0.001,10.607L183.554,366.412z"/>
<g>
</g>
<g>
</g>
<g>
</g>
<g>
</g>
<g>
</g>
<g>
</g>
<g>
</g>
<g>
</g>
<g>
</g>
<g>
</g>
<g>
</g>
<g>
</g>
<g>
</g>
<g>
</g>
<g>
</g>
</svg>
