<?xml version="1.0" encoding="iso-8859-1"?>
<!-- Generator: Adobe Illustrator 19.0.0, SVG Export Plug-In . SVG Version: 6.00 Build 0)  -->
<svg version="1.1" id="Capa_1" xmlns="http://www.w3.org/2000/svg" xmlns:xlink="http://www.w3.org/1999/xlink" x="0px" y="0px"
	 viewBox="0 0 512 512" style="enable-background:new 0 0 512 512;" xml:space="preserve">
<g>
	<polygon style="fill:#A66856;" points="149.165,150.215 167.36,131.64 139.27,103.551 120.885,121.936 	"/>
	<path style="fill:#A66856;" d="M65.064,274.958c3.565-1.466,7.577-1.461,11.121,0.055c23.392,10.009,48.009,8.136,63.369-7.231
		c12.192-12.198,11.953-48.986,11.953-48.986s10.566-15.999,17.744-24.819c40.15-49.33,145.96,2.807,145.96,2.807l-0.002,0.001
		c0,0,52.136,105.811,2.807,145.961c-8.82,7.178-24.818,17.744-24.818,17.744s-36.787-0.239-48.985,11.954
		c-15.367,15.36-17.241,39.978-7.231,63.37c1.516,3.544,1.521,7.556,0.055,11.121c-18.187,44.247-116.405,93.817-191.097,19.123
		S20.818,293.145,65.064,274.958z"/>
</g>
<path style="fill:#8F5040;" d="M315.21,196.785l0.002-0.001c0,0-9.201-4.532-23.2-9.659c10.958,25.521,40.188,104.416-0.87,137.835
	c-7.498,6.103-20.185,14.654-23.819,17.08c-0.644,0.43-1.398,0.662-2.172,0.672c-6.368,0.083-36.911,1.05-47.812,11.946
	c-15.318,15.312-17.229,39.821-7.326,63.147c1.534,3.613,1.643,7.713,0.151,11.344c-15.36,37.371-87.812,78.536-154.961,45.425
	c73.322,62.121,164.394,14.801,181.837-27.64c1.474-3.586,1.435-7.625-0.087-11.191c-9.975-23.371-8.089-47.954,7.262-63.298
	c12.198-12.192,48.985-11.953,48.985-11.953s15.999-10.566,24.818-17.745C367.346,302.596,315.21,196.785,315.21,196.785z"/>
<polygon style="fill:#735458;" points="221.934,311.97 199.987,290.037 417.713,72.374 439.661,94.307 "/>
<path style="fill:#8F5040;" d="M421.181,127.553L384.43,90.821c-1.69-1.689-0.835-5.191,1.846-7.56l76.511-67.643
	c2.354-2.081,5.29-2.538,6.773-1.056l27.628,27.613c1.477,1.476,1.031,4.394-1.032,6.744l-67.387,76.761
	C426.4,128.379,422.878,129.248,421.181,127.553z"/>
<path style="fill:#735458;" d="M17.134,494.852L17.134,494.852c-3.569-3.568-3.975-9.135-0.939-12.873l61.937-76.264l28.153,28.148
	L30.008,495.79C26.27,498.826,20.702,498.42,17.134,494.852z"/>
<polygon style="fill:#A66856;" points="504.5,49.49 474.47,79.51 452.72,57.77 452.72,57.76 432.48,37.53 462.51,7.5 "/>
<polygon style="fill:#8F5040;" points="504.5,49.49 474.47,79.51 452.72,57.77 452.72,57.76 482.74,27.73 "/>
<path d="M346.252,299.926c0.353-3.895,0.528-7.934,0.474-12.153c-0.053-4.142-3.478-7.464-7.595-7.404
	c-4.142,0.053-7.457,3.453-7.404,7.595c0.285,22.298-5.921,38.773-18.441,48.964c-6.706,5.452-17.981,13.119-22.385,16.075
	c-9.234,0.153-39.482,1.625-51.999,14.131c-17.052,17.051-20.432,44.495-8.821,71.625c0.714,1.667,0.718,3.613,0.018,5.326
	c-9.825,23.899-41.762,42.987-68.231,49.49c-33.22,8.162-66.33,1.502-94.184-18.721l43.321-35.171
	c1.649-1.339,2.653-3.314,2.763-5.435c0.11-2.122-0.685-4.189-2.187-5.691l-28.153-28.148c-1.502-1.501-3.572-2.304-5.691-2.186
	c-2.121,0.109-4.095,1.113-5.434,2.762L37.115,444.31c-40.349-55.244-18.22-116.374,7.752-145.079
	c2.779-3.071,2.542-7.814-0.53-10.593c-3.071-2.778-7.814-2.541-10.593,0.53C15.369,309.475,3.281,337.392,0.577,365.76
	c-2.193,23.01,0.872,56.951,26.797,90.544l-17.01,20.944c-5.48,6.747-4.853,16.594,1.458,22.904
	c3.434,3.434,7.914,5.184,12.373,5.184c3.735,0,7.456-1.229,10.532-3.726l20.94-17c23.439,18.059,50.413,27.391,78.419,27.39
	c10.354,0,20.853-1.276,31.36-3.858c18.003-4.423,35.097-12.491,49.435-23.332c13.749-10.395,24.08-22.833,29.096-35.034
	c2.216-5.418,2.177-11.586-0.107-16.919c-9.147-21.372-6.986-42.492,5.636-55.113c7.25-7.244,30.598-9.803,43.641-9.755
	c1.516,0.022,2.943-0.422,4.183-1.242c0.666-0.44,16.413-10.859,25.421-18.182c2.614-2.128,4.993-4.463,7.183-6.963l61.58,61.569
	l0.098,0.099c0.001,0.001,0.002,0.002,0.003,0.003l0.509,0.517c1.468,1.49,3.405,2.237,5.344,2.237c1.9,0,3.802-0.718,5.263-2.157
	c1.826-1.799,2.533-4.302,2.12-6.65l0.622-2.188c4.815-16.986-2.605-38.492-18.903-54.789L346.252,299.926z M25.272,489.965
	c-0.749,0.609-2,0.425-2.845-0.42c-0.844-0.844-1.028-2.091-0.42-2.841l0,0c0.022-0.028-0.022,0.028,0,0l56.695-69.807
	l16.388,16.385L25.272,489.965C25.233,489.996,25.311,489.934,25.272,489.965L25.272,489.965z M342.88,317.768l33.084,33.083
	c9.496,9.496,15.25,21.235,15.889,31.456l-53.4-53.398C340.207,325.428,341.683,321.714,342.88,317.768z"/>
<path d="M149.05,306.35c0,4.17-3.38,7.55-7.55,7.55c-1.68,0-3.23-0.55-4.49-1.49c-0.64-0.2-2.3-0.53-4.83,0.24
	c-3.72,1.13-9.76,4.71-17.4,15.34c-12.7,17.68-25.79,21.66-34.99,21.66c-0.51,0-1-0.02-1.49-0.04
	c-11.13-0.52-19.72-6.75-22.98-12.33c-2.09-3.57-0.89-8.17,2.68-10.26s8.17-0.89,10.26,2.68c0.69,1.17,4.66,4.64,10.74,4.93
	c7.94,0.38,16.1-4.95,23.6-15.39c8.93-12.44,18.3-19.71,27.82-21.6c8.17-1.63,13.49,1.33,14.54,1.99c0.01,0.01,0.02,0.01,0.03,0.02
	C147.4,300.91,149.05,303.43,149.05,306.35z"/>
<path d="M192.77,409.39c-10.43,7.49-15.76,15.64-15.39,23.57c0.29,6.09,3.77,10.05,4.93,10.74c3.58,2.09,4.78,6.68,2.69,10.26
	c-1.4,2.38-3.91,3.71-6.48,3.71c-1.29,0-2.59-0.33-3.78-1.03c-5.58-3.26-11.82-11.84-12.34-22.98c-0.43-9.24,2.97-23.07,21.63-36.46
	c10.64-7.63,14.22-13.67,15.35-17.38c0.86-2.84,0.34-4.57,0.17-5.02c0,0.01,0.01,0.02,0.03,0.03c-0.02-0.03-0.04-0.06-0.06-0.1
	c0.01,0.02,0.02,0.04,0.03,0.07c-0.92-1.25-1.46-2.78-1.46-4.45c0-4.18,3.38-7.56,7.56-7.56c3.14,0,5.84,1.92,6.97,4.65
	C214.27,370.48,222.11,388.34,192.77,409.39z"/>
<path d="M199.58,374.83c-0.02-0.01-0.03-0.02-0.03-0.03c-0.01-0.03-0.02-0.05-0.03-0.07C199.54,374.77,199.56,374.8,199.58,374.83z"
	/>
<path d="M138.058,334.518c-2.929-2.929-7.678-2.929-10.607,0.001c-2.929,2.929-2.928,7.678,0.001,10.606l39.415,39.407
	c1.464,1.464,3.383,2.196,5.303,2.196c1.919,0,3.839-0.732,5.304-2.197c2.929-2.929,2.928-7.678-0.001-10.606L138.058,334.518z"/>
<path d="M512,49.486c0-1.989-0.791-3.897-2.197-5.304L467.808,2.197c-2.929-2.929-7.677-2.929-10.606,0l-11.558,11.556l-8.864-8.857
	c-2.93-2.928-7.679-2.927-10.607,0.004c-2.928,2.93-2.926,7.679,0.004,10.606l8.859,8.853l-7.865,7.863
	c-1.407,1.407-2.197,3.314-2.197,5.304c0,0.47,0.048,0.935,0.134,1.391l-0.678,0.599l-11.138-11.138
	c-2.929-2.929-7.678-2.929-10.607,0s-2.929,7.678,0,10.606l10.487,10.486l-13.671,12.087l-9.69-9.69
	c-2.929-2.929-7.678-2.929-10.607,0s-2.929,7.678,0,10.606l9.038,9.038l-6.934,6.131c-3.215,2.843-5.127,6.673-5.244,10.507
	c-0.094,3.075,0.993,5.907,3.062,7.976l2.105,2.104l-20.742,20.738c-2.929,2.929-2.93,7.677-0.001,10.606
	c1.464,1.465,3.384,2.197,5.304,2.197c0.224,0,0.448-0.012,0.671-0.032l12.571,12.57l-19.897,19.89L347.8,152.862l0.675-0.675
	c2.929-2.929,2.93-7.677,0.001-10.606c-2.928-2.929-7.677-2.93-10.607-0.001l-39.809,39.8c-16.561-6.295-39.611-13.47-62.85-15.54
	c-8.276-0.737-16.005-0.777-23.18-0.13l-92.485-92.483c-2.929-2.929-7.678-2.929-10.607,0s-2.929,7.678,0,10.606l19.718,19.717
	l-7.779,7.779l-4.012-4.012c-2.929-2.929-7.678-2.929-10.607,0s-2.929,7.678,0,10.606l0,0l0,0l64.118,64.116
	c0.001,0.001-0.001-0.001,0,0l0,0c-2.497,2.191-4.819,4.588-6.95,7.205c-7.333,9.007-17.744,24.757-18.184,25.423
	c-0.818,1.24-1.25,2.695-1.24,4.18c0,0.087,0.041,8.777-1.335,18.851c-2.25,16.478-6.242,22.597-8.419,24.776
	c-12.625,12.625-33.745,14.785-55.132,5.631c-5.353-2.276-11.52-2.307-16.982-0.058l-0.343,0.143
	c-3.816,1.612-5.602,6.011-3.99,9.827c1.611,3.815,6.011,5.604,9.827,3.99l0.277-0.115c1.711-0.704,3.657-0.698,5.324,0.01
	c10.691,4.576,21.43,6.823,31.564,6.823c15.58-0.001,29.731-5.314,40.064-15.646c12.505-12.515,13.977-42.758,14.129-51.987
	c2.951-4.4,10.609-15.668,16.072-22.379c8.603-10.569,20.922-15.799,34.646-17.665c0.376-0.021,0.749-0.066,1.119-0.144
	c25.43-3.105,55.421,5.044,75.546,12.162l-91.69,91.668c-1.407,1.407-2.197,3.314-2.197,5.304s0.791,3.897,2.198,5.304l21.94,21.93
	c1.464,1.463,3.383,2.195,5.302,2.195s3.838-0.732,5.302-2.196l75.907-75.882c0.103-0.092,0.209-0.18,0.309-0.279
	c0.099-0.099,0.185-0.204,0.277-0.307l15.199-15.194c3.21,9.073,6.639,20.176,9.132,31.942c0.748,3.528,3.861,5.947,7.33,5.947
	c0.515,0,1.038-0.053,1.562-0.165c4.052-0.858,6.641-4.839,5.782-8.892c-3.303-15.59-8.129-30.016-12.116-40.519l0,0
	c0.069-0.064,0.002,0.003,0.069-0.064s-0.064,0.069,0,0l0,0c0.036-0.035-0.036,0.036,0,0c0.035-0.035-0.104,0.1-0.069,0.064
	l83.178-83.15c0.004-0.004,0,0,0.004-0.004s-0.008,0.008-0.004,0.004l0.004-0.004l2.082,2.081c1.987,1.988,4.679,3.07,7.615,3.07
	c0.129,0,0.259-0.002,0.39-0.006c3.848-0.125,7.685-2.052,10.526-5.288l6.052-6.893l9.058,9.058
	c1.464,1.465,3.384,2.197,5.303,2.197s3.839-0.732,5.303-2.197c2.929-2.929,2.929-7.677,0-10.606l-9.748-9.748l12.047-13.721
	l10.585,10.585c1.464,1.464,3.384,2.197,5.303,2.197s3.839-0.732,5.303-2.197c2.929-2.929,2.929-7.678,0-10.606L472.333,87.42
	l0.52-0.592c0.531,0.116,1.07,0.181,1.611,0.181c1.919,0,3.838-0.732,5.303-2.196l7.864-7.862l8.86,8.86
	c1.464,1.464,3.384,2.197,5.303,2.197s3.839-0.732,5.303-2.197c2.929-2.929,2.929-7.678,0-10.606l-8.859-8.859l11.559-11.557
	C511.209,53.383,512,51.475,512,49.486z M139.263,114.157l17.538,17.537l-7.698,7.859l-17.619-17.618L139.263,114.157z
	 M159.71,150.16l7.698-7.859l26.782,26.782c-3.942,1.196-7.652,2.673-11.13,4.428L159.71,150.16z M348.528,174.803l-19.897,19.89
	l-11.334-11.334l19.896-19.891L348.528,174.803z M316.539,206.78l-18.414,18.408l-11.333-11.332l18.426-18.422
	c0.016-0.016,0.033-0.032,0.049-0.049l1.421-1.421l11.334,11.334l-1.412,1.412C316.586,206.733,316.563,206.757,316.539,206.78z
	 M221.924,301.364l-11.331-11.326l65.592-65.577l11.332,11.332L221.924,301.364z M389.641,133.703l-11.338-11.337l13.537-13.534
	l11.341,11.335L389.641,133.703z M392.227,88.01l42.527-37.601c0.013-0.011-0.013,0.011,0,0l0,0l26.691,26.685l-37.455,42.66
	L392.227,88.01z M474.469,68.906l-31.387-31.381l0,0c0.023-0.022,0,0,0.023-0.022c0.022-0.022,0,0,0.022-0.022l19.378-19.375l0,0
	c0.024,0.024-0.024-0.024,0,0l31.387,31.381c0.009,0.009-0.009-0.008,0,0l0,0L474.469,68.906z"/>
<g>
</g>
<g>
</g>
<g>
</g>
<g>
</g>
<g>
</g>
<g>
</g>
<g>
</g>
<g>
</g>
<g>
</g>
<g>
</g>
<g>
</g>
<g>
</g>
<g>
</g>
<g>
</g>
<g>
</g>
</svg>
