<?xml version="1.0" encoding="iso-8859-1"?>
<!-- Generator: Adobe Illustrator 19.0.0, SVG Export Plug-In . SVG Version: 6.00 Build 0)  -->
<svg version="1.1" id="Capa_1" xmlns="http://www.w3.org/2000/svg" xmlns:xlink="http://www.w3.org/1999/xlink" x="0px" y="0px"
	 viewBox="0 0 512 512" style="enable-background:new 0 0 512 512;" xml:space="preserve">
<polygon style="fill:#FF803C;" points="283.328,281.177 248.842,246.863 406.396,90.096 440.882,124.41 "/>
<polygon style="fill:#F76328;" points="283.328,281.177 262.637,260.589 420.191,103.822 440.882,124.41 "/>
<polygon style="fill:#FF803C;" points="248.842,246.863 214.356,212.549 301.57,125.771 336.056,160.085 "/>
<polygon style="fill:#F76328;" points="248.842,246.863 228.15,226.275 315.365,139.496 336.056,160.085 "/>
<polygon style="fill:#E8E6E1;" points="259.878,304.511 190.905,235.883 214.356,212.549 283.328,281.177 "/>
<polygon style="fill:#FFBF7B;" points="259.878,304.511 239.186,283.923 262.637,260.589 283.328,281.177 "/>
<polygon style="fill:#E8E6E1;" points="76.472,487.001 7.5,418.373 30.951,395.039 99.923,463.667 "/>
<polygon style="fill:#FFBF7B;" points="76.472,487.001 55.781,466.412 79.231,443.079 99.923,463.667 "/>
<polygon style="fill:#FF803C;" points="99.923,463.667 30.951,395.039 190.905,235.883 259.878,304.511 "/>
<polygon style="fill:#F76328;" points="99.923,463.667 79.231,443.079 239.186,283.923 259.878,304.511 "/>
<path style="fill:#E8E6E1;" d="M504.5,73.653c0,0-4.576,7.074-5.575,6.978c-9.977-1.002-24.221,5.725-38.823,15.189l-14.03-13.917
	l-11.887-11.806c9.541-14.515,16.076-28.904,14.311-39.535c-0.174-1.022,7-5.561,7-5.561l30.29,30.07L504.5,73.653z"/>
<path style="fill:#FFBF7B;" d="M504.5,73.653c0,0-4.576,7.074-5.575,6.978c-9.977-1.002-24.221,5.725-38.823,15.189l-14.03-13.917
	c6.622-5.59,22.65-18.428,39.715-26.832L504.5,73.653z"/>
<polygon style="fill:#735458;" points="442.105,125.56 404.905,88.629 435.341,58.413 472.541,95.344 "/>
<polygon style="fill:#5C4346;" points="442.114,125.569 421.893,105.516 452.321,75.291 472.541,95.344 "/>
<path d="M509.784,68.329l-49-48.65c-2.482-2.465-6.336-2.887-9.293-1.017c-6.879,4.35-11.318,7.613-10.398,13.134
	c0.571,3.416,0.077,9.367-4.594,19.214c-2.277-0.354-4.684,0.333-6.442,2.081L399.62,83.306c-1.377,1.367-2.162,3.213-2.207,5.149
	l-61.356,61.049l-9.506-9.458l3.706-8.044c7.923-16.526,7.166-35.8-2.028-51.57l-31.13-53.36c-2.089-3.578-6.679-4.787-10.258-2.699
	c-3.578,2.088-4.786,6.68-2.699,10.258l31.129,53.358c6.693,11.48,7.231,25.526,1.439,37.572c-0.018,0.037-0.035,0.074-0.052,0.112
	l-1.431,3.106l-8.367-8.325c-2.926-2.912-7.654-2.912-10.58,0l-29.768,29.619c-2.937,2.922-2.948,7.67-0.026,10.606
	c2.922,2.935,7.671,2.947,10.606,0.026l24.478-24.355l23.853,23.734l-76.621,76.159l0.039,0.039l-0.039-0.039l-23.813-23.694
	l29.452-29.306c2.937-2.922,2.948-7.67,0.026-10.606c-2.923-2.936-7.672-2.948-10.606-0.026l0,0l0,0L2.21,413.056l0,0
	C0.795,414.463,0,416.377,0,418.372c0,1.996,0.795,3.909,2.21,5.316l68.973,68.628c1.463,1.456,3.377,2.184,5.29,2.184
	s3.827-0.728,5.29-2.184l47.821-47.583l0,0c2.937-2.921,2.948-7.67,0.026-10.606c-2.923-2.936-7.672-2.949-10.606-0.026
	l-19.081,18.985l-10.354-10.302l-47.985-47.746l149.322-148.576l0,0l58.34,58.048L141.682,411.536
	c-2.937,2.922-2.948,7.67-0.026,10.606c2.921,2.936,7.67,2.948,10.606,0.026l256.254-254.974l0,0l0,0
	c2.937-2.922,2.948-7.67,0.026-10.606c-2.923-2.936-7.672-2.948-10.606-0.026L283.328,270.597l-23.853-23.734l-0.001,0.001
	c0.001-0.001,0,0,0.001-0.001l146.921-146.185l0,0l23.854,23.732l-9.63,9.582c-2.937,2.922-2.948,7.67-0.026,10.606
	s7.671,2.947,10.606,0.026l11.662-11.604c1.652-0.167,3.259-0.877,4.527-2.138l30.437-30.217c1.418-1.408,2.216-3.324,2.216-5.322
	c0-0.734-0.11-1.456-0.316-2.146c9.608-4.649,15.258-5.426,18.452-5.104c5.204,0.517,8.235-3.575,12.624-10.375
	C512.723,74.742,512.299,70.826,509.784,68.329z M214.356,223.129l58.339,58.048l0,0l-12.817,12.753l-58.339-58.048L214.356,223.129
	z M76.473,476.42l-58.34-58.048l12.817-12.754l0,0l58.34,58.048L76.473,476.42z M442.104,114.992l-26.552-26.366l0,0l19.789-19.645
	l26.555,26.362L442.104,114.992z M469.373,81.63l-20.99-20.838c4.822-9.31,7.424-17.416,7.843-24.502l37.195,36.93
	C486.625,73.939,478.671,76.727,469.373,81.63z"/>
<g>
</g>
<g>
</g>
<g>
</g>
<g>
</g>
<g>
</g>
<g>
</g>
<g>
</g>
<g>
</g>
<g>
</g>
<g>
</g>
<g>
</g>
<g>
</g>
<g>
</g>
<g>
</g>
<g>
</g>
</svg>
