<?xml version="1.0" encoding="iso-8859-1"?>
<!-- Generator: Adobe Illustrator 19.0.0, SVG Export Plug-In . SVG Version: 6.00 Build 0)  -->
<svg version="1.1" id="Capa_1" xmlns="http://www.w3.org/2000/svg" xmlns:xlink="http://www.w3.org/1999/xlink" x="0px" y="0px"
	 viewBox="0 0 512 512" style="enable-background:new 0 0 512 512;" xml:space="preserve">
<rect x="183" y="415" style="fill:#A66856;" width="146" height="59.5"/>
<rect x="299" y="415" style="fill:#8F5040;" width="30" height="59.5"/>
<rect x="172" y="44.591" style="fill:#FFA440;" width="168" height="30"/>
<path style="fill:#FFCE55;" d="M448.811,361.095C421.26,402.393,340.747,434.691,256,435.5
	c-84.748-0.809-165.26-33.107-192.811-74.405c-34.795-52.158,13.151-140.249,41.003-186.693
	c29.211-48.741,42.218-83.196,48.002-104.505c-17.308-1.868-30.716-15.065-30.716-31.079c0-17.303,15.637-31.319,34.94-31.319
	c19.292,0,34.94,14.016,34.94,31.319c0,16.913-8.615,67.852-57.721,149.769c-34.048,56.803-40.858,103.606-19.693,135.344
	c21.22,31.808,70.315,48.831,142.056,49.33c71.741-0.5,120.835-17.522,142.056-49.33c21.165-31.738,14.355-78.541-19.693-135.344
	c-49.105-81.918-57.721-132.857-57.721-149.769c0-17.303,15.648-31.319,34.94-31.319c19.303,0,34.94,14.016,34.94,31.319
	c0,16.014-13.408,29.21-30.716,31.079c5.784,21.309,18.791,55.764,48.002,104.505C435.659,220.846,483.606,308.937,448.811,361.095z
	"/>
<g>
	<path style="fill:#FFBC38;" d="M162.781,23.068c0,15.645-7.377,60.41-47.352,131.875c-3.453,6.216-7.184,12.695-11.238,19.458
		c-0.84,1.401-1.699,2.841-2.572,4.315C70.58,232.87,64.937,277.545,85.366,308.181c9.691,14.526,25.212,25.958,46.032,34.151
		c-7.063-5.444-12.904-11.58-17.455-18.401c-21.165-31.738-14.355-78.542,19.693-135.344
		c49.105-81.917,57.721-132.856,57.721-149.77c0-16.773-14.704-30.456-33.178-31.278C161.102,12.117,162.781,17.415,162.781,23.068z
		"/>
	<path style="fill:#FFBC38;" d="M407.808,174.402c-29.211-48.741-42.218-83.196-48.002-104.504
		c17.308-1.869,30.716-15.065,30.716-31.079c0-16.772-14.693-30.456-33.176-31.278c2.921,4.577,4.599,9.875,4.599,15.528
		c0,13.211-0.715,26.15-10.684,31.323c-4.947,2.567-7.75,8.009-7.304,13.564c1.798,22.429,10.4,49.192,35.274,90.696
		c27.852,46.444,75.798,134.536,41.003,186.693c-27.551,41.298-108.063,73.596-192.811,74.405
		c-48.278-0.461-95.176-11.144-131.697-27.885c38.381,25.549,98.19,43.042,160.274,43.635
		c84.747-0.809,165.26-33.107,192.811-74.405C483.606,308.938,435.659,220.846,407.808,174.402z"/>
</g>
<path style="fill:#8F5040;" d="M351,504.5H161c-8.284,0-15-6.716-15-15l0,0c0-8.284,6.716-15,15-15h190c8.284,0,15,6.716,15,15l0,0
	C366,497.784,359.284,504.5,351,504.5z"/>
<path style="fill:#75360D;" d="M351,474.5h-29.827c8.284,0,15,6.716,15,15s-6.716,15-15,15H351c8.284,0,15-6.716,15-15
	S359.284,474.5,351,474.5z"/>
<path d="M383.864,401.134c-17.237,7.831-36.26,14.058-56.211,18.555c-0.162,0.029-0.32,0.067-0.478,0.106
	c-22.921,5.13-47.058,7.969-71.175,8.205c-39.717-0.389-80.607-8.025-115.142-21.506c-33.471-13.064-58.848-30.666-71.455-49.562
	c-13.811-20.7-14.516-50.65-2.095-89.017c11.014-34.021,29.985-67.462,43.298-89.658c3.068-5.12,6.058-10.251,8.887-15.251
	c2.04-3.605,0.771-8.182-2.834-10.221c-3.606-2.039-8.182-0.772-10.223,2.834c-2.768,4.893-5.695,9.914-8.698,14.925
	c-13.689,22.824-33.216,57.271-44.703,92.751c-13.905,42.949-12.597,77.254,3.888,101.961
	c20.013,29.995,64.952,54.682,118.566,67.722V467h-14.502c-12.408,0-22.503,10.094-22.503,22.5s10.095,22.5,22.503,22.5h190.026
	c12.408,0,22.503-10.094,22.503-22.5S363.421,467,351.013,467h-14.502v-33.982c18.938-4.603,37.019-10.714,53.559-18.228
	c3.771-1.713,5.44-6.159,3.726-9.931C392.082,401.089,387.637,399.422,383.864,401.134z M321.509,467h-82.964
	c-4.143,0-7.501,3.357-7.501,7.5s3.358,7.5,7.501,7.5h112.468c4.136,0,7.501,3.364,7.501,7.5s-3.365,7.5-7.501,7.5H160.987
	c-4.136,0-7.501-3.364-7.501-7.5s3.365-7.5,7.501-7.5h45.554c4.143,0,7.501-3.357,7.501-7.5s-3.358-7.5-7.501-7.5h-16.05v-30.723
	c21.065,4.148,43.179,6.51,65.437,6.723c0.024,0,0.048,0,0.072,0c0.024,0,0.048,0,0.072,0c22.063-0.211,44.163-2.523,65.437-6.698
	L321.509,467L321.509,467z"/>
<path d="M458.965,263.296c-11.487-35.48-31.014-69.927-44.702-92.749c-25.776-43.004-38.601-74.494-44.975-94.98
	c16.877-5.237,28.754-19.848,28.754-36.748C398.041,17.414,379,0,355.595,0c-22.771,0-41.405,16.485-42.398,37.09H198.803
	C197.81,16.485,179.176,0,156.405,0C133,0,113.959,17.414,113.959,38.818c0,16.901,11.879,31.513,28.758,36.749
	c-4.874,15.707-12.076,33.22-21.468,52.185c-1.838,3.712-0.319,8.211,3.394,10.049c3.713,1.84,8.212,0.319,10.051-3.393
	c11.375-22.969,19.694-44.013,24.726-62.546c0.575-2.118,0.193-4.382-1.045-6.194c-1.238-1.813-3.207-2.991-5.39-3.228
	c-13.696-1.478-24.024-11.633-24.024-23.622c0-13.134,12.311-23.818,27.444-23.818c15.132,0,27.444,10.685,27.444,23.818
	c0,5.262-1.59,54.056-56.661,145.914c-35.649,59.465-42.393,109.038-19.503,143.361c15.699,23.529,45.168,39.492,86.537,47.248
	c0.498,0.146,1.017,0.24,1.552,0.28c9.243,1.675,19.069,2.946,29.462,3.805c0.181,0.022,0.365,0.035,0.55,0.044
	c9.586,0.777,19.633,1.218,30.161,1.292c0.035,0,0.069,0,0.104,0c10.527-0.073,20.575-0.514,30.161-1.292
	c0.185-0.009,0.369-0.022,0.55-0.044c10.393-0.859,20.219-2.13,29.462-3.805c0.535-0.04,1.055-0.133,1.553-0.28
	c41.37-7.756,70.838-23.719,86.538-47.249c22.89-34.322,16.147-83.896-19.503-143.361C329.741,92.874,328.151,44.08,328.151,38.818
	c0-13.134,12.311-23.818,27.444-23.818c15.132,0,27.444,10.685,27.444,23.818c0,11.989-10.328,22.145-24.024,23.622
	c-2.182,0.236-4.152,1.415-5.39,3.228c-1.237,1.813-1.619,4.076-1.045,6.194c5.651,20.813,18.706,56.165,48.815,106.397
	c13.311,22.194,32.282,55.635,43.296,89.656c12.421,38.366,11.716,68.316-2.095,89.017c-6.906,10.351-17.548,20.265-31.631,29.466
	c-3.468,2.266-4.443,6.914-2.176,10.381c1.439,2.202,3.838,3.398,6.286,3.398c1.407,0,2.831-0.396,4.096-1.223
	c15.788-10.315,27.868-21.653,35.905-33.698C471.561,340.55,472.869,306.245,458.965,263.296z M317.043,67.09H194.957
	c1.333-5.867,2.216-10.867,2.798-15h116.491C314.827,56.223,315.71,61.223,317.043,67.09z M218.665,82.09v281.691
	c-5.107-0.537-10.048-1.181-14.822-1.932V82.09H218.665z M233.667,82.09h14.832v283.551c-5.073-0.122-10.013-0.334-14.832-0.629
	V82.09z M263.501,82.09h14.832v282.922c-4.819,0.294-9.759,0.507-14.832,0.629V82.09z M293.335,82.09h14.822v279.759
	c-4.773,0.751-9.715,1.395-14.822,1.932V82.09z M120.166,319.771c-19.446-29.157-12.568-73.186,19.889-127.326
	c26.159-43.633,40.708-78.012,48.786-103.206v269.774C155.957,351.675,132.632,338.455,120.166,319.771z M391.835,319.77
	c-12.467,18.685-35.792,31.906-68.676,39.243V89.239c8.079,25.193,22.628,59.572,48.786,103.205
	C404.402,246.585,411.28,290.613,391.835,319.77z"/>
<g>
</g>
<g>
</g>
<g>
</g>
<g>
</g>
<g>
</g>
<g>
</g>
<g>
</g>
<g>
</g>
<g>
</g>
<g>
</g>
<g>
</g>
<g>
</g>
<g>
</g>
<g>
</g>
<g>
</g>
</svg>
