<?xml version="1.0" encoding="iso-8859-1"?>
<!-- Generator: Adobe Illustrator 19.0.0, SVG Export Plug-In . SVG Version: 6.00 Build 0)  -->
<svg version="1.1" id="Capa_1" xmlns="http://www.w3.org/2000/svg" xmlns:xlink="http://www.w3.org/1999/xlink" x="0px" y="0px"
	 viewBox="0 0 511.999 511.999" style="enable-background:new 0 0 511.999 511.999;" xml:space="preserve">
<path style="fill:#FFCE55;" d="M74.721,122.127c-13.946,47.68-9.273,94.856,9.292,128.142
	c12.387,22.209,16.863,49.403,12.071,76.474c-4.737,26.763-13.195,61.536-28.112,104.473c-1.23,3.544-2.504,7.14-3.82,10.788
	c-8.073,27.601,0.3,41.438,14.406,45.584s28.606-2.966,36.68-30.566c0.857-3.782,1.723-7.498,2.596-11.147
	c10.574-44.214,22.188-78.06,32.617-103.149c10.55-25.379,28.966-45.843,51.355-57.828c33.556-17.963,62.901-55.138,76.848-102.818
	c22.848-78.112-4.287-154.855-60.597-171.409S97.568,44.015,74.721,122.127z"/>
<path style="fill:#FFBC38;" d="M218.056,10.67c-12.239-3.598-24.85-4.053-37.327-1.766c2.454,0.47,4.898,1.052,7.327,1.766
	c56.311,16.554,83.445,93.297,60.597,171.409c-13.946,47.68-43.292,84.855-76.847,102.818
	c-22.389,11.985-40.805,32.449-51.355,57.828c-10.429,25.089-22.043,58.935-32.617,103.149c-0.874,3.649-1.739,7.365-2.596,11.147
	c-3.817,13.049-9.072,21.513-15.041,26.379c2.434,1.893,5.259,3.276,8.362,4.188c14.105,4.147,28.606-2.966,36.679-30.566
	c0.857-3.782,1.722-7.498,2.596-11.147c10.574-44.214,22.188-78.06,32.617-103.149c10.55-25.379,28.966-45.843,51.355-57.828
	c33.555-17.963,62.901-55.138,76.847-102.818C301.501,103.967,274.367,27.224,218.056,10.67z"/>
<path style="fill:#595959;" d="M74.719,122.128c-2.798,9.567-4.85,19.104-6.18,28.519l199.953,58.782
	c3.953-8.644,7.363-17.781,10.162-27.348c2.972-10.162,5.099-20.312,6.411-30.306L85.648,93.15
	C81.369,102.272,77.691,111.966,74.719,122.128z"/>
<path style="fill:#FF803C;" d="M397.861,324.434c-35.046,35.134-78.58,53.647-116.617,53.277
	c-25.38-0.247-51.329,8.856-72.726,26.055c-21.153,17.002-47.534,41.118-77.963,74.832c-2.512,2.782-5.049,5.627-7.61,8.534
	c-20.287,20.338-36.414,19.608-46.808,9.188s-11.123-26.588,9.164-46.927c2.9-2.568,5.737-5.111,8.512-7.63
	c33.629-30.506,57.684-56.954,74.643-78.161c17.155-21.452,26.235-47.466,25.989-72.91c-0.369-38.134,18.097-81.778,53.143-116.913
	c57.414-57.559,137.599-70.491,179.093-28.892S455.274,266.874,397.861,324.434z"/>
<path style="fill:#F76328;" d="M426.68,145.904c-3.844-3.854-8.022-7.237-12.481-10.163c28.74,43.772,13.327,114.912-38.838,167.209
	c-35.046,35.134-78.579,53.647-116.617,53.277c-25.38-0.247-51.329,8.856-72.726,26.055c-21.153,17.002-47.534,41.118-77.963,74.832
	c-2.512,2.782-5.049,5.627-7.611,8.534c-12.053,12.083-22.637,16.729-31.423,16.325c0.291,5.991,2.911,11.147,7.115,15.362
	c10.394,10.42,26.521,11.151,46.808-9.188c2.562-2.907,5.098-5.751,7.611-8.534c30.429-33.714,56.81-57.83,77.963-74.832
	c21.397-17.198,47.346-26.302,72.726-26.055c38.038,0.37,81.572-18.143,116.617-53.277
	C455.274,267.892,468.174,187.504,426.68,145.904z"/>
<path style="fill:#FFDEA9;" d="M417.979,301.939c-5.93,8.14-12.65,16.03-20.12,23.51c-7.03,7.05-14.39,13.43-22,19.12l-22.46-22.52
	l-124.88-125.2c5.67-7.62,12.03-15,19.07-22.05c7.46-7.49,15.33-14.23,23.45-20.18l124.47,124.8L417.979,301.939z"/>
<path style="fill:#FFBF7B;" d="M417.979,301.939c-5.93,8.14-12.65,16.03-20.12,23.51c-7.03,7.05-14.39,13.43-22,19.12l-22.46-22.52
	c7.58-5.69,14.94-12.06,21.96-19.1c7.48-7.5,14.21-15.39,20.15-23.53L417.979,301.939z"/>
<path d="M431.984,140.624c-17.347-17.391-41.181-26.583-68.923-26.583c-22.515,0-46.286,6.271-68.885,17.67
	c1.645-62.866-27.646-114.577-74.008-128.216c-23.503-6.907-48.779-3.537-73.088,9.748c-27.875,15.234-51.987,42.598-67.866,76.068
	c-0.129,0.216-0.251,0.438-0.36,0.67c-3.172,6.757-5.999,13.794-8.461,21.002c-0.052,0.151-0.104,0.301-0.156,0.452
	c-0.413,1.218-0.815,2.442-1.206,3.67c-0.072,0.225-0.147,0.449-0.218,0.675c-0.446,1.415-0.881,2.835-1.298,4.261
	c-0.448,1.529-0.871,3.064-1.284,4.6c-0.085,0.317-0.167,0.633-0.251,0.95c-0.365,1.385-0.716,2.771-1.053,4.16
	c-0.034,0.141-0.07,0.282-0.104,0.423c-1.555,6.476-2.804,12.982-3.717,19.443c-0.017,0.12-0.023,0.239-0.034,0.359
	c-2.36,16.871-2.588,33.706-0.616,49.767c0.467,3.801,3.7,6.587,7.435,6.587c0.305,0,0.613-0.019,0.924-0.057
	c4.111-0.505,7.035-4.247,6.53-8.358c-1.491-12.141-1.602-24.781-0.389-37.544l140.995,41.444
	c-17.415,26.45-27.689,55.673-28.888,83.37c-18.918,13.167-34.3,32.435-43.546,54.675c-8.408,20.235-16.232,42.866-23.269,67.285
	c-9.854,9.952-20.357,19.994-31.483,30.086c-2.759,2.503-5.6,5.05-8.444,7.568c-0.116,0.103-0.229,0.209-0.339,0.319
	c-4.709,4.721-8.53,9.41-11.452,14.044c0.221-4.093,1.051-8.98,2.747-14.83c1.196-3.305,2.431-6.791,3.771-10.646
	c13.147-37.835,22.708-73.374,28.421-105.63c5.048-28.531,0.462-57.449-12.915-81.425c-3.277-5.879-6.124-12.29-8.461-19.057
	c-1.352-3.915-5.62-5.993-9.537-4.641c-3.915,1.352-5.993,5.622-4.641,9.537c2.623,7.598,5.832,14.82,9.538,21.467
	c11.7,20.971,15.693,46.366,11.245,71.506c-5.574,31.473-14.934,66.235-27.82,103.322c-1.348,3.881-2.586,7.376-3.785,10.685
	c-0.055,0.149-0.104,0.299-0.147,0.451c-7.256,24.818-1.82,38.566,4.964,46.019c1.049,6.169,4.047,11.842,8.91,16.717
	c6.11,6.123,13.631,9.362,21.746,9.362c11.397,0,23.401-6.242,35.681-18.553c0.109-0.109,0.216-0.222,0.317-0.338
	c2.544-2.887,5.084-5.735,7.551-8.466c26.277-29.113,52.216-54.013,77.094-74.009c19.867-15.967,43.994-24.629,67.955-24.4
	c0.396,0.004,0.786,0.006,1.183,0.006c32.346,0,67.207-12.864,97.528-35.363c0.157-0.1,0.321-0.183,0.473-0.296
	c5.512-4.121,10.889-8.599,16.069-13.357c0.075-0.069,0.15-0.138,0.226-0.207c0.992-0.914,1.978-1.838,2.955-2.773
	c0.13-0.125,0.262-0.248,0.392-0.373c1.068-1.027,2.128-2.062,3.176-3.112c1.2-1.203,2.378-2.424,3.547-3.653
	c0.278-0.292,0.552-0.586,0.828-0.879c0.93-0.989,1.85-1.987,2.759-2.992c0.255-0.281,0.512-0.561,0.764-0.843
	c1.101-1.23,2.188-2.47,3.256-3.721c0.225-0.263,0.444-0.53,0.667-0.794c0.829-0.981,1.647-1.967,2.455-2.96
	c0.372-0.456,0.741-0.914,1.108-1.373c0.667-0.834,1.324-1.673,1.976-2.515c0.378-0.488,0.761-0.972,1.134-1.462
	c0.806-1.061,1.599-2.126,2.38-3.198c0.005-0.007,0.009-0.013,0.013-0.02c10.933-14.962,19.585-31.055,25.49-47.596
	c1.393-3.901-0.641-8.192-4.542-9.585c-3.899-1.392-8.193,0.641-9.585,4.542c-4.49,12.578-10.734,24.891-18.469,36.589
	L282.673,155.691c25.669-17.022,54.059-26.651,80.388-26.651c23.671,0,43.831,7.669,58.304,22.176
	c17.393,17.436,24.922,43.363,21.2,73.005c-0.517,4.11,2.397,7.86,6.507,8.376c4.105,0.521,7.86-2.396,8.376-6.507
	C461.759,191.758,452.716,161.406,431.984,140.624z M154.274,26.404c20.738-11.334,42.063-14.28,61.662-8.519
	c41.871,12.317,67.381,62.428,62.776,122.546c-0.608,0.38-1.216,0.759-1.821,1.147L96.367,88.503
	C110.774,61.18,131.122,39.057,154.274,26.404z M77.331,143.456c0.088-0.472,0.178-0.943,0.27-1.414
	c0.212-1.093,0.432-2.186,0.663-3.278c0.137-0.643,0.281-1.285,0.424-1.928c0.211-0.95,0.423-1.899,0.648-2.847
	c0.209-0.876,0.431-1.75,0.653-2.624c0.187-0.74,0.367-1.481,0.562-2.22c0.417-1.573,0.852-3.144,1.309-4.71
	c0.018-0.061,0.033-0.122,0.051-0.182c0.007-0.024,0.015-0.047,0.021-0.07c0.477-1.628,0.982-3.246,1.499-4.858
	c0.185-0.575,0.375-1.147,0.564-1.72c0.354-1.071,0.72-2.137,1.093-3.199c0.229-0.653,0.454-1.309,0.69-1.958
	c0.504-1.391,1.023-2.773,1.556-4.146c0.372-0.955,0.758-1.901,1.143-2.847c0.211-0.519,0.422-1.038,0.637-1.555
	c0.235-0.563,0.478-1.122,0.718-1.682l171.458,50.409c-4.186,3.284-8.276,6.759-12.246,10.402c-0.078,0.071-0.156,0.142-0.234,0.213
	c-1.022,0.941-2.037,1.892-3.042,2.855c-0.09,0.086-0.182,0.171-0.272,0.257c-1.086,1.043-2.164,2.096-3.229,3.163
	c-1.057,1.06-2.099,2.133-3.132,3.214c-0.121,0.127-0.241,0.256-0.362,0.383c-0.946,0.994-1.88,1.996-2.805,3.006
	c-0.066,0.073-0.133,0.145-0.199,0.218c-3.72,4.073-7.266,8.267-10.603,12.553L76.998,145.336
	C77.108,144.709,77.214,144.082,77.331,143.456z M157.369,345.615c6.545-15.744,16.544-29.772,28.81-40.668
	c-2.417,19.567-10.565,38.711-23.587,54.995c-5.874,7.345-12.184,14.785-18.89,22.296
	C148.045,369.307,152.613,357.06,157.369,345.615z M408.058,302.624c-0.173,0.22-0.346,0.441-0.52,0.66
	c-0.815,1.033-1.645,2.058-2.485,3.078c-0.394,0.477-0.787,0.954-1.186,1.428c-0.781,0.929-1.576,1.85-2.376,2.767
	c-0.439,0.503-0.875,1.009-1.321,1.508c-0.815,0.915-1.647,1.818-2.481,2.72c-0.434,0.469-0.861,0.944-1.301,1.41
	c-1.099,1.165-2.217,2.316-3.346,3.456c-0.167,0.169-0.328,0.342-0.496,0.51c-0.116,0.117-0.236,0.229-0.353,0.346
	c-1.017,1.015-2.045,2.016-3.082,3.007c-0.49,0.468-0.986,0.928-1.48,1.39c-0.653,0.611-1.308,1.217-1.968,1.818
	c-0.631,0.573-1.263,1.145-1.899,1.709c-0.44,0.39-0.884,0.774-1.326,1.16c-1.962,1.707-3.949,3.37-5.961,4.983l-96.576-96.815
	c-2.924-2.933-7.673-2.939-10.607-0.014c-2.933,2.925-2.938,7.673-0.013,10.606l94.993,95.229
	c-26.073,17.672-55.037,27.658-81.913,27.658c-0.35,0-0.702-0.001-1.051-0.005c-27.413-0.306-54.937,9.573-77.498,27.707
	c-25.499,20.494-52.023,45.946-78.831,75.648c-2.455,2.719-4.982,5.552-7.515,8.424c-9.171,9.151-17.778,13.986-24.9,13.986
	c-4.159,0-7.799-1.622-11.127-4.959c-11.132-11.16-1.296-25.798,9.003-36.171c2.831-2.508,5.657-5.041,8.402-7.532
	c11.814-10.716,22.94-21.384,33.36-31.962c0.057-0.057,0.113-0.113,0.168-0.171c15.648-15.894,29.685-31.58,41.933-46.896
	c18.085-22.615,27.898-50.196,27.631-77.664c-0.263-27.236,9.724-56.687,27.572-83.164l17.189,17.231
	c2.924,2.933,7.673,2.939,10.606,0.014c2.933-2.925,2.939-7.674,0.013-10.606l-18.828-18.876c1.613-2.022,3.277-4.019,4.983-5.991
	c0.365-0.421,0.727-0.842,1.096-1.261c0.586-0.665,1.179-1.326,1.776-1.985c0.576-0.635,1.157-1.267,1.742-1.896
	c0.487-0.524,0.972-1.049,1.466-1.568c0.926-0.974,1.863-1.938,2.81-2.895c0.178-0.18,0.351-0.364,0.53-0.543
	c0.117-0.118,0.238-0.231,0.355-0.349c1.085-1.082,2.183-2.147,3.29-3.202c0.466-0.444,0.936-0.882,1.406-1.321
	c0.792-0.74,1.592-1.47,2.394-2.195c0.533-0.48,1.063-0.965,1.6-1.439c1.035-0.914,2.079-1.813,3.129-2.701
	c0.862-0.728,1.731-1.442,2.602-2.153c0.413-0.337,0.825-0.673,1.24-1.006c0.484-0.388,0.971-0.768,1.458-1.15L408.058,302.624z"/>
<g>
</g>
<g>
</g>
<g>
</g>
<g>
</g>
<g>
</g>
<g>
</g>
<g>
</g>
<g>
</g>
<g>
</g>
<g>
</g>
<g>
</g>
<g>
</g>
<g>
</g>
<g>
</g>
<g>
</g>
</svg>
