<?xml version="1.0" encoding="iso-8859-1"?>
<!-- Generator: Adobe Illustrator 19.0.0, SVG Export Plug-In . SVG Version: 6.00 Build 0)  -->
<svg version="1.1" id="Capa_1" xmlns="http://www.w3.org/2000/svg" xmlns:xlink="http://www.w3.org/1999/xlink" x="0px" y="0px"
	 viewBox="0 0 512.003 512.003" style="enable-background:new 0 0 512.003 512.003;" xml:space="preserve">
<path style="fill:#735458;" d="M115.343,438.97c0,0-26.21,25.271-41.37,61.91c-0.09,0.2-0.35,0.5-0.74,0.85
	c-1.94,1.8-4.26,2.73-6.37,2.77c-1.66,0.03-3.18-0.5-4.27-1.59l-53.5-53.5c-2.48-2.48-2.04-7.17,1.18-10.64
	c0.35-0.39,0.65-0.65,0.85-0.74c36.64-15.16,61.91-41.37,61.91-41.37l20.72,20.72L115.343,438.97z"/>
<path style="fill:#5C4346;" d="M115.343,438.97c0,0-26.21,25.271-41.37,61.91c-0.09,0.2-0.35,0.5-0.74,0.85
	c-1.94,1.8-4.26,2.73-6.37,2.77c-1.66,0.03-3.18-0.5-4.27-1.59l-21.58-21.58c2.47,2.47,7.17,2.04,10.64-1.18
	c0.38-0.36,0.65-0.65,0.73-0.86c15.17-36.63,41.37-61.91,41.37-61.91L115.343,438.97z"/>
<rect x="234.179" y="40.502" transform="matrix(-0.7071 -0.7071 0.7071 -0.7071 250.7398 620.2295)" style="fill:#735458;" width="39.29" height="435.366"/>
<rect x="248.478" y="46.416" transform="matrix(-0.7071 -0.7071 0.7071 -0.7071 256.6647 634.5114)" style="fill:#5C4346;" width="22.533" height="435.366"/>
<rect x="395.601" y="64.01" transform="matrix(-0.7071 -0.7071 0.7071 -0.7071 662.5894 449.6232)" style="fill:#FFDEA9;" width="57.627" height="47.15"/>
<g>
	
		<rect x="419.021" y="73.708" transform="matrix(-0.7071 -0.7071 0.7071 -0.7071 672.2917 473.0389)" style="fill:#FFBF7B;" width="30.19" height="47.15"/>
	<polygon style="fill:#FFBF7B;" points="454.977,84.81 427.193,57.026 487.739,7.5 504.503,24.264 	"/>
</g>
<rect x="72.001" y="388.916" transform="matrix(-0.7071 -0.7071 0.7071 -0.7071 -112.3222 770.5956)" style="fill:#FFDEA9;" width="62.866" height="39.29"/>
<rect x="100.731" y="400.818" transform="matrix(-0.7071 -0.7071 0.7071 -0.7071 -100.4219 799.329)" style="fill:#FFBF7B;" width="29.21" height="39.29"/>
<g>
	<circle style="fill:#FFDEA9;" cx="346.733" cy="137.49" r="17.03"/>
	<circle style="fill:#FFDEA9;" cx="301.793" cy="238" r="17.03"/>
	<circle style="fill:#FFDEA9;" cx="249.733" cy="290.05" r="17.03"/>
	<circle style="fill:#FFDEA9;" cx="201.253" cy="338.53" r="17.03"/>
</g>
<path d="M509.807,18.961L493.043,2.197c-2.724-2.724-7.069-2.942-10.053-0.501l-15.997,13.085
	c-3.206,2.622-3.679,7.348-1.056,10.554c2.623,3.207,7.349,3.679,10.554,1.056l10.743-8.787l7.165,7.166l-39.982,48.878
	l-16.062-16.062l13.008-10.64c3.206-2.623,3.679-7.349,1.057-10.555c-2.625-3.207-7.35-3.678-10.555-1.057l-14.17,11.591
	l-1.684-1.684c-2.93-2.928-7.678-2.928-10.608,0l-33.341,33.341c-2.929,2.93-2.929,7.678,0,10.608l1.181,1.181l-25.312,25.312
	c-9.224-4.73-20.834-3.247-28.548,4.466c-7.714,7.714-9.196,19.327-4.465,28.549l-50.916,50.914l-2.541-2.541
	c-2.93-2.928-7.678-2.928-10.608,0c-2.929,2.93-2.929,7.678,0,10.608l2.54,2.54l-41.45,41.448l-2.545-2.544
	c-2.929-2.928-7.677-2.929-10.607,0.001c-2.929,2.929-2.928,7.678,0,10.607l2.544,2.544l-37.875,37.873l-2.543-2.543
	c-2.929-2.928-7.677-2.929-10.607,0.001c-2.929,2.929-2.928,7.678,0,10.607l2.543,2.543l-24.224,24.223
	c-2.929,2.929-2.929,7.678,0,10.607c1.464,1.465,3.384,2.197,5.303,2.197s3.839-0.732,5.303-2.196l24.225-24.224l5.966,5.965
	c-1.766,3.427-2.707,7.247-2.707,11.213s0.941,7.786,2.706,11.212l-48.21,48.219l-17.183-17.183l12.286-12.286
	c2.929-2.93,2.929-7.678,0-10.608c-2.929-2.928-7.678-2.928-10.607,0l-12.287,12.286l-3.029-3.028
	c-2.928-2.928-7.677-2.928-10.607,0l-27.784,27.784c-0.996,0.996-1.674,2.244-1.991,3.593
	c-10.386,9.038-28.707,23.038-51.772,32.583c-0.068,0.027-0.136,0.057-0.203,0.087c-1.185,0.532-2.241,1.335-3.317,2.524
	c-5.907,6.405-6.326,15.62-0.945,21.002l53.502,53.501c2.528,2.527,5.902,3.775,9.434,3.775c3.986,0,8.172-1.589,11.568-4.722
	c1.185-1.073,1.986-2.124,2.518-3.303c0.032-0.072,0.063-0.145,0.094-0.218c9.543-23.062,23.543-41.384,32.582-51.771
	c1.316-0.308,2.567-0.966,3.593-1.991l27.784-27.784c2.929-2.93,2.929-7.678,0-10.608l-3.028-3.028l48.209-48.218
	c3.427,1.767,7.248,2.708,11.215,2.708c6.552,0,12.711-2.552,17.343-7.184c7.714-7.714,9.196-19.326,4.466-28.548l15.466-15.466
	c3.506,1.797,7.353,2.706,11.205,2.706c6.28,0,12.561-2.391,17.342-7.171h0.001c7.713-7.714,9.195-19.326,4.466-28.547
	l19.049-19.042c3.504,1.796,7.35,2.704,11.2,2.704c6.28,0,12.561-2.391,17.343-7.172c7.711-7.712,9.194-19.319,4.468-28.542
	l16.397-16.399c2.929-2.929,2.929-7.678-0.001-10.607c-2.928-2.928-7.677-2.929-10.607,0.001l-16.394,16.395
	c-7.011-3.596-15.397-3.596-22.409-0.002l-5.974-5.974l50.917-50.915c3.505,1.796,7.351,2.705,11.201,2.705
	c3.851,0,7.698-0.908,11.203-2.706l5.975,5.974l-11.738,11.739c-2.929,2.929-2.929,7.678,0.001,10.607
	c1.464,1.464,3.384,2.196,5.303,2.196s3.839-0.732,5.304-2.197l11.737-11.739l2.775,2.774c1.464,1.464,3.384,2.196,5.303,2.196
	s3.839-0.732,5.304-2.197c2.929-2.929,2.929-7.678-0.001-10.607l-2.774-2.774l36.514-36.517l1.181,1.181
	c1.465,1.464,3.385,2.196,5.304,2.196s3.839-0.732,5.304-2.196l33.341-33.341c2.929-2.93,2.929-7.678,0-10.608l-1.684-1.684
	l45.23-55.294C512.747,26.031,512.531,21.685,509.807,18.961z M67.611,496.645c-0.167,0.108-0.321,0.188-0.453,0.244l-52.044-52.045
	c0.056-0.132,0.135-0.284,0.244-0.451c22.945-9.729,41.367-23.376,52.593-32.907l32.567,32.566
	C90.985,455.279,77.338,473.701,67.611,496.645z M111.765,434.085l-33.848-33.847l17.178-17.177l2.981,2.981
	c0.016,0.017,0.03,0.035,0.046,0.051s0.034,0.03,0.051,0.046l27.699,27.699c0.015,0.015,0.027,0.031,0.041,0.046
	s0.031,0.027,0.046,0.042l2.984,2.984L111.765,434.085z M221.944,272.88l5.964,5.964c-1.767,3.428-2.708,7.249-2.708,11.216
	c0,3.965,0.94,7.785,2.706,11.211l-15.447,15.448c-3.426-1.766-7.246-2.706-11.211-2.706c-3.966,0-7.786,0.941-11.213,2.707
	l-5.965-5.965L221.944,272.88z M207.984,345.275L207.984,345.275c-1.799,1.8-4.192,2.791-6.736,2.791s-4.937-0.991-6.736-2.791
	c-3.714-3.714-3.714-9.758,0-13.473c1.799-1.799,4.191-2.79,6.736-2.79s4.937,0.991,6.736,2.791
	C211.699,335.517,211.699,341.561,207.984,345.275z M256.464,296.796c-3.712,3.712-9.749,3.714-13.463,0.008
	c-0.004-0.003-0.006-0.008-0.01-0.011c-0.003-0.003-0.006-0.005-0.009-0.008c-3.704-3.715-3.701-9.75,0.01-13.461
	c1.799-1.8,4.192-2.791,6.736-2.791s4.937,0.991,6.736,2.791C260.178,287.037,260.178,293.082,256.464,296.796z M301.786,228.48
	c2.439,0,4.879,0.929,6.736,2.785c3.714,3.715,3.715,9.759,0,13.473c-3.713,3.715-9.758,3.715-13.473,0
	c-1.799-1.799-2.79-4.191-2.79-6.735c0-2.529,0.98-4.906,2.758-6.701c0.012-0.011,0.025-0.021,0.036-0.033
	c0.011-0.011,0.021-0.024,0.032-0.035C296.937,229.399,299.36,228.48,301.786,228.48z M279.965,226.789
	c-1.766,3.427-2.707,7.247-2.707,11.214c0,3.968,0.941,7.788,2.708,11.216l-19.027,19.02c-3.427-1.766-7.246-2.706-11.211-2.706
	c-3.966,0-7.785,0.94-11.211,2.706l-5.965-5.965l41.45-41.448L279.965,226.789z M339.992,144.228c-3.715-3.714-3.715-9.758,0-13.472
	c1.857-1.857,4.296-2.786,6.736-2.786c2.439,0,4.879,0.929,6.736,2.785c3.714,3.715,3.714,9.759,0,13.473
	C349.751,147.942,343.705,147.943,339.992,144.228z M374.512,154.669l-5.974-5.974c3.594-7.009,3.594-15.393,0.001-22.403
	l25.312-25.313l17.174,17.174L374.512,154.669z M428.118,114.029l-30.143-30.143l22.734-22.734l1.18,1.18l27.784,27.784l1.18,1.18
	L428.118,114.029z"/>
<g>
</g>
<g>
</g>
<g>
</g>
<g>
</g>
<g>
</g>
<g>
</g>
<g>
</g>
<g>
</g>
<g>
</g>
<g>
</g>
<g>
</g>
<g>
</g>
<g>
</g>
<g>
</g>
<g>
</g>
</svg>
