<?xml version="1.0" encoding="iso-8859-1"?>
<!-- Generator: Adobe Illustrator 19.0.0, SVG Export Plug-In . SVG Version: 6.00 Build 0)  -->
<svg version="1.1" id="Capa_1" xmlns="http://www.w3.org/2000/svg" xmlns:xlink="http://www.w3.org/1999/xlink" x="0px" y="0px"
	 viewBox="0 0 512 512" style="enable-background:new 0 0 512 512;" xml:space="preserve">
<rect x="21" y="227" style="fill:#8F5040;" width="470" height="89"/>
<rect x="461" y="227" style="fill:#75360D;" width="30" height="89"/>
<rect x="61" y="100.98" style="fill:#FFCE55;" width="30" height="126.02"/>
<rect x="91" y="68.35" style="fill:#FFBC38;" width="30" height="158.65"/>
<rect x="121" y="27.28" style="fill:#FFCE55;" width="30" height="199.72"/>
<rect x="151" y="65.879" style="fill:#FFBC38;" width="30" height="161.12"/>
<rect x="181" y="100.98" style="fill:#FFCE55;" width="30" height="126.02"/>
<rect x="211" y="65.879" style="fill:#FFBC38;" width="30" height="161.12"/>
<rect x="241" y="21" style="fill:#FFCE55;" width="30" height="206"/>
<rect x="271" y="65.879" style="fill:#FFBC38;" width="30" height="161.12"/>
<rect x="301" y="100.98" style="fill:#FFCE55;" width="30" height="126.02"/>
<rect x="331" y="65.879" style="fill:#FFBC38;" width="30" height="161.12"/>
<rect x="361" y="27.28" style="fill:#FFCE55;" width="30" height="199.72"/>
<rect x="391" y="68.35" style="fill:#FFBC38;" width="30" height="158.65"/>
<rect x="421" y="100.98" style="fill:#FFCE55;" width="30" height="126.02"/>
<rect x="47" y="350" style="fill:#735458;" width="418" height="141"/>
<g>
	<rect x="17" y="350" style="fill:#8F5040;" width="30" height="141"/>
	<rect x="465" y="350" style="fill:#8F5040;" width="30" height="141"/>
</g>
<rect x="81.78" y="290" style="fill:#FFBF7B;" width="348.44" height="26"/>
<rect x="130.08" y="263.99" style="fill:#FFDEA9;" width="251.85" height="26"/>
<polygon style="fill:#A66856;" points="474.5,289.995 474.5,315.995 37.5,315.995 37.5,289.995 7.5,289.995 7.5,349.995 
	504.5,349.995 504.5,289.995 "/>
<rect x="474.5" y="290" style="fill:#8F5040;" width="30" height="60"/>
<rect x="133.03" y="417" style="fill:#A66856;" width="245.93" height="74"/>
<rect x="348.96" y="417" style="fill:#8F5040;" width="30" height="74"/>
<rect x="112" y="387" style="fill:#F3B573;" width="288" height="30"/>
<rect x="370" y="387" style="fill:#F5A257;" width="30" height="30"/>
<path d="M504.5,282.495h-6V227c0-4.143-3.358-7.5-7.5-7.5h-32.5V100.981c0-4.143-3.358-7.5-7.5-7.5h-22.5V68.354
	c0-4.143-3.358-7.5-7.5-7.5h-22.5V27.278c0-4.143-3.358-7.5-7.5-7.5h-30c-4.142,0-7.5,3.357-7.5,7.5v31.101H331
	c-4.142,0-7.5,3.357-7.5,7.5v27.603h-15V65.879c0-4.143-3.358-7.5-7.5-7.5h-22.5V21c0-4.143-3.358-7.5-7.5-7.5h-30
	c-4.142,0-7.5,3.357-7.5,7.5v37.379H211c-4.142,0-7.5,3.357-7.5,7.5v27.603h-15V65.879c0-4.143-3.358-7.5-7.5-7.5h-22.5V27.278
	c0-4.143-3.358-7.5-7.5-7.5h-30c-4.142,0-7.5,3.357-7.5,7.5v33.575H91c-4.142,0-7.5,3.357-7.5,7.5v25.128H61
	c-4.142,0-7.5,3.357-7.5,7.5V219.5H21c-4.142,0-7.5,3.357-7.5,7.5v55.495h-6c-4.142,0-7.5,3.357-7.5,7.5v60
	c0,4.143,3.358,7.5,7.5,7.5h2v20.838c0,4.143,3.358,7.5,7.5,7.5s7.5-3.357,7.5-7.5V357.5h15v126h-15v-72.833
	c0-4.143-3.358-7.5-7.5-7.5s-7.5,3.357-7.5,7.5V491c0,4.143,3.358,7.5,7.5,7.5l0,0l0,0h478l0,0l0,0c4.142,0,7.5-3.357,7.5-7.5v-16
	c0-4.143-3.358-7.5-7.5-7.5s-7.5,3.357-7.5,7.5v8.5h-15v-126h15v85.625c0,4.143,3.358,7.5,7.5,7.5s7.5-3.357,7.5-7.5v-85.63h2
	c4.142,0,7.5-3.357,7.5-7.5v-60C512,285.853,508.642,282.495,504.5,282.495z M15,297.495h15v18.5c0,4.143,3.358,7.5,7.5,7.5l0,0
	c0.033,0-0.033,0,0,0h437c0.033,0-0.033,0,0,0l0,0c4.142,0,7.5-3.357,7.5-7.5v-18.5h15v45H15V297.495z M422.721,297.5v10.995H89.279
	V297.5H422.721z M443.5,108.481V219.5h-15V108.481H443.5z M413.5,75.854v25.128V219.5h-15V75.854H413.5z M368.5,34.778h15v33.575
	V219.5h-15V65.879V34.778z M338.5,73.379h15V219.5h-15V100.981V73.379z M323.5,108.481V219.5h-15V108.481H323.5z M293.5,73.379
	v27.603V219.5h-15V73.379H293.5z M248.5,28.5h15v37.379V219.5h-15V65.879V28.5z M218.5,73.379h15V219.5h-15V100.981V73.379z
	 M203.5,108.481V219.5h-15V108.481H203.5z M173.5,73.379v27.603V219.5h-15V73.379H173.5z M128.5,34.778h15v31.101V219.5h-15V68.354
	V34.778z M98.5,75.854h15V219.5h-15V100.981V75.854z M68.5,108.481h15V219.5h-15V108.481z M483.5,234.5v47.995h-9
	c-4.142,0-7.5,3.357-7.5,7.5v18.5h-29.279V290c0-4.143-3.358-7.5-7.5-7.5h-40.796v-18.51c0-4.143-3.358-7.5-7.5-7.5H352
	c-4.142,0-7.5,3.357-7.5,7.5s3.358,7.5,7.5,7.5h22.424v11H137.576v-11H320c4.142,0,7.5-3.357,7.5-7.5s-3.358-7.5-7.5-7.5H130.076
	c-4.142,0-7.5,3.357-7.5,7.5v18.51H81.779c-4.142,0-7.5,3.357-7.5,7.5v18.495H45v-18.5c0-4.143-3.358-7.5-7.5-7.5h-9V234.5H483.5
	 M54.5,357.5h403v126h-71.035v-59H400c4.142,0,7.5-3.357,7.5-7.5v-30c0-4.143-3.358-7.5-7.5-7.5H112c-4.142,0-7.5,3.357-7.5,7.5v30
	c0,4.143,3.358,7.5,7.5,7.5h13.535v59H54.5V357.5z M119.5,409.5v-15h273v15l0,0H119.5L119.5,409.5z M140.535,483.5v-59h230.93v59
	H140.535z"/>
<g>
</g>
<g>
</g>
<g>
</g>
<g>
</g>
<g>
</g>
<g>
</g>
<g>
</g>
<g>
</g>
<g>
</g>
<g>
</g>
<g>
</g>
<g>
</g>
<g>
</g>
<g>
</g>
<g>
</g>
</svg>
