<?xml version="1.0" encoding="iso-8859-1"?>
<!-- Generator: Adobe Illustrator 19.0.0, SVG Export Plug-In . SVG Version: 6.00 Build 0)  -->
<svg version="1.1" id="Capa_1" xmlns="http://www.w3.org/2000/svg" xmlns:xlink="http://www.w3.org/1999/xlink" x="0px" y="0px"
	 viewBox="0 0 512 512" style="enable-background:new 0 0 512 512;" xml:space="preserve">
<g>
	<circle style="fill:#E8E6E1;" cx="256" cy="39.5" r="32"/>
	<circle style="fill:#E8E6E1;" cx="256" cy="472.5" r="32"/>
	<circle style="fill:#E8E6E1;" cx="409.09" cy="102.91" r="32"/>
	<circle style="fill:#E8E6E1;" cx="102.91" cy="409.09" r="32"/>
	<circle style="fill:#E8E6E1;" cx="472.5" cy="256" r="32"/>
	<circle style="fill:#E8E6E1;" cx="39.5" cy="256" r="32"/>
	<circle style="fill:#E8E6E1;" cx="409.09" cy="409.09" r="32"/>
	<circle style="fill:#E8E6E1;" cx="102.91" cy="102.91" r="32"/>
</g>
<circle style="fill:#735458;" cx="256" cy="256" r="217"/>
<path style="fill:#5C4346;" d="M256,39c-5.043,0-10.043,0.187-15,0.525C353.847,47.232,443,141.198,443,256
	s-89.153,208.768-202,216.475c4.957,0.339,9.957,0.525,15,0.525c119.846,0,217-97.154,217-217S375.846,39,256,39z"/>
<path style="fill:#FFDEA9;" d="M256,443c-103.112,0-187-83.888-187-187S152.888,69,256,69s187,83.888,187,187S359.112,443,256,443z"
	/>
<path style="fill:#FFBF7B;" d="M257.333,69c-5.049,0-10.051,0.208-15,0.603c96.125,7.666,172,88.334,172,186.397
	s-75.875,178.731-172,186.397c4.949,0.395,9.951,0.603,15,0.603c103.112,0,187-83.888,187-187S360.446,69,257.333,69z"/>
<path d="M512,256c0-20.233-15.294-36.951-34.926-39.227c-2.06-11.688-5.037-23.192-8.94-34.434
	c-1.358-3.913-5.633-5.984-9.545-4.625c-3.913,1.358-5.984,5.632-4.625,9.545c4.275,12.314,7.371,24.965,9.273,37.841
	c0.008,0.06,0.018,0.119,0.028,0.179c1.486,10.12,2.235,20.378,2.235,30.721c0,115.519-93.981,209.5-209.5,209.5
	S46.5,371.519,46.5,256c0-10.313,0.738-20.517,2.205-30.574c0.027-0.144,0.05-0.288,0.069-0.434
	c2.458-16.605,6.903-32.807,13.309-48.427c1.571-3.833-0.261-8.213-4.094-9.785c-3.833-1.573-8.213,0.262-9.785,4.093
	c-6.092,14.857-10.523,30.203-13.288,45.902C15.288,219.055,0,235.771,0,256c0,20.223,15.28,36.936,34.899,39.223
	c5.645,32.218,18.233,62.608,37.022,89.381c-12.248,15.491-11.236,38.116,3.057,52.421c7.701,7.694,17.813,11.541,27.93,11.541
	c8.669,0,17.335-2.836,24.486-8.488c26.774,18.79,57.164,31.378,89.382,37.023C219.064,496.72,235.777,512,256,512
	s36.936-15.28,39.223-34.899c32.218-5.645,62.608-18.233,89.381-37.022c7.149,5.653,15.813,8.489,24.484,8.488
	c10.116-0.001,20.234-3.849,27.938-11.545c14.288-14.3,15.301-36.921,3.052-52.416c18.79-26.773,31.378-57.164,37.023-89.382
	C496.72,292.936,512,276.223,512,256z M497,256c0,11.158-7.501,20.591-17.723,23.539c0.804-7.769,1.223-15.621,1.223-23.539
	c0-7.898-0.408-15.751-1.219-23.538C489.501,235.411,497,244.844,497,256z M15,256c0-11.16,7.503-20.594,17.727-23.54
	C31.919,240.238,31.5,248.088,31.5,256c0,7.918,0.419,15.77,1.223,23.539C22.501,276.591,15,267.158,15,256z M85.585,426.419
	c-7.885-7.891-9.239-19.862-4.103-29.174c4.922,6.059,10.176,11.904,15.772,17.5s11.441,10.849,17.5,15.772
	C105.44,435.654,93.472,434.3,85.585,426.419z M256,497c-11.158,0-20.591-7.501-23.539-17.723
	c7.769,0.804,15.621,1.223,23.539,1.223s15.77-0.419,23.539-1.223C276.591,489.499,267.158,497,256,497z M426.419,426.415
	c-7.892,7.885-19.862,9.239-29.174,4.103c6.059-4.922,11.904-10.176,17.5-15.772s10.849-11.441,15.771-17.499
	C435.654,406.56,434.299,418.528,426.419,426.415z"/>
<path d="M65.581,151.581c3.557,2.118,8.162,0.953,10.281-2.607c18.255-30.657,44.208-56.333,75.054-74.254
	C182.692,56.258,219.03,46.5,256,46.5c45.553,0,88.706,14.615,123.983,40.515c0.095,0.092,0.185,0.188,0.286,0.275
	c0.417,0.362,0.864,0.666,1.329,0.921c15.97,11.964,30.285,26.262,42.426,42.582c0.204,0.324,0.426,0.64,0.685,0.938
	c0.012,0.014,0.025,0.025,0.037,0.038c6.271,8.532,11.954,17.606,16.97,27.183c1.34,2.559,3.949,4.022,6.65,4.022
	c1.172,0,2.362-0.276,3.473-0.857c3.669-1.921,5.086-6.454,3.165-10.124c-4.494-8.582-9.492-16.783-14.935-24.586
	c12.258-15.491,11.249-38.124-3.048-52.433c-14.287-14.276-36.882-15.298-52.376-3.083c-26.528-18.546-56.979-31.258-89.419-36.969
	C292.949,15.292,276.231,0,256,0c-20.241,0-36.966,15.307-39.23,34.951c-25.8,4.565-50.681,13.605-73.39,26.799
	c-5.464,3.174-10.769,6.597-15.932,10.212C111.956,59.67,89.296,60.67,74.974,74.979c-14.303,14.315-15.304,36.97-3.013,52.467
	c-3.155,4.506-6.167,9.118-8.987,13.855C60.854,144.859,62.021,149.462,65.581,151.581z M426.415,85.581
	c7.875,7.882,9.237,19.833,4.123,29.139c-9.948-12.312-21.089-23.452-33.217-33.281C406.624,76.352,418.55,77.723,426.415,85.581z
	 M256,15c11.158,0,20.592,7.501,23.539,17.723C271.777,31.914,263.923,31.5,256,31.5c-7.886,0-15.745,0.422-23.544,1.242
	C235.397,22.51,244.835,15,256,15z M85.581,85.585c7.899-7.892,19.883-9.241,29.199-4.089c-12.216,9.903-23.37,21.076-33.274,33.295
	C76.344,105.472,77.69,93.483,85.581,85.585z"/>
<path d="M256,435.5c-14.169,0-28.279-1.664-41.939-4.946c-4.024-0.966-8.077,1.513-9.044,5.541
	c-0.968,4.027,1.513,8.077,5.541,9.044c14.806,3.557,30.095,5.361,45.443,5.361c107.248,0,194.5-87.252,194.5-194.5
	S363.248,61.5,256,61.5S61.5,148.752,61.5,256c0,77.63,46.135,147.743,117.534,178.622c3.802,1.645,8.217-0.105,9.861-3.907
	s-0.105-8.217-3.907-9.861C119.084,392.352,76.5,327.643,76.5,256c0-98.977,80.523-179.5,179.5-179.5S435.5,157.023,435.5,256
	S354.977,435.5,256,435.5z"/>
<g>
</g>
<g>
</g>
<g>
</g>
<g>
</g>
<g>
</g>
<g>
</g>
<g>
</g>
<g>
</g>
<g>
</g>
<g>
</g>
<g>
</g>
<g>
</g>
<g>
</g>
<g>
</g>
<g>
</g>
</svg>
