<?xml version="1.0" encoding="iso-8859-1"?>
<!-- Generator: Adobe Illustrator 19.0.0, SVG Export Plug-In . SVG Version: 6.00 Build 0)  -->
<svg version="1.1" id="Capa_1" xmlns="http://www.w3.org/2000/svg" xmlns:xlink="http://www.w3.org/1999/xlink" x="0px" y="0px"
	 viewBox="0 0 512 512" style="enable-background:new 0 0 512 512;" xml:space="preserve">
<path style="fill:#FFCE55;" d="M194.5,416c-103.112,0-187-83.888-187-187s83.888-187,187-187s187,83.888,187,187
	S297.612,416,194.5,416z"/>
<path style="fill:#FFBC38;" d="M194.5,338.069c-60.103,0-109-48.897-109-109s48.897-109,109-109s109,48.897,109,109
	S254.603,338.069,194.5,338.069z"/>
<path style="fill:#FFCE55;" d="M317.5,470c-103.112,0-187-83.888-187-187s83.888-187,187-187s187,83.888,187,187
	S420.612,470,317.5,470z"/>
<path style="fill:#FFBC38;" d="M317.5,392.069c-60.103,0-109-48.897-109-109s48.897-109,109-109s109,48.897,109,109
	S377.603,392.069,317.5,392.069z"/>
<path style="fill:#FFA440;" d="M317.5,174.069c-4.129,0-8.203,0.239-12.214,0.688c51.61,8.569,91.089,53.517,91.089,107.52
	c0,55.974-42.412,102.221-96.786,108.312c5.83,0.968,11.812,1.48,17.911,1.48c60.103,0,109-48.897,109-109
	S377.603,174.069,317.5,174.069z"/>
<path style="fill:#735458;" d="M322,352.722L322,352.722c-8.284,0-15-6.716-15-15v-100c0-8.284,6.716-15,15-15l0,0
	c8.284,0,15,6.716,15,15v100C337,346.006,330.284,352.722,322,352.722z"/>
<path d="M329.242,88.865C292.791,53.791,245.062,34.5,194.5,34.5C87.252,34.5,0,121.752,0,229
	c0,48.562,18.066,95.094,50.872,131.024c1.479,1.621,3.506,2.443,5.541,2.443c1.806,0,3.617-0.648,5.055-1.961
	c3.059-2.793,3.274-7.537,0.481-10.596C31.674,316.75,15,273.81,15,229c0-98.977,80.523-179.5,179.5-179.5
	c41.145,0,80.259,13.848,112,39.317c-31.702,1.776-61.395,11.181-87.28,26.402c-8.069-1.756-16.369-2.649-24.72-2.649
	c-64.238,0-116.5,52.262-116.5,116.5c0,37.955,18.417,73.301,49.418,95.183c6.659,30.709,20.58,58.742,39.887,82.19
	c-30.124-4.582-58.455-16.747-82.83-35.713c-3.269-2.544-7.981-1.955-10.525,1.313c-2.544,3.269-1.956,7.981,1.313,10.525
	c31.152,24.241,68.27,38.234,107.512,40.578c34.98,33.64,82.477,54.354,134.725,54.354c36.487,0,72.079-10.209,102.93-29.523
	c3.511-2.198,4.575-6.826,2.377-10.337c-2.197-3.51-6.825-4.575-10.337-2.377c-28.461,17.818-61.301,27.237-94.97,27.237
	C218.523,462.5,138,381.977,138,283s80.523-179.5,179.5-179.5S497,184.023,497,283c0,50.971-21.875,99.754-60.017,133.842
	c-3.089,2.76-3.355,7.501-0.595,10.59s7.502,3.356,10.59,0.595C488.301,391.097,512,338.236,512,283
	C512,179.696,431.042,94.958,329.242,88.865z M123,283c0,6.392,0.319,12.71,0.925,18.946C104.312,282.98,93,256.824,93,229.07
	c0-55.967,45.533-101.5,101.5-101.5c1.997,0,3.991,0.06,5.977,0.177C153.45,163.281,123,219.649,123,283z"/>
<path d="M236.369,209.969c-3.258-2.559-7.974-1.992-10.531,1.267C209.589,231.927,201,256.767,201,283.069
	c0,64.238,52.262,116.5,116.5,116.5S434,347.307,434,283.069s-52.262-116.5-116.5-116.5c-24.148,0-47.33,7.354-67.039,21.266
	c-3.384,2.389-4.191,7.069-1.802,10.453c2.389,3.383,7.068,4.189,10.453,1.802c17.165-12.117,37.355-18.521,58.389-18.521
	c55.967,0,101.5,45.533,101.5,101.5s-45.533,101.5-101.5,101.5S216,339.036,216,283.069c0-22.91,7.481-44.546,21.635-62.57
	C240.193,217.242,239.626,212.527,236.369,209.969z"/>
<path d="M344.5,337.722v-100c0-12.407-10.093-22.5-22.5-22.5s-22.5,10.093-22.5,22.5v100c0,12.407,10.093,22.5,22.5,22.5
	S344.5,350.129,344.5,337.722z M314.5,337.722v-100c0-4.136,3.364-7.5,7.5-7.5s7.5,3.364,7.5,7.5v100c0,4.136-3.364,7.5-7.5,7.5
	S314.5,341.858,314.5,337.722z"/>
<g>
</g>
<g>
</g>
<g>
</g>
<g>
</g>
<g>
</g>
<g>
</g>
<g>
</g>
<g>
</g>
<g>
</g>
<g>
</g>
<g>
</g>
<g>
</g>
<g>
</g>
<g>
</g>
<g>
</g>
</svg>
