<?xml version="1.0" encoding="iso-8859-1"?>
<!-- Generator: Adobe Illustrator 19.0.0, SVG Export Plug-In . SVG Version: 6.00 Build 0)  -->
<svg version="1.1" id="Capa_1" xmlns="http://www.w3.org/2000/svg" xmlns:xlink="http://www.w3.org/1999/xlink" x="0px" y="0px"
	 viewBox="0 0 511.992 511.992" style="enable-background:new 0 0 511.992 511.992;" xml:space="preserve">
<path style="fill:#FFCE55;" d="M504.497,46.28V28.514c0-1.384-0.959-2.584-2.312-2.873c-21.741-4.651-64.086-8.426-88.521-3.558
	C310.523,225.842,236.786,352.264,200.25,393.11c-23.021,27.265-76.108,11.139-73.119-25.575
	c3.833-20.678,44.955-143.381,94.496-181.412c2.612-2.005,1.91-6.133-1.253-7.049c-58-16.802-178.111-2.313-209.873,5.891
	c-3.151,0.814-4.052,4.81-1.6,6.95c29.268,25.54,28.136,85.288,13.357,143.919c-22.257,88.298,24.598,159.67,105.075,165.817
	c82.59,6.308,134.008-74.518,189.667-184.041c28.067-57.199,123.522-254.102,126.935-260.238c0.278-0.23,45.537-6.184,58.086-8.189
	C503.448,48.955,504.497,47.726,504.497,46.28z"/>
<g>
	<path style="fill:#FFBC38;" d="M502.185,25.641c-18.148-3.883-50.647-7.15-75.107-5.294c16.041,0.943,31.673,3.011,42.342,5.294
		c1.353,0.29,2.312,1.489,2.312,2.873V46.28c0,1.404-24.856,10.322-27.606,11.047c3.171-0.592,45.779-6.208,57.896-8.145
		c1.427-0.228,2.476-1.457,2.476-2.903V28.514C504.497,27.13,503.538,25.93,502.185,25.641z"/>
	<path style="fill:#FFBC38;" d="M187.608,179.075c3.164,0.916,3.866,5.043,1.253,7.049
		c-49.541,38.031-90.663,160.734-94.496,181.412c-2.446,30.043,32.655,46.293,58.107,36.269
		c-15.078-5.53-26.789-18.484-25.341-36.269c3.833-20.678,44.954-143.381,94.496-181.412c2.612-2.005,1.91-6.133-1.253-7.049
		c-23.445-6.792-57.038-8.469-90.842-7.517C151.466,172.254,171.835,174.506,187.608,179.075z"/>
	<path style="fill:#FFBC38;" d="M419.952,69.236C401.116,102.789,309.77,265.568,284.233,317.61
		c-49.841,98.074-96.285,173.125-164.753,183.217c2.581,0.343,5.197,0.621,7.852,0.824c82.59,6.308,134.008-74.518,189.667-184.041
		c28.068-57.199,123.523-254.102,126.936-260.238c-5.298,0.847-9.755,1.995-13.157,3.055
		C426.173,61.864,422.314,65.029,419.952,69.236z"/>
</g>
<path style="fill:#FFA440;" d="M221.627,186.126c-7.41,5.69-14.63,13.26-21.56,22.12c-10.28-1.22-20.54-2.09-30.65-2.67
	c-59.7-3.37-114.78,3.58-145.08,8.63c-3.7-8.91-8.79-16.49-15.44-22.29c-2.45-2.14-1.55-6.13,1.6-6.95
	c26.68-6.89,115.66-18.21,177.84-11.71c0.01,0,0.01,0,0.02,0.01c11.85,1.24,22.73,3.12,32.01,5.81
	C223.547,179.996,224.247,184.116,221.627,186.126z"/>
<path style="fill:#D4872C;" d="M221.627,186.126c-7.41,5.69-14.63,13.26-21.56,22.12c-10.28-1.22-20.54-2.09-30.65-2.67
	c6.28-7.71,12.79-14.34,19.44-19.45c2.61-2.01,2.64-11.92-0.5-12.86c11.85,1.24,22.73,3.12,32.01,5.81
	C223.547,179.996,224.247,184.116,221.627,186.126z"/>
<polygon style="fill:#FFA440;" points="428.227,103.696 410.727,146.716 402.427,142.216 390.027,135.506 384.547,132.536 
	352.547,115.206 374.937,78.636 406.397,93.426 409.117,94.706 "/>
<polygon style="fill:#D4872C;" points="428.227,103.696 410.727,146.716 402.427,142.216 390.027,135.506 409.117,94.706 "/>
<g>
	<path style="fill:#FFA440;" d="M435.313,9.996c0.493,0.996,10.608,60.023,10.608,60.023l26.762-5.14
		c1.054-0.202,1.76-1.2,1.601-2.262l-7.631-50.918c-0.147-0.978-0.988-1.703-1.978-1.703H435.313z"/>
	<path style="fill:#FFA440;" d="M118.581,303.575c-4.559,10.062-16.41,14.523-26.469,9.963c-10.06-4.56-14.519-16.414-9.96-26.476
		s16.41-14.523,26.469-9.963S123.139,293.513,118.581,303.575z"/>
	<circle style="fill:#FFA440;" cx="80.365" cy="366.426" r="19.998"/>
	<circle style="fill:#FFA440;" cx="120.365" cy="432.016" r="19.998"/>
	<circle style="fill:#FFA440;" cx="266.795" cy="406.436" r="19.998"/>
	<circle style="fill:#FFA440;" cx="297.595" cy="355.346" r="19.998"/>
	<circle style="fill:#FFA440;" cx="332.605" cy="298.646" r="19.998"/>
	<circle style="fill:#FFA440;" cx="253.205" cy="315.326" r="19.998"/>
	<circle style="fill:#FFA440;" cx="291.375" cy="255.306" r="19.998"/>
	<path style="fill:#FFA440;" d="M346.605,199.666c-4.559,10.062-16.41,14.523-26.469,9.963c-10.06-4.56-14.519-16.414-9.96-26.476
		s16.41-14.523,26.469-9.963S351.164,189.604,346.605,199.666z"/>
</g>
<path d="M503.754,18.302c-8.024-1.715-18.411-3.245-29.177-4.318l-0.51-3.4c-0.705-4.686-4.656-8.087-9.394-8.087h-29.361
	c-2.594,0-5.004,1.34-6.372,3.544c-1.14,1.835-1.422,4.052-0.819,6.084c0.034,0.152,0.08,0.374,0.131,0.627
	c-6.001,0.395-11.385,1.052-16.046,1.978c-2.262,0.449-4.191,1.913-5.232,3.97c-9.103,17.992-18.328,36.044-27.481,53.792
	l-1.362-0.641c-3.455-1.626-7.59-0.391-9.588,2.871l-22.389,36.566c-1.074,1.755-1.381,3.875-0.847,5.863
	c0.534,1.987,1.861,3.668,3.671,4.648l3.788,2.052c-7.263,13.812-14.419,27.289-21.355,40.217
	c-4.253-0.474-8.587,0.051-12.706,1.601c-6.874,2.587-12.329,7.697-15.361,14.389c-4.447,9.816-2.625,20.9,3.755,28.741
	c-3.667,6.654-7.278,13.162-10.793,19.456c-12.116-2.207-24.67,3.985-29.978,15.698c-3.032,6.69-3.277,14.16-0.69,21.034
	c1.17,3.109,2.86,5.923,4.975,8.359c-3.179,5.449-6.272,10.711-9.25,15.73c-13.043-4.06-27.42,2.142-33.203,14.901
	c-3.032,6.689-3.277,14.159-0.69,21.033c1.347,3.581,3.384,6.771,5.967,9.44c-15.683,24.362-28.719,42.403-38.781,53.658
	c-0.047,0.053-0.094,0.106-0.14,0.161c-10.668,12.639-28.691,12.966-40.923,7.924c-12.752-5.257-19.837-15.582-19.018-27.669
	c0.645-3.27,2.209-9.001,4.33-15.845c1.226-3.957-0.988-8.158-4.944-9.384c-3.961-1.228-8.158,0.989-9.384,4.944
	c-2.405,7.764-4.118,14.131-4.823,17.929c-0.047,0.252-0.081,0.506-0.102,0.762c-1.525,18.798,9.289,35.325,28.224,43.131
	c6.859,2.828,14.041,4.192,21.063,4.192c14.344,0,28.028-5.692,36.966-16.223c10.652-11.93,24.274-30.773,40.53-56.059
	c2.231,0.568,4.489,0.85,6.728,0.85c10.469,0,20.492-6.006,25.087-16.145l0,0c3.032-6.689,3.277-14.159,0.69-21.033
	c-1.174-3.118-2.871-5.94-4.995-8.381c2.977-5.015,6.068-10.269,9.246-15.714c2.686,0.839,5.427,1.25,8.139,1.25
	c10.469,0,20.492-6.006,25.087-16.145l0,0c3.032-6.689,3.277-14.159,0.69-21.033c-1.575-4.184-4.088-7.838-7.32-10.744
	c3.163-5.666,6.4-11.499,9.685-17.453c2.894,0.998,5.895,1.505,8.904,1.505c3.27,0,6.547-0.591,9.698-1.777
	c6.874-2.588,12.329-7.698,15.361-14.39l0,0c5.328-11.761,1.661-25.341-8.068-32.982c6.696-12.491,13.594-25.485,20.587-38.784
	l26.581,14.398c-7.45,15.306-15.317,31.477-23.174,47.628l-16.669,34.259c-1.812,3.725-0.262,8.213,3.462,10.025
	c1.058,0.515,2.176,0.758,3.276,0.758c2.78,0,5.451-1.552,6.75-4.22l16.669-34.261c7.757-15.945,15.522-31.906,22.888-47.038
	l1.414,0.766c1.109,0.601,2.338,0.905,3.572,0.905c0.854,0,1.709-0.146,2.529-0.439c2.008-0.719,3.614-2.259,4.418-4.234
	l17.502-43.017c1.337-3.288,0.172-6.992-2.646-8.964c4.063-8.329,7.451-15.262,10.155-20.78c1.011,0.484,2.116,0.738,3.235,0.738
	c0.472,0,0.945-0.044,1.415-0.135l26.762-5.14c5.022-0.964,8.362-5.682,7.603-10.738l-0.268-1.788
	c9.131-1.266,17.386-2.432,21.774-3.127c5.094-0.818,8.79-5.157,8.79-10.315v-17.76C511.995,23.624,508.532,19.329,503.754,18.302z
	 M264.589,320.485L264.589,320.485c-2.845,6.275-10.268,9.068-16.543,6.223c-3.041-1.377-5.362-3.856-6.538-6.98
	c-1.176-3.124-1.064-6.518,0.313-9.558c2.089-4.608,6.644-7.337,11.401-7.337c1.724,0,3.473,0.358,5.142,1.114
	c3.04,1.377,5.362,3.857,6.538,6.98C266.078,314.051,265.966,317.445,264.589,320.485z M302.756,260.462L302.756,260.462
	c-2.846,6.275-10.268,9.069-16.543,6.223c-3.041-1.377-5.363-3.857-6.538-6.98c-1.176-3.124-1.064-6.518,0.313-9.558
	c2.089-4.608,6.643-7.337,11.401-7.337c1.723,0,3.473,0.357,5.141,1.114c3.041,1.378,5.363,3.857,6.539,6.98
	C304.245,254.027,304.134,257.422,302.756,260.462z M339.773,196.571L339.773,196.571c-1.378,3.042-3.857,5.365-6.981,6.541
	c-3.123,1.176-6.519,1.065-9.56-0.314c-6.277-2.846-9.07-10.27-6.225-16.55c1.378-3.042,3.857-5.364,6.981-6.541
	c1.433-0.539,2.921-0.808,4.407-0.808c1.755,0,3.506,0.375,5.152,1.122C339.826,182.867,342.618,190.291,339.773,196.571z
	 M418.661,28.824c3.649-0.56,7.765-0.963,12.288-1.213c1.476,8.361,3.312,18.918,5.028,28.853
	c-2.442,4.884-8.044,16.307-16.972,34.61L393.076,78.88C401.594,62.357,410.174,45.576,418.661,28.824z M406.934,136.133
	l-43.859-23.757l14.751-24.091l40.774,19.176L406.934,136.133z M452.018,61.211c-3.966-23.094-6.257-36.19-7.632-43.715h15.551
	l6.146,41.014L452.018,61.211z M496.995,42.364c-4.556,0.674-10.92,1.568-17.787,2.52l-2.334-15.572
	c7.28,0.807,14.227,1.814,20.121,2.931V42.364z"/>
<path d="M346.252,274.778c1.922-3.944,3.895-7.995,5.924-12.161c1.813-3.724,0.265-8.213-3.46-10.026
	c-3.726-1.813-8.212-0.264-10.026,3.46c-2.542,5.221-5.007,10.28-7.377,15.143c-9.979,0.486-19.355,6.397-23.755,16.104
	c-3.032,6.689-3.276,14.159-0.689,21.033c0.838,2.227,1.945,4.302,3.28,6.197c-2.624,5.155-4.947,9.683-7.117,13.869
	c-12.271-2.475-25.099,3.723-30.482,15.598c-3.032,6.689-3.276,14.159-0.689,21.033c1.368,3.636,3.449,6.87,6.089,9.563
	c-1.082,1.876-2.156,3.719-3.222,5.531c-12.984-3.919-27.224,2.29-32.973,14.972c-2.981,6.576-3.262,13.904-0.813,20.681
	c-24.079,15.962-44.884,25.483-59.009,26.932c-12.776,1.312-24.524,0.154-35.036-3.436c1.533-5.558,1.281-11.438-0.789-16.937
	c-2.588-6.874-7.697-12.329-14.387-15.36c-6.11-2.768-12.711-3.106-18.715-1.43L100.54,385.09c1.956-2.11,3.621-4.552,4.872-7.314
	l0,0c3.032-6.69,3.277-14.159,0.69-21.033c-2.18-5.791-6.156-10.569-11.353-13.745l5.67-20.163c3.249-0.008,6.503-0.596,9.635-1.774
	c6.875-2.588,12.33-7.698,15.362-14.39l0,0c6.257-13.813,0.113-30.143-13.696-36.402c-6.689-3.032-14.159-3.278-21.036-0.69
	c-6.874,2.588-12.329,7.698-15.36,14.389c-5.78,12.754-0.979,27.648,10.662,34.785l-5.677,20.189
	c-10.433,0.038-20.407,6.03-24.988,16.136c-3.032,6.689-3.277,14.16-0.69,21.034s7.696,12.329,14.386,15.36
	c3.671,1.663,7.519,2.45,11.309,2.45c2.519,0,5.009-0.356,7.406-1.025l12.464,20.45c-1.957,2.111-3.617,4.56-4.869,7.322
	c-3.032,6.689-3.277,14.16-0.69,21.034s7.696,12.329,14.386,15.36c3.671,1.663,7.519,2.45,11.309,2.45
	c6.848,0,13.493-2.583,18.565-7.198c10.145,3.934,21.198,5.918,33.024,5.918c3.771,0,7.622-0.201,11.546-0.604
	c16.479-1.691,36.198-11.182,53.469-21.57c-34.765,43.11-68.955,61.176-109.025,58.111c-34.449-2.628-63.613-18.235-82.118-43.946
	c-21.316-29.616-27.091-69.589-16.26-112.553c8.06-31.975,11.537-61.939,10.053-86.652c-0.688-11.461-2.413-21.745-5.151-30.827
	c34.282-5.237,91.761-11.313,151.806-5.855c-22.704,32.771-40.663,75.403-50.95,102.833c-1.454,3.878,0.511,8.201,4.389,9.656
	c0.868,0.325,1.758,0.479,2.633,0.479c3.036,0,5.895-1.857,7.023-4.869c33.916-90.439,65.049-121.292,76.869-130.366
	c3.479-2.679,5.136-7.017,4.324-11.321c-0.804-4.261-3.89-7.661-8.062-8.876c-44.407-12.862-119.245-7.146-149.359-4.093
	c-4.121,0.418-7.123,4.098-6.705,8.219s4.102,7.122,8.219,6.705c76.826-7.792,118.532-2.302,137.096,1.898
	c-5.138,4.558-10.122,9.877-14.937,15.728c-66.904-7.356-131.772-0.159-167.998,5.559c-2.881-5.701-6.309-10.738-10.292-15.079
	c6.5-1.378,14.922-2.836,24.457-4.227c4.099-0.598,6.937-4.405,6.34-8.503c-0.599-4.099-4.417-6.936-8.504-6.339
	c-13.407,1.955-24.827,4.073-32.147,5.962c-4.145,1.065-7.334,4.312-8.322,8.472c-0.995,4.188,0.405,8.553,3.658,11.394
	c23.304,20.337,27.422,71.341,11.013,136.434c-11.931,47.327-5.314,91.714,18.63,124.982c21.134,29.363,54.215,47.17,93.15,50.14
	c3.226,0.247,6.419,0.371,9.586,0.371c44.7,0,83.835-24.672,122.12-76.854c2.733,0.871,5.525,1.294,8.287,1.294
	c10.469,0,20.492-6.007,25.087-16.145l0,0c3.032-6.689,3.277-14.159,0.69-21.033c-1.203-3.196-2.957-6.08-5.157-8.562
	c1.189-2.019,2.39-4.077,3.598-6.173c2.182,0.542,4.388,0.813,6.576,0.813c10.469,0,20.492-6.006,25.088-16.144c0,0,0,0,0-0.001
	c3.032-6.689,3.276-14.159,0.689-21.033c-1.515-4.026-3.901-7.559-6.957-10.41c1.783-3.44,3.67-7.113,5.752-11.192
	c3.406,1.405,6.945,2.083,10.437,2.083c10.469,0,20.491-6.006,25.086-16.144c3.032-6.69,3.277-14.16,0.69-21.034
	C356.057,282.9,351.812,277.944,346.252,274.778z M88.984,290.158c1.378-3.042,3.857-5.364,6.981-6.541
	c1.433-0.539,2.921-0.807,4.406-0.807c1.755,0,3.506,0.375,5.152,1.121c6.278,2.846,9.071,10.27,6.226,16.549l0,0
	c-1.378,3.042-3.857,5.364-6.981,6.541c-3.126,1.176-6.52,1.064-9.56-0.314C88.931,303.862,86.138,296.438,88.984,290.158z
	 M75.205,377.808c-3.041-1.377-5.363-3.857-6.538-6.98c-1.176-3.124-1.064-6.517,0.313-9.558c2.088-4.607,6.644-7.337,11.401-7.337
	c1.723,0,3.473,0.358,5.142,1.114c3.04,1.377,5.362,3.857,6.538,6.98c1.176,3.124,1.064,6.518-0.313,9.557l0,0
	c-1.065,2.349-2.771,4.209-4.818,5.469c-0.018,0.011-0.037,0.019-0.055,0.03c-0.005,0.003-0.01,0.007-0.015,0.01
	C83.447,379.164,79.105,379.576,75.205,377.808z M115.211,443.398c-3.041-1.377-5.363-3.856-6.538-6.98
	c-1.176-3.124-1.064-6.517,0.313-9.558c2.088-4.607,6.644-7.337,11.401-7.337c1.723,0,3.473,0.358,5.142,1.114
	c3.04,1.377,5.362,3.857,6.538,6.98c1.176,3.124,1.064,6.518-0.313,9.557l0,0C128.909,443.45,121.484,446.244,115.211,443.398z
	 M278.183,411.6L278.183,411.6c-2.844,6.275-10.268,9.069-16.543,6.224c-3.041-1.377-5.362-3.856-6.538-6.98
	c-1.176-3.123-1.064-6.518,0.313-9.558c2.088-4.607,6.644-7.337,11.402-7.337c1.723,0,3.473,0.357,5.141,1.114
	c3.041,1.377,5.362,3.856,6.538,6.98C279.672,405.166,279.561,408.56,278.183,411.6z M308.979,360.5
	c-2.845,6.275-10.266,9.069-16.543,6.224c-3.041-1.377-5.363-3.857-6.539-6.98c-1.175-3.124-1.064-6.518,0.313-9.557
	c2.089-4.608,6.645-7.338,11.403-7.338c1.722,0,3.472,0.358,5.14,1.114c3.041,1.377,5.363,3.857,6.539,6.98
	C310.467,354.066,310.357,357.46,308.979,360.5z M343.986,303.803C343.986,303.804,343.986,303.804,343.986,303.803
	c-2.846,6.278-10.268,9.068-16.542,6.224c-1.156-0.523-2.206-1.208-3.131-2.025c-0.045-0.044-0.09-0.089-0.136-0.132
	c-1.44-1.312-2.566-2.948-3.272-4.824c-1.175-3.124-1.064-6.518,0.313-9.557c2.089-4.608,6.645-7.338,11.403-7.338
	c1.722,0,3.472,0.358,5.14,1.114c3.041,1.377,5.363,3.857,6.538,6.98C345.476,297.369,345.364,300.763,343.986,303.803z"/>
<g>
</g>
<g>
</g>
<g>
</g>
<g>
</g>
<g>
</g>
<g>
</g>
<g>
</g>
<g>
</g>
<g>
</g>
<g>
</g>
<g>
</g>
<g>
</g>
<g>
</g>
<g>
</g>
<g>
</g>
</svg>
