<?xml version="1.0" encoding="iso-8859-1"?>
<!-- Generator: Adobe Illustrator 19.0.0, SVG Export Plug-In . SVG Version: 6.00 Build 0)  -->
<svg version="1.1" id="Capa_1" xmlns="http://www.w3.org/2000/svg" xmlns:xlink="http://www.w3.org/1999/xlink" x="0px" y="0px"
	 viewBox="0 0 512 512" style="enable-background:new 0 0 512 512;" xml:space="preserve">
<g>
	<path style="fill:#E8E6E1;" d="M499.534,455.443L283.001,113.368c-5.894-9.31-15.991-14.868-27.011-14.868
		c-11.02,0-21.117,5.558-27.01,14.868l0,0L12.445,455.443c-7.189,11.356-6.591,26.187,2.019,37.032
		c6.155,7.752,15.706,12.025,25.605,12.025H85.99c8.284,0,15-6.716,15-15l0,0c0-8.284-6.716-15-15-15H39.456
		c-0.318,0-1.16,0-1.719-1.016c-0.56-1.016-0.109-1.729,0.061-1.997l216.534-342.074l0,0c0.143-0.226,0.578-0.913,1.659-0.913
		c1.081,0,1.516,0.687,1.658,0.913l216.534,342.074c0.17,0.268,0.62,0.981,0.062,1.997c-0.56,1.016-1.402,1.016-1.72,1.016H234.99
		c-8.284,0-15,6.716-15,15l0,0c0,8.284,6.716,15,15,15h237.534c11.653,0,22.382-6.341,28.003-16.547
		C506.146,477.745,505.766,465.288,499.534,455.443z"/>
	<path style="fill:#E8E6E1;" d="M220.24,128.5c-0.429,0-0.752,0.109-1,0.254L12.445,455.443c-3.659,5.78-5.289,12.46-4.884,19.057
		h31.895c-0.318,0-1.16,0-1.719-1.016c-0.56-1.016-0.109-1.729,0.061-1.997l200.317-316.456l-16.216-25.618
		C221.756,129.187,221.321,128.5,220.24,128.5z"/>
	<path style="fill:#E8E6E1;" d="M85.99,474.5H50.24c8.284,0,15,6.716,15,15s-6.716,15-15,15h35.75c8.284,0,15-6.716,15-15
		S94.274,474.5,85.99,474.5z"/>
</g>
<g>
	<path style="fill:#CFCDC8;" d="M499.534,455.443L283.001,113.368c-5.894-9.31-15.991-14.868-27.011-14.868
		c-6.508,0-12.686,1.952-17.875,5.457c3.597,2.43,6.723,5.6,9.136,9.411l9.739,15.386c0.377,0.22,0.573,0.523,0.659,0.659
		l216.534,342.074c0.17,0.268,3.308,6.138,3.308,13.138c0,18.625-29.063,19.875-40.716,19.875h35.75
		c11.653,0,22.382-6.341,28.003-16.547C506.146,477.745,505.766,465.288,499.534,455.443z"/>
	<path style="fill:#CFCDC8;" d="M270.508,335.402L85.143,150.037c-5.077-5.077-13.308-5.077-18.385,0l0,0
		c-5.077,5.077-5.077,13.308,0,18.385l185.365,185.365L270.508,335.402z"/>
</g>
<g>
	<path style="fill:#595959;" d="M339.505,422.783L339.505,422.783c-5.858,5.858-15.355,5.858-21.213,0l-67.582-67.582l21.213-21.213
		l67.582,67.582C345.362,407.428,345.362,416.925,339.505,422.783z"/>
	<path style="fill:#595959;" d="M255.99,182.5L255.99,182.5c-8.284,0-15-6.716-15-15V7.5h30v160
		C270.99,175.784,264.274,182.5,255.99,182.5z"/>
</g>
<path d="M505.873,451.429L377.783,249.08c-2.217-3.5-6.848-4.542-10.349-2.326c-3.5,2.215-4.541,6.849-2.325,10.348L493.2,459.454
	c4.776,7.537,5.069,17.069,0.766,24.88C489.665,492.146,481.45,497,472.526,497H234.989c-2,0-3.878-0.779-5.306-2.213
	c-1.415-1.409-2.194-3.287-2.194-5.287c0-4.136,3.365-7.5,7.5-7.5h237.536c3.507,0,6.608-1.836,8.281-4.885
	c1.696-3.062,1.594-6.66-0.283-9.636L278.49,148.306v-28.038l69.521,109.825c1.428,2.255,3.858,3.49,6.344,3.49
	c1.372,0,2.76-0.376,4.005-1.164c3.5-2.215,4.541-6.849,2.325-10.348l-71.343-112.703c-2.831-4.486-6.538-8.335-10.853-11.332V7.5
	c0-4.142-3.358-7.5-7.5-7.5h-30.001c-4.142,0-7.5,3.358-7.5,7.5v90.536c-4.314,2.996-8.02,6.844-10.847,11.323l-64.957,102.617
	l-25.822-25.822c-2.929-2.93-7.678-2.929-10.607,0s-2.929,7.678,0,10.606l0,0c0.054,0.055-0.056-0.053,0,0L259.9,335.402
	c0.056,0.057-0.058-0.055,0,0l0,0l-7.779,7.778l0,0c-0.029-0.029,0.029,0.028,0,0L72.057,163.119c-0.029-0.029,0.029,0.028,0,0l0,0
	c-2.145-2.145-2.145-5.634,0-7.778c2.145-2.146,5.634-2.144,7.779,0l18.793,18.793c2.929,2.929,7.678,2.929,10.607,0
	s2.929-7.678,0-10.606l-18.793-18.793c-7.992-7.993-20.999-7.993-28.992,0s-7.993,20.999,0,28.991l73.759,73.757L6.106,451.429
	c-8.973,14.178-7.979,32.545,2.474,45.705C16.079,506.581,27.555,512,40.064,512h45.921c12.407,0,22.501-10.093,22.501-22.5
	c0-6.017-2.346-11.668-6.587-15.894c-4.245-4.26-9.896-6.606-15.914-6.606H49.513l25.738-40.662c2.215-3.5,1.174-8.133-2.326-10.349
	c-3.501-2.215-8.134-1.174-10.349,2.326l-31.127,49.177c-1.87,2.965-1.972,6.563-0.289,9.598c1.689,3.075,4.789,4.91,8.295,4.91
	h46.531c2,0,3.878,0.779,5.306,2.213c1.415,1.409,2.194,3.287,2.194,5.287c0,4.136-3.364,7.5-7.5,7.5H40.064
	c-7.789,0-15.167-3.437-19.737-9.194c-6.489-8.169-7.11-19.564-1.546-28.354l127.299-201.1l10.869,10.869L79.748,391.186
	c-2.215,3.5-1.174,8.133,2.326,10.349c1.245,0.788,2.632,1.164,4.004,1.164c2.485,0,4.917-1.234,6.345-3.49l75.398-119.116
	l75.402,75.4c0.071,1.821,0.793,3.621,2.183,5.011l67.583,67.582c4.25,4.25,9.901,6.59,15.911,6.59s11.66-2.341,15.91-6.59
	c0,0,0,0,0.001,0c4.249-4.25,6.59-9.9,6.59-15.91s-2.341-11.661-6.59-15.91l-67.584-67.582c-1.338-1.337-3.129-2.109-5.011-2.182
	l-81.918-81.916l44.33-70.033C237.594,183.514,246.046,190,255.99,190c9.943,0,18.395-6.486,21.362-15.447L462.467,467H234.989
	c-12.407,0-22.501,10.093-22.501,22.5c0,6.017,2.346,11.668,6.587,15.894c4.245,4.26,9.896,6.606,15.913,6.606h237.536
	c14.392,0,27.643-7.83,34.58-20.431C514.048,478.968,513.576,463.586,505.873,451.429z M336.4,412.177
	c0,2.003-0.78,3.886-2.196,5.303c-0.001,0-0.001,0-0.001,0c-1.416,1.417-3.3,2.197-5.303,2.197s-3.887-0.78-5.303-2.197
	l-62.281-62.279l10.607-10.607l62.28,62.279C335.62,408.29,336.4,410.173,336.4,412.177z M168.557,222.846l64.932-102.578v28.037
	l-54.063,85.409L168.557,222.846z M255.99,175c-4.136,0-7.5-3.364-7.5-7.5l0,0c0-0.015,0,0.015,0,0V15h15v152.5c0,0.015,0-0.015,0,0
	l0,0C263.49,171.636,260.126,175,255.99,175z"/>
<g>
</g>
<g>
</g>
<g>
</g>
<g>
</g>
<g>
</g>
<g>
</g>
<g>
</g>
<g>
</g>
<g>
</g>
<g>
</g>
<g>
</g>
<g>
</g>
<g>
</g>
<g>
</g>
<g>
</g>
</svg>
