<?xml version="1.0" encoding="iso-8859-1"?>
<!-- Generator: Adobe Illustrator 19.0.0, SVG Export Plug-In . SVG Version: 6.00 Build 0)  -->
<svg version="1.1" id="Capa_1" xmlns="http://www.w3.org/2000/svg" xmlns:xlink="http://www.w3.org/1999/xlink" x="0px" y="0px"
	 viewBox="0 0 512.004 512.004" style="enable-background:new 0 0 512.004 512.004;" xml:space="preserve">
<path style="fill:#FFCE55;" d="M504.501,203.311c0,26.28-0.28,54.52-1.26,72.23c-0.1,1.68-2.61,3.38-3.39,1.88
	c-5.26-10.08-14.09-18.29-25.35-24.98c-39.2-23.3-107.78-28.11-157-28.41v-30c0,0,104.76-1.42,157-29.19
	c12.25-6.51,21.62-14.46,26.07-24.19c0.75-1.63,3.5,0.11,3.52,1.9C504.221,152.091,504.501,176.691,504.501,203.311z"/>
<path style="fill:#FFBC38;" d="M504.501,203.311c0,26.28-0.28,54.52-1.26,72.23c-0.1,1.68-2.61,3.38-3.39,1.88
	c-5.26-10.08-14.09-18.29-25.35-24.98v-87.6c12.25-6.51,21.62-14.46,26.07-24.19c0.75-1.63,3.5,0.11,3.52,1.9
	C504.221,152.091,504.501,176.691,504.501,203.311z"/>
<g>
	<rect x="152.001" y="174.001" style="fill:#FFA440;" width="30" height="198"/>
	<rect x="204.001" y="174.001" style="fill:#FFA440;" width="30" height="198"/>
	<rect x="256.001" y="174.001" style="fill:#FFA440;" width="30" height="198"/>
</g>
<rect x="37.501" y="194.001" style="fill:#FFCE55;" width="280" height="30"/>
<rect x="7.501" y="184.411" style="fill:#FFA440;" width="30" height="48"/>
<path style="fill:#FFCE55;" d="M345.661,194.001h-252c-13.26,0-24,10.75-24,24v92c0,13.25,10.74,24,24,24h252
	c13.25,0,24-10.75,24-24v-92C369.661,204.751,358.911,194.001,345.661,194.001z M339.661,304.001h-240v-80h240V304.001z"/>
<path style="fill:#FFBC38;" d="M345.661,194.001h-30c13.25,0,24,10.75,24,24v6v80v6c0,13.25-10.75,24-24,24h30
	c13.25,0,24-10.75,24-24v-92C369.661,204.751,358.911,194.001,345.661,194.001z"/>
<path d="M345.652,201.498c9.098,0,16.5,7.402,16.5,16.5V310c0,9.098-7.402,16.5-16.5,16.5h-13.239c-4.142,0-7.5,3.358-7.5,7.5
	s3.358,7.5,7.5,7.5h13.239c17.369,0,31.5-14.131,31.5-31.501v-75.584c13.589,1.338,26.235,3.131,37.66,5.36
	c0.485,0.095,0.968,0.14,1.444,0.14c3.516,0,6.655-2.485,7.353-6.066c0.793-4.066-1.86-8.004-5.926-8.797
	c-12.3-2.399-25.909-4.315-40.531-5.713v-1.341c0-7.542-2.667-14.472-7.104-19.901c12.057-1.268,25.257-2.998,38.554-5.364
	c42.621-7.585,72.151-19.141,88.161-34.453c0.243,25.18,0.498,70.823-0.406,101.743c-10.577-10.982-26.225-19.954-46.745-26.773
	c-3.931-1.309-8.176,0.821-9.482,4.752s0.821,8.176,4.752,9.483c24.794,8.239,41.049,19.478,48.31,33.395
	c1.508,2.902,4.419,4.619,7.591,4.619c0.616,0,1.244-0.065,1.872-0.199c4.339-0.924,7.807-4.928,8.07-9.343
	c1.966-35.395,1.156-111.137,0.861-133.493c-0.051-4.59-3.543-8.787-8.122-9.764c-4.021-0.855-8.013,1.122-9.717,4.827
	c-8.09,17.677-38.44,31.661-87.772,40.439c-40.149,7.144-79.495,8.359-87.181,8.533h-25.295l0,0v-12.5c0-4.142-3.358-7.5-7.5-7.5
	h-7.5v-12h7.5c4.142,0,7.5-3.358,7.5-7.5s-3.358-7.5-7.5-7.5h-30c-4.142,0-7.5,3.358-7.5,7.5s3.358,7.5,7.5,7.5h7.5v12h-7.5
	c-4.142,0-7.5,3.358-7.5,7.5v12.5h-7v-12.5c0-4.142-3.358-7.5-7.5-7.5h-7.5v-12h7.5c4.142,0,7.5-3.358,7.5-7.5s-3.358-7.5-7.5-7.5
	h-30c-4.142,0-7.5,3.358-7.5,7.5s3.358,7.5,7.5,7.5h7.5v12h-7.5c-4.142,0-7.5,3.358-7.5,7.5v12.5h-7v-12.5
	c0-4.142-3.358-7.5-7.5-7.5h-7.5v-12h7.5c4.142,0,7.5-3.358,7.5-7.5s-3.358-7.5-7.5-7.5h-30c-4.142,0-7.5,3.358-7.5,7.5
	s3.358,7.5,7.5,7.5h7.5v12h-7.5c-4.142,0-7.5,3.358-7.5,7.5v12.5l0,0H45v-2.095c0-4.142-3.358-7.5-7.5-7.5h-30
	c-4.142,0-7.5,3.358-7.5,7.5v48.001c0,4.142,3.358,7.5,7.5,7.5h30c4.142,0,7.5-3.358,7.5-7.5V231.5h17.155v3.875
	c0,4.142,3.358,7.5,7.5,7.5s7.5-3.358,7.5-7.5V218c0-0.032,0,0.033,0,0s0,0.032,0,0l0,0c0-9.098,7.402-16.5,16.5-16.5h251.997
	 M30.001,224.903h-15v-33.001h15v2.095v30.001V224.903z M62.194,216.498H45v-15h21.836C64.118,205.9,62.452,211.017,62.194,216.498z
	 M263.497,181.497h15v5h-15V181.497z M211.498,181.497h15v5h-15V181.497z M159.499,181.497h15v5h-15V181.497z"/>
<path d="M300.08,326.5H93.655c-9.098,0-16.5-7.402-16.5-16.5v-42.126c0-4.142-3.358-7.5-7.5-7.5s-7.5,3.358-7.5,7.5V310
	c0,17.369,14.131,31.501,31.5,31.501h50.844v30.5c0,4.142,3.358,7.5,7.5,7.5h30c4.142,0,7.5-3.358,7.5-7.5V341.5h7v30.501
	c0,4.142,3.358,7.5,7.5,7.5h30c4.142,0,7.5-3.358,7.5-7.5V341.5h7v30.501c0,4.142,3.358,7.5,7.5,7.5h30c4.142,0,7.5-3.358,7.5-7.5
	V341.5h6.583c4.142,0,7.5-3.358,7.5-7.5C307.58,329.858,304.223,326.5,300.08,326.5z M174.499,364.501h-15v-23h15V364.501z
	 M226.498,364.501h-15v-23h15V364.501z M278.497,364.501h-15v-23h15V364.501z"/>
<path d="M99.655,311.5h239.997c4.142,0,7.5-3.358,7.5-7.5v-80.001c0-4.142-3.358-7.5-7.5-7.5h-22.155H99.66h-0.005
	c-4.142,0-7.5,3.358-7.5,7.5V304C92.155,308.142,95.513,311.5,99.655,311.5z M248.498,296.5h-7v-65.001h7V296.5z M263.497,231.498
	h15v65.001h-15V231.498z M226.498,296.5h-15v-65.001h15V296.5z M196.498,296.5h-7v-65.001h7V296.5z M174.499,296.5h-15v-65.001h15
	V296.5z M332.152,231.498v65.001h-38.655v-65.001h24L332.152,231.498L332.152,231.498z M144.499,231.498v65.001h-37.344v-65.001
	L144.499,231.498L144.499,231.498z"/>
<g>
</g>
<g>
</g>
<g>
</g>
<g>
</g>
<g>
</g>
<g>
</g>
<g>
</g>
<g>
</g>
<g>
</g>
<g>
</g>
<g>
</g>
<g>
</g>
<g>
</g>
<g>
</g>
<g>
</g>
</svg>
