<?xml version="1.0" encoding="iso-8859-1"?>
<!-- Generator: Adobe Illustrator 19.0.0, SVG Export Plug-In . SVG Version: 6.00 Build 0)  -->
<svg version="1.1" id="Capa_1" xmlns="http://www.w3.org/2000/svg" xmlns:xlink="http://www.w3.org/1999/xlink" x="0px" y="0px"
	 viewBox="0 0 512 512" style="enable-background:new 0 0 512 512;" xml:space="preserve">
<path style="fill:#FFCE55;" d="M436.998,282.04v128.464c0,51.913-42.132,93.996-94.105,93.996h-57.229
	c-59.851,0-110.445-44.268-118.32-103.53C151.111,278.811,119.458,83.886,75.985,17.309c-2.582-3.949,0.2-9.188,4.924-9.268
	c46.423-0.78,220.712-0.7,267.135,0.13c4.715,0.08,7.497,5.329,4.915,9.268c-43.291,66.159-76.881,269.308-92.679,381.195
	c-5.658,40.074,25.513,75.873,66.031,75.873l0,0c36.886,0,66.788-29.867,66.788-66.71V282.05c0-23.552-19.115-42.645-42.695-42.645
	l0,0c-18.665,0-33.797,15.114-33.797,33.758v115.079h-30.029v-115.09c0-35.203,28.571-63.74,63.814-63.74h13.893
	C404.443,209.412,436.998,241.929,436.998,282.04z"/>
<g>
	<path style="fill:#FFBC38;" d="M317.293,8.171c4.715,0.08,7.497,5.329,4.915,9.268c-43.291,66.158-76.881,269.308-92.679,381.195
		c-5.658,40.074,25.513,75.873,66.031,75.873l0,0c5.286,0,10.422-0.632,15.354-1.792c-32.66-7.689-55.551-39.264-50.635-74.081
		c15.798-111.887,49.388-315.037,92.679-381.195c2.583-3.939-0.2-9.188-4.915-9.268c-26.885-0.481-96.654-0.71-159.637-0.666
		C241.999,7.542,294.739,7.768,317.293,8.171z"/>
	<path style="fill:#FFBC38;" d="M364.286,209.412h-13.788c40.158,0,63.289,32.517,63.289,72.628v128.464
		c0,51.913-49.672,93.996-101.645,93.996h30.75c51.973,0,94.105-42.083,94.105-93.996V282.04
		C436.998,241.929,404.444,209.412,364.286,209.412z"/>
</g>
<path style="fill:#FFA440;" d="M301.756,327.113h-46.973c-15.679,0-31.035-4.326-44.408-12.512l-34.845-21.326
	c-9.286-5.684-19.949-8.688-30.837-8.688h-39.467c-7.18,0-13-5.82-13-13s5.82-13,13-13h39.467c15.68,0,31.036,4.326,44.409,12.512
	l34.845,21.326c9.286,5.684,19.949,8.688,30.836,8.688h46.973c7.18,0,13,5.82,13,13S308.936,327.113,301.756,327.113z"/>
<path style="fill:#FFBC38;" d="M356.552,437.434h-38.074c-17.589,0-31.899-14.297-31.899-31.87v-93.221
	c0-17.572,14.31-31.869,31.899-31.869h38.075c17.589,0,31.899,14.297,31.899,31.869v93.221
	C388.452,423.137,374.142,437.434,356.552,437.434z M318.478,310.474c-1.032,0-1.872,0.839-1.872,1.869v93.221
	c0,1.031,0.84,1.87,1.872,1.87h38.075c1.032,0,1.872-0.839,1.872-1.87v-93.221c0-1.03-0.84-1.869-1.872-1.869H318.478z"/>
<path style="fill:#FFA440;" d="M356.552,280.474h-30.028c17.589,0,31.899,14.297,31.899,31.869v93.221
	c0,17.573-14.31,31.87-31.899,31.87h30.028c17.589,0,31.899-14.297,31.899-31.87v-93.221
	C388.452,294.771,374.142,280.474,356.552,280.474z"/>
<path style="fill:#FFCE55;" d="M108.747,292.851h-24v-44h24c3.314,0,6,2.686,6,6v32
	C114.747,290.164,112.061,292.851,108.747,292.851z"/>
<path d="M364.286,201.909h-13.901c-21.453,0-40.709,9.526-53.793,24.552c12.359-62.404,25.07-112.709,37.951-150.086
	c1.35-3.916-0.731-8.185-4.648-9.534c-3.92-1.354-8.186,0.73-9.534,4.647c-17.636,51.175-34.905,125.893-51.348,222.122h-14.229
	c-9.507,0-18.819-2.621-26.925-7.577l-34.849-21.329c-12.509-7.662-26.623-12.207-41.191-13.33
	c-21.242-118.137-44.136-197.441-68.1-235.878c49.039-0.72,212.661-0.641,261.499,0.127c-4.382,7.026-8.786,15.57-13.114,25.443
	c-1.663,3.794,0.064,8.217,3.859,9.88c3.791,1.663,8.217-0.065,9.88-3.858c4.476-10.211,8.981-18.805,13.388-25.54
	c2.69-4.108,2.933-9.358,0.632-13.701c-2.3-4.343-6.779-7.093-11.683-7.177C302.075-0.155,127.135-0.24,80.772,0.538
	c-4.921,0.084-9.407,2.837-11.708,7.185c-2.297,4.341-2.051,9.589,0.635,13.685c22.863,35.017,45.929,114.339,66.824,229.681
	h-14.828c-1.634-5.618-6.818-9.739-12.957-9.739h-24c-4.143,0-7.5,3.357-7.5,7.5v44c0,4.143,3.358,7.5,7.5,7.5h24.001
	c5.588,0,10.392-3.411,12.442-8.261h22.433c5.692,34.424,11.168,71.349,16.293,109.868c3.042,22.906,12.274,44.52,26.697,62.505
	c1.481,1.848,3.658,2.808,5.856,2.808c1.646,0,3.304-0.539,4.688-1.649c3.232-2.591,3.75-7.312,1.158-10.543
	c-12.711-15.85-20.847-34.902-23.529-55.097c-4.922-36.997-10.169-72.532-15.621-105.817c4.357,1.273,8.546,3.118,12.453,5.513
	l34.847,21.317c14.54,8.907,31.253,13.615,48.329,13.615h7.487c-3.227,20.356-6.39,41.496-9.423,62.971
	c-2.998,21.23,3.352,42.695,17.421,58.89c14.1,16.231,34.524,25.539,56.037,25.539c19.837,0,38.493-7.718,52.533-21.734
	c14.032-14.019,21.759-32.655,21.759-52.476v-125.75c0-27.652-22.52-50.15-50.2-50.15c-11.033,0-21.401,4.292-29.19,12.082
	c-7.804,7.791-12.101,18.152-12.101,29.178v0.947c-5.567,1.362-10.669,3.91-15.031,7.359v-8.316
	c0-31.011,25.261-56.241,56.311-56.241h13.901c35.958,0,65.212,29.217,65.212,65.13v4.978c0,4.143,3.357,7.5,7.5,7.5
	s7.5-3.357,7.5-7.5v-4.978C444.498,237.855,408.515,201.909,364.286,201.909z M107.238,285.349h-15v-29h15V285.349z
	 M214.286,308.201l-34.844-21.316c-10.453-6.409-22.469-9.797-34.752-9.797h-22.452v-11h22.452c14.303,0,28.301,3.944,40.485,11.406
	l34.854,21.332c10.465,6.399,22.483,9.782,34.753,9.782h20.557c0.004,0,0.008,0.001,0.012,0.001c0.007,0,0.014-0.001,0.022-0.001
	h3.7v3.732v7.268h-24.291C240.473,319.609,226.471,315.665,214.286,308.201z M326.305,467.01c-17.166,0-33.463-7.427-44.712-20.376
	c-11.219-12.914-16.283-30.029-13.892-46.955c3.138-22.223,6.417-44.073,9.76-65.069h1.614v53.63v17.323
	c0,21.709,17.675,39.37,39.4,39.37h38.076c7.206,0,13.96-1.952,19.778-5.341c-2.302,3.597-4.997,6.978-8.091,10.07
	C357.032,460.848,342.14,467.01,326.305,467.01z M350.396,246.899c19.41,0,35.2,15.768,35.2,35.15v3.724
	c-7.208-7.861-17.56-12.8-29.046-12.8h-32.441c0.048-6.944,2.774-13.464,7.699-18.38
	C336.769,249.631,343.37,246.899,350.396,246.899z M318.474,287.972h38.076c13.454,0,24.4,10.932,24.4,24.369v93.221
	c0,13.438-10.946,24.37-24.4,24.37h-38.076c-13.454,0-24.4-10.933-24.4-24.37V388.24v-75.898
	C294.074,298.904,305.02,287.972,318.474,287.972z"/>
<path d="M436.998,311.517c-4.143,0-7.5,3.357-7.5,7.5V410.5c0,47.697-38.855,86.5-86.613,86.5h-57.221
	c-23.728,0-46.411-7.337-65.596-21.217c-3.356-2.429-8.044-1.676-10.473,1.68c-2.429,3.356-1.676,8.045,1.68,10.473
	C233.035,503.679,258.758,512,285.664,512h57.221c56.03,0,101.613-45.532,101.613-101.501v-91.483
	C444.498,314.874,441.14,311.517,436.998,311.517z"/>
<path d="M318.474,414.933h38.076c5.167,0,9.371-4.203,9.371-9.37v-93.221c0-5.166-4.204-9.369-9.371-9.369h-38.076
	c-5.167,0-9.371,4.203-9.371,9.369v93.221C309.103,410.73,313.307,414.933,318.474,414.933z M350.921,399.933h-26.818v-11.655
	c0-0.013,0.002-0.025,0.002-0.039v-70.267h26.816L350.921,399.933L350.921,399.933z"/>
<g>
</g>
<g>
</g>
<g>
</g>
<g>
</g>
<g>
</g>
<g>
</g>
<g>
</g>
<g>
</g>
<g>
</g>
<g>
</g>
<g>
</g>
<g>
</g>
<g>
</g>
<g>
</g>
<g>
</g>
</svg>
