<?xml version="1.0" encoding="iso-8859-1"?>
<!-- Generator: Adobe Illustrator 19.0.0, SVG Export Plug-In . SVG Version: 6.00 Build 0)  -->
<svg version="1.1" id="Capa_1" xmlns="http://www.w3.org/2000/svg" xmlns:xlink="http://www.w3.org/1999/xlink" x="0px" y="0px"
	 viewBox="0 0 512 512" style="enable-background:new 0 0 512 512;" xml:space="preserve">
<rect x="7.5" y="146" style="fill:#E8E6E1;" width="60" height="340"/>
<rect x="37.5" y="146" style="fill:#CFCDC8;" width="30" height="340"/>
<rect x="444.5" y="146" style="fill:#E8E6E1;" width="60" height="235.69"/>
<rect x="474.5" y="146" style="fill:#CFCDC8;" width="30" height="235.69"/>
<rect x="226" y="146" style="fill:#E8E6E1;" width="60" height="283.08"/>
<rect x="256" y="146" style="fill:#CFCDC8;" width="30" height="283.08"/>
<rect x="115" y="146" style="fill:#E8E6E1;" width="60" height="310.24"/>
<rect x="145" y="146" style="fill:#CFCDC8;" width="30" height="310.24"/>
<rect x="337" y="146" style="fill:#E8E6E1;" width="60" height="258.3"/>
<rect x="367" y="146" style="fill:#CFCDC8;" width="30" height="258.3"/>
<rect x="7.5" y="80" style="fill:#A66856;" width="497" height="30"/>
<rect x="473.5" y="80" style="fill:#8F5040;" width="31" height="30"/>
<path d="M504.5,117.5c4.142,0,7.5-3.358,7.5-7.5V80c0-4.142-3.358-7.5-7.5-7.5H331.504c-3.579-9.688-9.657-21.76-19.783-32.027
	C297.339,25.893,278.592,18.5,256,18.5s-41.339,7.393-55.721,21.973C190.153,50.74,184.075,62.812,180.496,72.5H96
	c-4.142,0-7.5,3.358-7.5,7.5s3.358,7.5,7.5,7.5l0,0c0.019,0-0.019,0,0,0h401c0.008,0-0.008,0,0,0c0.009,0-0.009,0,0,0l0,0v15H15v-15
	h48.667c4.142,0,7.5-3.358,7.5-7.5s-3.358-7.5-7.5-7.5H7.5C3.358,72.5,0,75.858,0,80v30c0,4.142,3.358,7.5,7.5,7.5H30v21H7.5
	c-4.142,0-7.5,3.358-7.5,7.5v340c0,4.142,3.358,7.5,7.5,7.5h60c4.142,0,7.5-3.358,7.5-7.5V191.75c0-4.142-3.358-7.5-7.5-7.5
	s-7.5,3.358-7.5,7.5V478.5H15v-325h45v6.25c0,4.142,3.358,7.5,7.5,7.5s7.5-3.358,7.5-7.5V146c0-4.142-3.358-7.5-7.5-7.5H45v-21h92.5
	v21H115c-4.142,0-7.5,3.358-7.5,7.5v310.238c0,4.142,3.358,7.5,7.5,7.5h60c4.142,0,7.5-3.358,7.5-7.5V146c0-4.142-3.358-7.5-7.5-7.5
	h-22.5v-21h96v21H226c-4.142,0-7.5,3.358-7.5,7.5v237.833c0,4.142,3.358,7.5,7.5,7.5s7.5-3.358,7.5-7.5V153.5h45v268.081h-45v-5.747
	c0-4.142-3.358-7.5-7.5-7.5s-7.5,3.358-7.5,7.5v13.247c0,4.142,3.358,7.5,7.5,7.5h60c4.142,0,7.5-3.358,7.5-7.5V146
	c0-4.142-3.358-7.5-7.5-7.5h-22.5v-21h96v21H337c-4.142,0-7.5,3.358-7.5,7.5v258.301c0,4.142,3.358,7.5,7.5,7.5h60
	c4.142,0,7.5-3.358,7.5-7.5V146c0-4.142-3.358-7.5-7.5-7.5h-22.5v-21h92.25v21H444.5c-4.142,0-7.5,3.358-7.5,7.5v235.69
	c0,4.142,3.358,7.5,7.5,7.5h60c4.142,0,7.5-3.358,7.5-7.5V146c0-4.142-3.358-7.5-7.5-7.5h-22.75v-21H504.5z M256,33.5
	c34.831,0,51.5,21.363,59.328,39H196.672C204.5,54.863,221.169,33.5,256,33.5z M167.5,448.738h-45V153.5h45V448.738z M389.5,396.801
	h-45V153.5h45V396.801z M497,374.19h-45V153.5h45V374.19z"/>
<g>
</g>
<g>
</g>
<g>
</g>
<g>
</g>
<g>
</g>
<g>
</g>
<g>
</g>
<g>
</g>
<g>
</g>
<g>
</g>
<g>
</g>
<g>
</g>
<g>
</g>
<g>
</g>
<g>
</g>
</svg>
