<?xml version="1.0" encoding="UTF-8" standalone="no"?>
<svg
   xmlns:dc="http://purl.org/dc/elements/1.1/"
   xmlns:cc="http://creativecommons.org/ns#"
   xmlns:rdf="http://www.w3.org/1999/02/22-rdf-syntax-ns#"
   xmlns:svg="http://www.w3.org/2000/svg"
   xmlns="http://www.w3.org/2000/svg"
   xmlns:sodipodi="http://sodipodi.sourceforge.net/DTD/sodipodi-0.dtd"
   xmlns:inkscape="http://www.inkscape.org/namespaces/inkscape"
   id="Layer_1"
   enable-background="new 0 0 512.02 512.02"
   height="26.654331"
   viewBox="0 0 31.737156 26.655372"
   width="31.735916"
   version="1.1"
   sodipodi:docname="vidas.svg"
   inkscape:version="0.92.4 (5da689c313, 2019-01-14)">
  <metadata
     id="metadata25">
    <rdf:RDF>
      <cc:Work
         rdf:about="">
        <dc:format>image/svg+xml</dc:format>
        <dc:type
           rdf:resource="http://purl.org/dc/dcmitype/StillImage" />
      </cc:Work>
    </rdf:RDF>
  </metadata>
  <defs
     id="defs23">
    <inkscape:perspective
       sodipodi:type="inkscape:persp3d"
       inkscape:vp_x="0 : 166.06871 : 1"
       inkscape:vp_y="0 : 999.99998 : 0"
       inkscape:vp_z="372.79166 : 166.06871 : 1"
       inkscape:persp3d-origin="186.39583 : 110.71247 : 1"
       id="perspective5841" />
  </defs>
  <sodipodi:namedview
     pagecolor="#ffffff"
     bordercolor="#666666"
     borderopacity="1"
     objecttolerance="10"
     gridtolerance="10"
     guidetolerance="10"
     inkscape:pageopacity="0"
     inkscape:pageshadow="2"
     inkscape:window-width="1650"
     inkscape:window-height="872"
     id="namedview21"
     showgrid="false"
     inkscape:zoom="14.75"
     inkscape:cx="22.691496"
     inkscape:cy="20.770191"
     inkscape:window-x="0"
     inkscape:window-y="0"
     inkscape:window-maximized="0"
     inkscape:current-layer="Layer_1" />
  <g
     id="g5835"
     transform="matrix(0.09108099,0,0,0.08871249,-5.2391126,-18.555335)">
    <path
       d="m 283.93645,228.42556 c -12.632,3.751 -24.519,10.574 -34.446,20.469 -5.866,5.846 -13.631,9.053 -21.532,9.089 -7.901,-0.036 -15.667,-3.243 -21.532,-9.089 -20.855,-20.788 -50.365,-28.018 -77.24,-21.689 -30.652002,7.219 -56.106002,33.015 -63.303002,63.605 -20.864,88.678 111.520002,200.363 162.076002,211.353 50.556,-10.99 182.939,-122.675 162.076,-211.353 -0.56,-2.379 -1.23,-4.73 -2.004,-7.044 -9.183,-27.446 -33.03,-49.903 -61.298,-56.56 -14.085,-3.318 -28.891,-2.911 -42.797,1.219 z"
       id="path4"
       inkscape:connector-curvature="0"
       style="clip-rule:evenodd;fill:#ff9eb1;fill-rule:evenodd" />
    <path
       d="m 477.28711,175.38477 c -10e-5,0.93493 0.004,1.86981 0.006,2.80468 0.02,-0.93556 0.0292,-1.87057 -0.006,-2.80468 z m -217.84766,23.30078 c -0.0678,0.0541 -0.23107,0.11373 -0.17383,0.0957 0.0692,-0.0218 0.12233,-0.057 0.17383,-0.0957 z m 10.23047,1.3125 c -0.002,0.004 -0.003,0.008 -0.006,0.0117 0.0177,-3.6e-4 0.0308,-6e-4 0.0488,0 -0.0144,-0.004 -0.0285,-0.008 -0.043,-0.0117 z m 20.56055,11.81445 c -0.0154,0.008 -0.03,0.0159 -0.0449,0.0234 -0.0712,0.051 -0.0922,0.0657 -0.13477,0.0977 0.0221,-0.003 0.0443,-0.003 0.0664,-0.006 0.0251,-0.0244 0.0474,-0.0513 0.0742,-0.0742 -0.005,8.8e-4 -0.009,0.003 -0.0137,0.004 -0.013,0.002 0.0159,-0.0157 0.0312,-0.0234 0.008,-0.006 0.0132,-0.0157 0.0215,-0.0215 z m 21.78125,0.57227 v 0.002 0.002 0.002 0.002 0.002 0.002 c -6.28199,-0.0774 -12.50481,0.49153 -18.58984,1.66211 -0.10379,0.23308 -0.37041,0.44113 -0.83594,0.50782 -0.26809,0.0384 -0.52544,0.0779 -0.79297,0.0996 -0.01,0.0224 -0.021,0.0442 -0.0312,0.0664 -0.44121,0.0734 -0.36599,0.0776 -0.59375,0.0606 -0.0608,0.0346 -0.12098,0.0707 -0.18164,0.10547 -0.0283,0.0293 -0.20713,0.0385 -0.36524,0.041 -0.16989,0.0672 -0.16769,0.0324 -0.23632,0.12696 -0.25438,0.13559 -0.52313,0.14588 -0.79688,0.1289 -0.21289,0.13924 -0.46807,0.15448 -0.72461,0.13867 -0.32248,0.18945 -0.67609,0.1375 -1.05078,0.11524 -0.0327,1.1e-4 -0.0651,-5.9e-4 -0.0977,0 -0.004,7e-5 -0.0427,8.6e-4 -0.0762,0.002 0.007,0.0505 -0.0943,0.0515 -0.14453,0.0703 -0.0198,0.007 -0.0405,0.013 -0.0606,0.0195 -0.0343,0.0265 -0.0855,0.0574 -0.11718,0.0723 -0.12562,0.0589 -0.25663,0.11087 -0.39258,0.13867 -0.0375,0.008 -0.0988,0.023 -0.1543,0.0332 -0.18567,0.0772 -0.37594,0.1 -0.57422,0.0918 -0.18733,0.17076 -0.4097,0.27534 -0.66992,0.30469 -0.0823,0.009 -0.1652,-0.006 -0.24805,-0.0117 -0.002,0.002 -0.005,0.004 -0.008,0.006 0.0328,-2.2e-4 0.0534,-0.009 0.0625,0.01 0.0141,0.029 -0.0598,0.0236 -0.0898,0.0351 -0.0145,0.004 -0.0411,0.0138 -0.0625,0.0215 -0.22909,0.1652 -0.52705,0.20345 -0.8125,0.18945 -0.0815,0.0505 -0.19123,0.0849 -0.2793,0.10547 -0.0187,0.0136 -0.0511,0.0297 -0.0762,0.0449 0.091,-0.0848 -0.33441,0.14049 -0.52149,0.16992 -0.14703,0.0607 -0.20236,0.0681 -0.47851,0.0879 -0.0393,-0.003 -0.078,-0.005 -0.11719,-0.008 -0.0594,0.0376 -0.11751,0.0788 -0.18359,0.10156 -0.0409,0.0141 -0.0859,0.0123 -0.12891,0.0176 -0.0233,0.0144 -0.0401,0.0282 -0.0625,0.0371 -0.10234,0.0409 -0.20443,0.0838 -0.3125,0.10547 -0.20125,0.0403 -0.41863,0.01 -0.61914,-0.0195 -0.1174,-0.017 -0.20734,-0.0538 -0.30078,-0.0879 -0.12817,0.0537 -0.26037,0.10273 -0.44727,0.17969 -0.21916,0.0902 -0.43672,0.18798 -0.65625,0.27734 -0.2468,0.10046 -0.49435,0.1951 -0.74218,0.29297 -0.0493,0.0195 -0.0883,0.019 -0.13477,0.0332 -0.0539,0.15973 -0.14132,0.23435 -0.31836,0.25 -0.075,0.0457 -0.14625,0.0826 -0.20312,0.0586 -0.11271,0.12639 -0.24451,0.26105 -0.27344,0.29102 0.34168,-0.0535 -0.0133,0.0374 -0.34961,0.0937 -0.10094,0.0889 -0.22565,0.14836 -0.34375,0.20117 0.0332,0.0831 -0.0287,0.18638 -0.24805,0.32227 -0.16162,0.10015 -0.29362,0.14347 -0.46093,0.17773 -0.049,0.0747 -0.11209,0.15215 -0.21485,0.21289 -0.16042,0.0948 -0.3617,0.0937 -0.54687,0.11914 -0.14447,0.16559 -0.24349,0.25601 -0.46289,0.3125 -0.21553,0.0555 -0.25437,0.0734 -0.29493,0.0723 -0.1597,0.0761 -0.31761,0.14637 -0.41796,0.15625 -0.0788,0.0543 -0.16131,0.10763 -0.23243,0.14453 -0.0274,0.0142 -0.0648,0.0406 -0.0996,0.0625 -1e-5,10e-4 1.9e-4,0.003 0,0.004 -0.11224,0.0716 -0.21402,0.16602 -0.33789,0.21484 -0.005,0.002 -0.0106,0.002 -0.0156,0.004 -0.16548,0.0983 -0.49184,0.19355 -0.65625,0.23632 -0.012,0.003 0.0131,-0.0116 0.0312,-0.0215 -0.009,0.003 -0.0168,0.007 -0.0254,0.01 -0.0442,0.0111 -0.10095,0.0425 -0.17774,0.084 -0.002,0.002 -0.005,0.002 -0.008,0.004 -0.007,0.004 -0.006,0.004 -0.0156,0.01 -0.0304,0.0152 0.007,-0.004 -0.0488,0.0215 -0.084,0.0378 -0.11045,0.047 -0.14649,0.0605 -0.0697,0.11945 0.10143,0.0567 -0.25781,0.21875 -0.0818,0.0369 -0.17045,0.0541 -0.25781,0.0762 -0.0505,0.0224 -0.035,0.025 -0.16992,0.0859 -0.005,0.002 0.01,-0.017 0.004,-0.0176 -0.0181,-0.002 -0.0379,0.006 -0.0547,0.0137 -0.24336,0.1016 -0.35083,0.17863 -0.16992,0.0586 -0.10718,0.0689 -0.47203,0.24194 -0.60937,0.25586 -0.0151,0.008 -0.0269,0.01 -0.041,0.0156 -9.38285,4.43551 -18.08629,10.48748 -25.70117,18.07813 -3.96685,3.95486 -9.12299,6.14685 -14.42578,6.17187 -5.3948,-0.024 -10.54971,-2.21801 -14.51758,-6.17187 -10.26561,-10.23262 -22.45786,-17.70701 -36.23633,-22.21484 -5.24781,-1.71295 -10.89635,1.14579 -12.61328,6.39648 -1.71694,5.24879 1.14573,10.89532 6.39453,12.61328 10.7746,3.52386 20.30729,9.36939 28.33399,17.3711 7.71771,7.6927 17.85708,11.95488 28.63867,12.0039 10.68958,-0.049 20.82627,-4.31215 28.54297,-12.00586 20.30624,-20.23924 51.60532,-26.53064 78.19531,-15.74804 22.39016,9.07965 40.008,29.30992 45.55078,52.87109 7.38072,31.36882 -7.8762,64.58744 -21.97265,86.93164 -16.45936,26.0899 -40.87409,52.85309 -68.75,75.36523 -23.07723,18.62642 -46.37969,32.38799 -61.6211,36.46485 C 216.37131,485.49232 193.07211,471.73681 170,453.10352 142.12608,430.59094 117.70936,403.82815 101.25,377.73828 87.147688,355.38686 71.892579,322.17056 79.273438,290.80078 82.454313,277.27926 89.992221,264.20579 100.5,253.99219 c 3.95984,-3.84986 4.04907,-10.1799 0.19922,-14.14063 -3.849193,-3.95884 -10.17978,-4.04807 -14.140626,-0.19922 -13.400626,13.0265 -22.651066,29.12808 -26.753906,46.56641 -7.09787,30.16784 1.382191,65.50213 24.523437,102.18359 37.524515,59.47818 107.583745,113.05597 145.154295,121.22266 0.69997,0.152 1.41303,0.23047 2.125,0.23047 0.71197,0 1.42403,-0.0775 2.125,-0.23047 37.56953,-8.16669 107.62874,-61.74348 145.1543,-121.22266 23.14209,-36.68146 31.62311,-72.01575 24.52539,-102.18359 -0.036,-0.15399 -0.0802,-0.30403 -0.11719,-0.45703 0.0225,-0.0156 0.0456,-0.0328 0.0684,-0.0488 -0.008,-0.0202 -0.0219,-0.0325 -0.0254,-0.0586 -0.006,-0.0463 -0.0223,-0.0903 -0.0273,-0.13672 -0.002,-0.0145 0.001,-0.0285 -0.002,-0.043 -2.8e-4,-0.002 -0.003,0.006 -0.004,0.004 -0.005,-0.009 -0.007,-0.0213 -0.01,-0.0312 -0.01,-0.0319 -0.004,-0.0639 -0.002,-0.0957 -0.0524,-0.0183 -0.0972,-0.076 -0.084,-0.18164 h -0.002 c 0.004,-0.028 0.006,-0.056 0.01,-0.084 -0.007,-0.004 -2.7e-4,-0.002 0.002,-0.004 2.3e-4,-0.002 -2.3e-4,-0.004 0,-0.006 0.002,-0.0206 0.004,-0.0418 0.006,-0.0625 2e-4,-0.003 3.6e-4,-0.005 0,-0.01 -0.002,-0.008 -0.004,-0.0155 -0.006,-0.0234 -8e-5,-0.005 6e-5,-0.009 0,-0.0137 -3.3e-4,-0.0266 -1.5e-4,-0.0533 0,-0.0801 -0.019,0.005 -0.0302,0.0144 -0.0234,-0.0332 0.003,-0.0269 8e-4,-0.0532 0,-0.0801 v -0.002 c -0.0159,-0.0285 -0.0285,-0.0471 -0.0293,-0.0957 -4e-5,-0.002 10e-5,-0.003 0,-0.006 -0.014,-0.0277 -0.0344,-0.0648 -0.0234,-0.0859 0.008,-0.015 0.01,0.0338 0.01,0.0508 -6e-5,0.007 -0.009,-0.0112 -0.0117,-0.0176 -0.0254,-0.0599 -0.0181,-0.0489 -0.0215,-0.10938 5.2e-4,-0.006 -2.5e-4,-0.0131 0.002,-0.0195 -0.007,-0.0109 -0.0153,-0.0211 -0.0195,-0.0332 -0.007,-0.02 -0.006,-0.0415 -0.008,-0.0625 0.003,0.0143 -0.003,-0.0104 -0.002,-0.008 -0.0249,-0.0103 -0.052,-0.0118 -0.0762,-0.0469 -0.0141,-0.0205 -0.0147,-0.0463 -0.0215,-0.0703 -0.0258,-0.0908 0.0256,-0.0684 0.0859,-0.0312 -0.003,-0.0245 -0.004,-0.0487 -0.002,-0.0723 -0.009,-0.0137 -0.0181,-0.0276 -0.0234,-0.043 -0.003,-0.008 -0.003,-0.0168 -0.004,-0.0254 -0.006,-0.009 -0.007,-0.017 -0.0117,-0.0254 -0.0349,-0.0578 -0.0466,-0.10985 -0.0351,-0.18554 7.7e-4,-0.007 -0.001,-0.0257 0.002,-0.0195 0.0149,0.0414 0.0123,0.0467 0.0137,0.0586 0.002,-0.0189 0.006,-0.0378 0.006,-0.0566 -0.0122,-0.0212 -0.0109,-0.0467 -0.0156,-0.0703 6.1e-4,0.01 -0.008,0.004 -0.004,0.0195 -0.0234,-0.0467 -0.0303,-0.0923 -0.0312,-0.15039 -7e-5,-0.003 0.002,-0.006 0.002,-0.01 -0.016,-0.0395 -0.0297,-0.0668 -0.0215,-0.12305 2.7e-4,-0.0661 0.0132,0.0481 0.0176,0.0527 0.005,0.005 0.005,0.002 0.01,0.006 8.1e-4,-0.005 -1e-4,-0.0106 0.002,-0.0156 8.9e-4,-0.0133 -0.009,-0.0258 -0.008,-0.0391 -4e-5,-0.006 -0.002,-0.01 -0.002,-0.0156 -1.4e-4,-0.007 10e-4,-0.0213 -0.002,-0.043 -0.002,-0.003 -0.006,-0.0125 -0.0117,-0.0234 -0.0179,-0.0359 -0.0135,-0.0739 -0.0117,-0.11133 3.2e-4,-0.005 -0.002,-0.0103 -0.002,-0.0156 -0.021,-0.0572 -0.042,-0.12933 -0.0508,-0.18164 -0.002,-0.0118 -0.0117,-0.0233 -0.0117,-0.0351 -8.4e-4,-0.0548 -0.003,-0.11923 0.0117,-0.17188 0.008,0.004 0.004,0.003 -0.002,-0.0117 -0.0225,-0.0604 -0.0211,-0.0612 -0.0449,-0.12695 -0.003,-0.0418 -0.0235,-0.0773 -0.0332,-0.11914 -0.006,-0.0263 0.0117,-0.0556 0.0117,-0.082 0.003,-0.0151 0.0131,0.001 0.0117,-0.01 -0.009,-0.0224 -0.009,-0.0468 -0.0156,-0.0703 -0.0255,-0.0446 -0.0545,-0.0876 -0.0703,-0.13672 -0.0237,-0.0735 -0.0247,-0.12403 0.01,-0.16211 -0.005,-0.0111 -0.0104,-0.0217 -0.0137,-0.0332 -10e-4,-0.005 0.006,0.008 0.01,0.0117 -0.0132,-0.0231 -0.0269,-0.0467 -0.0391,-0.0703 -9.5e-4,-0.002 0.004,-0.01 0.004,-0.0117 -0.002,-0.007 -0.01,-0.0122 -0.0117,-0.0195 -0.0146,-0.0493 -0.0223,-0.0794 -0.0195,-0.12696 -0.001,-0.01 -0.002,-0.0199 -0.004,-0.0293 -0.004,-0.0163 -0.0144,-0.0302 -0.0137,-0.0469 2.8e-4,-0.007 0.01,0.018 0.0156,0.0137 5.5e-4,-4.1e-4 -0.0841,-0.11747 -0.0645,-0.13672 -0.003,-0.0469 -0.0192,-0.0895 -0.0312,-0.13476 -0.009,-0.031 -0.0175,-0.11668 -0.0176,-0.11719 -9.4e-4,-0.005 -0.002,0.0104 -0.002,0.0156 0.001,0.006 0.006,0.0212 0.004,0.0156 -0.0208,-0.0737 -0.036,-0.14843 -0.0762,-0.21484 -0.009,-0.0244 -0.01,-0.0433 -0.0137,-0.0586 -0.008,-0.0155 -0.0197,-0.0218 -0.0254,-0.041 h -0.002 c -0.007,-0.0236 -0.0145,-0.0467 -0.0215,-0.0703 -0.009,-0.029 -0.007,-0.0579 -0.0117,-0.0859 -0.0139,-0.0327 -0.0213,-0.0693 -0.0234,-0.10742 -0.004,-0.005 -0.002,9e-4 -0.0215,-0.0293 -0.017,-0.041 -0.0126,-0.0797 -0.0117,-0.11914 -0.0185,-0.0288 -0.0379,-0.0554 -0.0469,-0.0898 -0.003,-0.0106 0.0228,0.0231 0.0137,0.0293 -0.009,0.006 -0.0148,-0.0156 -0.0195,-0.0254 -0.0108,-0.0229 -0.017,-0.0485 -0.0254,-0.0723 0.001,0.0135 0.008,-0.014 0.008,-0.0176 -0.003,-0.002 -0.009,-0.01 -0.0117,-0.0117 -0.014,-0.0297 -0.0344,-0.0562 -0.043,-0.0879 3.1e-4,-0.0117 0.002,-0.0234 0.002,-0.0352 -0.002,-0.002 -0.009,-0.01 -0.0117,-0.0117 -0.0217,-0.042 -0.0466,-0.0773 -0.0566,-0.12304 -6.3e-4,-0.003 0.001,-0.007 -0.002,-0.0117 l -0.002,-0.0117 c -0.0357,-0.0296 -0.0375,-0.0822 -0.0586,-0.12109 -0.002,-0.004 -0.009,-0.007 -0.0117,-0.0117 -0.0258,-0.0399 -0.0228,-0.0412 -0.0371,-0.0937 3.1e-4,-0.006 0.002,-0.013 0.002,-0.0195 -0.0124,-0.005 -0.0218,-0.0145 -0.0293,-0.0254 -0.0179,-0.0257 -0.0302,-0.0543 -0.0449,-0.082 0.002,-0.0196 0.01,-0.039 0.0117,-0.0586 -0.002,-0.003 -0.01,-0.01 -0.0117,-0.0117 -0.0143,-0.0204 -0.0246,-0.0408 -0.0371,-0.0625 -0.11229,0.16357 10e-4,-0.0598 -0.0137,-0.084 v -0.0117 c -0.007,-0.006 -0.0223,-0.0265 -0.0156,-0.0215 0.001,9.8e-4 0.15089,0.16987 -0.0352,-0.041 -0.0343,-0.18986 -0.008,0.0127 -0.0117,-0.12696 -1.2e-4,-0.005 -0.0104,0.003 -0.0137,0 -0.009,-0.009 -0.0164,-0.0185 -0.0234,-0.0293 -0.01,-0.0152 -0.02,-0.0312 -0.0293,-0.0469 -1.1e-4,0.0109 0.002,-0.0225 -0.004,-0.0508 -0.0187,-0.0129 -0.0267,-0.0372 -0.0391,-0.0566 0.0153,-0.002 -0.005,-0.0415 -0.0156,-0.0762 -0.002,0.007 -5e-4,0.0132 -0.0176,-0.0488 -9.3e-4,-0.003 0.001,-0.008 -0.004,-0.0117 -0.0281,-0.0286 -0.0458,-0.0752 -0.0508,-0.0957 -0.005,-0.0187 -1.5e-4,-0.0374 0,-0.0566 6.8e-4,-0.004 -10e-4,-0.008 0.002,-0.0117 -0.003,-0.004 -0.009,-0.009 -0.0117,-0.0137 -0.0386,-0.0123 -0.077,-0.0394 -0.10546,-0.10547 -0.013,-0.0301 -0.0275,-0.0557 -0.0391,-0.0899 -0.0191,-0.0505 -0.0336,-0.0935 -0.0293,-0.14843 3.6e-4,-0.004 -10e-4,-0.008 0.002,-0.0117 -10e-4,-0.003 -0.003,-0.0121 -0.002,-0.0117 l 0.0117,0.0117 c 6.5e-4,-10e-4 -2.4e-4,-0.0107 0,-0.0117 -0.0303,-0.0429 -0.0424,-0.0842 -0.041,-0.13867 0.006,0.0172 0.006,-0.0109 0.006,-0.0391 -0.005,-0.004 -0.01,-0.01 -0.0137,-0.0156 -0.01,-0.0158 -0.0165,-0.0325 -0.0254,-0.0488 -0.0495,-0.0656 -0.0412,-0.13138 -0.0332,-0.20117 -0.003,-0.005 -0.009,-0.007 -0.0117,-0.0117 -0.0349,-0.0541 -0.0497,-0.11195 -0.0625,-0.17383 -0.0334,-0.0401 -0.0412,-0.0903 -0.0547,-0.13867 -3.4e-4,-0.001 -0.002,0.009 -0.002,0.01 9.2e-4,0.006 0.002,0.0119 0.004,0.0176 -0.003,-0.004 -0.009,-0.01 -0.0117,-0.0137 -0.0454,-0.0349 -0.0564,-0.0619 -0.0664,-0.12304 -0.003,-0.0166 0.0117,-0.034 0.0117,-0.0508 0,-0.008 -0.0107,0.014 -0.0117,0.0215 -0.002,-0.007 -0.009,-0.0117 -0.0117,-0.0176 -7.8e-4,-0.001 -0.003,0.004 -0.004,0.002 -0.0198,-0.0276 -0.0326,-0.0622 -0.0371,-0.0957 v -0.002 c -0.0304,-0.0375 -0.0514,-0.0898 -0.0625,-0.12891 -0.008,-0.0329 -0.005,-0.0668 -0.002,-0.0996 -0.0296,-0.0586 -0.0231,-0.0654 -0.0234,-0.12304 v -0.002 c 7e-5,-0.004 -0.002,-0.008 -0.002,-0.0117 2.4e-4,-0.003 9e-5,-0.009 0,-0.0117 -0.0615,-0.0746 -0.073,-0.13038 -0.0664,-0.22071 -0.002,-0.006 -0.01,-0.011 -0.0117,-0.0176 l -0.004,0.002 c -0.0107,-0.0217 -0.0135,-0.0442 -0.0176,-0.0684 h 0.002 v -0.008 c -9.5e-4,-0.004 -0.005,-0.008 -0.006,-0.0117 -0.002,-0.0157 -0.0102,-0.0591 0,-0.0469 0.0583,0.07 0.0229,0.0658 0.006,0.0586 -0.007,-0.003 0.0351,0.0182 0.0391,0.0195 0.003,-0.0153 0.01,-0.0302 0.0156,-0.0449 -0.008,-0.003 -0.0135,-0.009 -0.0215,-0.0117 -0.08,-0.0716 -0.0611,-0.0345 -0.0859,-0.14063 l -0.01,-0.004 c -0.0292,-0.0407 -0.0243,-0.0332 -0.043,-0.0996 -0.003,-0.0103 0.003,-0.0217 0,-0.0312 -0.004,-0.0132 -0.0156,-0.0254 -0.0156,-0.0391 -0.0159,-0.0216 -0.0333,-0.0463 -0.0391,-0.0586 -0.006,-0.0133 -0.0236,-0.0577 -0.0195,-0.082 3.1e-4,-0.002 0.0117,-0.003 0.0117,-0.004 -0.004,-0.0128 -0.01,-0.0249 -0.0156,-0.0371 0.004,0.005 0.0147,0.0184 0.0117,0.0137 -0.0383,-0.0566 -0.064,-0.0958 -0.0664,-0.16601 -1.4e-4,-0.004 0.004,-0.0117 0.008,-0.0117 0.005,-3.9e-4 0.008,0.009 0.0117,0.0117 0.006,0.002 0.0216,0.01 0.0176,0.01 -0.0787,-0.0939 -0.0787,-0.0376 -0.0879,-0.15625 -8.3e-4,-0.0109 -10e-4,-0.0399 0.0137,-0.0449 -0.0262,-0.0726 -0.075,-0.13961 -0.0801,-0.21875 -5.5e-4,-0.006 -0.0117,-0.0113 -0.0117,-0.0176 -0.0125,-0.0199 -0.0152,-0.043 -0.0215,-0.0664 -0.001,-0.001 -0.002,-0.005 -0.004,-0.006 v -0.002 h -0.002 v -0.002 l -0.002,-0.002 v -0.002 l -0.002,-0.002 -0.0117,-0.002 -0.002,-0.002 -0.0117,-0.0117 -0.0117,-0.0117 -0.002,-0.002 -0.002,-0.002 c -0.001,-9.8e-4 10e-4,-0.0107 -0.002,-0.0117 v -0.0117 l -0.008,-0.002 -0.002,-0.0117 -0.002,-0.0117 c 0.0202,0.006 -0.0235,-0.007 -0.0508,-0.0508 -0.11263,-0.18069 -0.0147,-0.0765 -0.006,-0.0664 -0.0448,-0.049 -0.0484,-0.0606 -0.0703,-0.13672 -8.2e-4,-0.003 -0.001,-0.0117 0.004,-0.0117 -0.0306,-0.0122 -0.0481,-0.0294 -0.0703,-0.0937 v -0.002 l -0.004,-0.0117 c -0.01,-0.0247 -0.0175,-0.0528 -0.0254,-0.0781 l 0.002,-0.002 c 0.008,0.009 0.01,0.0206 0.01,0.0117 -0.007,-0.0134 -0.0132,-0.0276 -0.0195,-0.041 -0.0205,-0.0133 -0.0252,-0.0213 -0.0547,-0.0918 0.0174,0.0224 0.002,0.003 -0.0156,-0.0215 -0.0135,-0.0184 -0.0205,-0.0412 -0.0293,-0.0625 -0.003,-0.006 -0.0133,-0.0255 -0.0117,-0.0195 -0.008,-0.0114 -0.0123,-0.0135 -0.0137,-0.0273 -0.002,-0.0139 0.0152,0.0183 0.0254,0.0332 -0.0758,-0.0794 -0.0504,-0.0344 -0.082,-0.11719 0.0558,0.10043 -0.0423,-0.0846 -0.0469,-0.0957 -0.008,-0.025 -0.019,-0.0483 -0.0234,-0.0742 -1.3e-4,-5.8e-4 -0.01,-0.0245 -0.01,-0.0156 -0.0277,-0.044 -0.0403,-0.0771 -0.0488,-0.1211 -0.0177,-0.0158 -0.0371,-0.0306 -0.0488,-0.0508 -0.0125,-0.0215 -0.009,-0.0496 -0.0137,-0.0742 -0.003,-0.0177 0.004,0.0174 0.0117,0.0195 0.004,10e-4 -0.003,-0.008 -0.004,-0.0117 -0.01,-0.0168 -0.0195,-0.034 -0.0293,-0.0508 -0.0142,-0.0391 -0.0145,-0.0369 -0.0274,-0.0918 -0.002,-0.009 0.021,0.0306 0.0156,0.0234 -0.026,-0.0345 -0.023,-0.0454 -0.041,-0.10351 l -0.004,-0.01 c -0.0176,-0.0251 -0.0319,-0.0539 -0.008,-0.0176 -0.007,-0.0524 -0.003,-0.10637 -0.0215,-0.15625 -0.007,-0.0186 -0.0147,0.0389 -0.0137,0.0586 10e-4,0.0212 0.0191,0.0373 0.0195,0.0586 2.8e-4,0.0122 -0.0139,-0.0185 -0.0195,-0.0293 -0.0116,-0.0224 -0.0226,-0.0465 -0.0312,-0.0703 -0.009,-0.0257 -0.014,-0.0538 -0.0215,-0.0801 -0.0195,-0.0687 0.004,-0.11389 0.0371,-0.14843 -0.0419,-0.0573 -0.043,-0.0996 -0.0391,-0.16211 -7.8e-4,-10e-4 3.9e-4,-0.005 -0.002,-0.006 0.002,0.0156 0.003,0.031 0.006,0.0469 -0.0124,-0.0259 -0.0166,-0.0527 -0.0254,-0.0781 v -0.002 c -0.0189,-0.0351 -0.0139,-0.0222 -0.0254,-0.0645 -0.006,-0.0134 -0.0136,-0.0248 -0.0176,-0.0391 v -0.002 l -0.004,-0.002 c -0.0112,-0.0298 -0.0185,-0.0611 -0.0273,-0.0918 -8.6e-4,-0.003 0.0249,0.005 0.0117,0.006 10e-4,-0.0261 -0.0216,-0.0457 -0.0371,-0.0645 -0.0294,-0.0354 -0.0241,-0.0475 -0.041,-0.10547 0.008,1.8e-4 0.007,0.0122 0.0156,0.0117 -0.0307,-0.0428 -0.0381,-0.0616 -0.0488,-0.10156 l -0.002,-0.002 c -0.002,-0.001 -0.006,-0.005 -0.008,-0.008 -0.001,-10e-4 1.2e-4,-0.006 0,-0.008 0.003,0.004 0.007,0.008 0.01,0.0117 -0.002,-0.009 -0.007,-0.007 -0.01,-0.0195 4.1e-4,0.001 -2.4e-4,0.003 0,0.004 l -0.004,-0.002 c -0.0195,-0.0208 -0.0494,-0.0369 -0.041,-0.0723 -0.005,-0.0133 -0.0107,-0.0269 -0.0117,-0.041 -0.0107,-0.0104 -0.0205,-0.0199 -0.0293,-0.0312 -0.009,-0.0119 -0.0311,-0.0592 -0.0352,-0.0762 -0.005,-0.021 -0.009,-0.0429 -0.0117,-0.0644 0.0133,-0.006 -10e-4,-0.003 0.0176,0.0176 10e-4,10e-4 4.9e-4,-0.007 -0.002,-0.008 -0.0141,-0.0169 -0.0316,-0.03 -0.043,-0.0488 -0.0124,-0.0203 -0.0194,-0.0439 -0.0273,-0.0664 -8.2e-4,-0.002 -6e-5,-0.01 0,-0.0117 -0.004,-0.0158 -0.0171,-0.0734 -0.0176,-0.0801 -0.001,-0.0177 0.0167,0.0101 0.008,-0.0156 -0.0103,-0.0196 -0.0242,-0.0367 -0.0371,-0.0547 -0.002,-0.003 -0.009,-0.009 -0.0117,-0.0117 v -0.002 c -0.0126,-0.0389 -0.0218,-0.078 -0.0332,-0.11719 -0.0192,-0.0445 -0.0251,-0.0871 -0.0312,-0.13086 l -0.002,-0.002 c -0.0162,-0.0233 -0.036,-0.043 -0.0488,-0.0684 -0.0127,-0.025 -0.0379,-0.13874 -0.0391,-0.16797 -1.5e-4,-0.004 0.009,0.005 0.0117,0.008 0.004,0.003 0.008,0.008 0.0117,0.0117 -1.7e-4,-0.002 -7e-5,-0.002 0,-0.004 -0.0127,-0.012 -0.0257,-0.0237 -0.0371,-0.0371 -0.005,-0.006 -0.008,-0.0142 -0.0117,-0.0215 -0.0424,-0.0934 -0.062,-0.17006 -0.0547,-0.27539 0.001,-0.0191 0.01,-0.0269 0.0137,-0.043 -0.0107,-0.0319 -0.0652,-0.10573 -0.0762,-0.13086 -10e-4,-0.008 -0.004,-0.0156 -0.006,-0.0234 -0.0242,-0.0322 -0.0511,-0.0699 -0.0645,-0.0957 -0.011,-0.021 -0.0208,-0.0412 -0.0312,-0.0625 -0.0166,-0.0335 -0.0226,-0.0636 -0.0254,-0.0918 -0.006,-0.008 0.0122,0.0257 -0.0117,-0.0176 -0.01,-0.0176 -0.0155,-0.0355 -0.0215,-0.0547 -0.001,-0.004 0.01,0.0125 0.01,0.0117 -0.005,-0.0247 -0.0326,-0.0433 -0.0293,-0.0703 -0.0111,-0.0525 0.004,0.009 -0.0176,-0.0625 -5.7e-4,-0.002 6.2e-4,-0.004 0,-0.006 -0.005,-0.0109 -0.0147,-0.0208 -0.0195,-0.0312 -10e-4,-0.002 0.0117,0.007 0.0117,0.004 -0.009,-0.0113 -0.0196,-0.0189 -0.0293,-0.0293 -0.0292,-0.0438 -0.0207,-0.0337 -0.0352,-0.10351 v -0.004 c -0.002,-0.002 -0.008,-0.002 -0.01,-0.004 -0.0437,-0.0512 -0.0283,-0.0265 -0.0469,-0.13282 -9.1e-4,-0.005 -10e-4,-0.0133 0.008,-0.0156 0.004,-0.002 0.002,0.009 0.004,0.0117 0.0132,0.0237 0.006,0.0219 0.0195,0.0215 -0.0475,-0.0446 -0.0881,-0.0945 -0.0957,-0.16211 -7.9e-4,-0.007 0.016,0.0171 0.0176,0.0117 -0.006,-0.006 -0.0395,-0.041 -0.043,-0.0508 -0.003,-0.009 -0.009,-0.0176 -0.0117,-0.0273 v -0.002 c -0.0227,-0.0295 -0.0138,-0.0211 -0.043,-0.0859 -6.9e-4,-0.002 0.004,-0.006 0.004,-0.008 -7.2e-4,-0.005 -0.004,-0.0106 -0.006,-0.0156 -0.006,-0.0161 -0.024,-0.0303 -0.0195,-0.0469 0.004,-0.0134 0.0158,0.0255 0.0234,0.0371 -0.0381,-0.0682 -0.0479,-0.0876 -0.0605,-0.13867 -0.006,-0.0116 -0.0163,-0.017 -0.0234,-0.0371 -0.001,-0.004 7.8e-4,-0.0109 -0.002,-0.0156 -0.0259,-0.0156 -0.0367,-0.0263 -0.0605,-0.11524 0.004,-0.003 0.035,0.037 0.0195,0.0156 -0.008,-0.011 -0.01,-0.0192 -0.0156,-0.0254 l -0.002,-0.006 v -0.002 c -0.017,-0.0179 -0.0316,-0.023 -0.0488,-0.0781 0.002,-0.0119 -0.006,-0.0284 -0.0117,-0.043 -0.002,-0.005 -0.007,-0.0114 -0.008,-0.0156 -0.009,-0.0138 -3.8e-4,0.008 -0.0293,-0.043 -0.004,-0.0187 -0.0154,-0.0378 -0.0195,-0.0566 -10e-4,-0.006 0.0107,0.0213 0.0117,0.0156 10e-4,-0.0117 -0.0783,-0.10599 -0.0586,-0.12891 0.009,0.0113 0.0386,0.0368 0.0293,0.0254 -0.0172,-0.0236 -0.0374,-0.041 -0.0547,-0.0645 -0.0177,-0.024 -0.0297,-0.0859 -0.0274,-0.10547 0.002,0.004 0.005,0.007 0.008,0.0117 0.005,0.008 -0.002,-0.0128 -0.0117,-0.0254 -0.008,-0.004 -0.0156,-0.009 -0.0234,-0.0137 -0.0401,-0.053 -0.0274,-0.0291 -0.043,-0.12695 -0.008,-0.006 -0.0161,-0.011 -0.0215,-0.0195 -0.15008,-0.23215 0.0454,-0.012 -0.0293,-0.10546 -0.0122,-0.0184 -0.0755,-0.10679 -0.0664,-0.14649 -0.006,-0.005 -0.0116,-0.008 -0.0176,-0.0117 -0.003,-0.002 9.2e-4,-0.008 -0.002,-0.0117 -0.045,-0.13266 -0.0337,-0.0992 -0.0312,-0.0918 -0.032,-0.0191 -0.0641,-0.0305 -0.0742,-0.0781 -0.002,-0.007 0.11721,0.17742 -0.0293,-0.0293 -0.004,-0.0106 -0.009,-0.0188 -0.0117,-0.0293 -0.012,-0.0529 -0.013,-0.0605 -0.0117,-0.0625 -0.0112,-0.007 10e-4,-10e-4 -0.0137,-0.0117 -0.008,-0.0185 -0.0195,-0.042 -0.0254,-0.0586 -0.0166,-0.0149 -0.0287,-0.0329 -0.041,-0.0508 -10e-4,-8.7e-4 -0.007,-0.01 -0.008,-0.0117 v -0.004 c -0.007,-0.0115 -0.0175,-0.0207 -0.0234,-0.0332 0.0102,0.005 0.0382,0.0206 0.0293,0.0137 -0.0249,-0.0194 -0.0267,-0.0197 -0.0391,-0.0274 0.002,0.004 0.002,0.006 0.004,0.008 -0.002,-0.0111 0.009,0.0126 0.0176,0.0293 -0.0108,-0.008 -0.0191,-0.0209 -0.0293,-0.0293 -0.005,-0.0187 -0.0372,-0.0726 -0.0488,-0.10157 -0.0227,-0.0143 -0.0332,-0.0416 -0.0508,-0.0957 0.003,0.0172 -0.0137,-0.0265 -0.0117,-0.0195 -0.004,-0.007 -0.009,-0.0188 -0.0117,-0.0215 -0.0116,-0.005 -0.024,-0.008 -0.0332,-0.0156 -0.0185,-0.0156 -0.0201,-0.0421 -0.0293,-0.0645 -0.006,-0.009 -0.0114,-0.0226 -0.0176,-0.0312 0.0184,0.0167 -0.003,-0.006 -0.0234,-0.0547 -0.006,-0.008 -0.006,-0.0118 -0.01,-0.0156 -0.015,-0.0171 -0.0137,-0.009 -0.0449,-0.0684 -0.008,-0.0233 -0.0228,-0.0467 -0.0215,-0.0703 l -0.0117,-0.0117 c -10e-4,-0.002 -0.0223,-0.0306 -0.0137,-0.0234 -0.0122,-0.0237 -0.0395,-0.077 -0.0449,-0.0918 -0.0536,-0.1488 0.0403,0.0298 -0.0215,-0.0723 -0.0104,-0.0209 -0.0249,-0.0396 -0.0351,-0.0605 -10e-4,-0.003 0.009,-0.009 0.008,-0.0117 -0.009,-0.0192 -0.0239,-0.0355 -0.0332,-0.0547 -0.0122,-0.0252 -0.0102,-0.0577 -0.0117,-0.0859 -0.0321,-0.0451 -0.063,-0.0868 -0.0684,-0.14453 -1.5e-4,-0.013 2.1e-4,-0.026 0,-0.0391 -0.003,-0.005 -0.009,-0.0109 -0.0117,-0.0156 -0.0466,-0.0865 -0.0419,-0.0899 -0.0664,-0.18946 -0.005,-0.0184 0.003,-0.0271 0.002,-0.043 0.0265,0.0385 0.091,0.13392 -0.0293,-0.0312 -0.004,-0.0137 -0.0151,-0.032 -0.0137,-0.043 v -0.008 l -0.006,-0.002 c -0.0177,-0.0231 -0.034,-0.0476 -0.0508,-0.0703 l -0.002,0.006 -0.004,-0.006 c -0.0128,-0.01 -0.025,-0.0206 -0.0391,-0.0293 0.0137,0.0116 0.0251,0.0224 0.0391,0.0332 -0.005,0.004 -0.0124,-0.002 -0.0117,0.0215 -0.0328,-0.0307 -0.0576,-0.0522 -0.0664,-0.0977 -0.0147,-0.01 -0.0338,-0.0164 -0.0449,-0.0293 -0.006,-0.007 -0.0107,-0.0198 -0.0117,-0.0293 -0.0267,-0.0177 -0.0446,-0.0455 -0.0645,-0.0801 -0.0184,-0.0323 -0.0359,-0.0627 -0.0488,-0.0957 -0.0514,-0.0247 -0.0468,-0.0384 -0.0703,-0.0781 -0.0494,-0.0834 -0.0192,-0.0326 -0.0254,-0.043 -0.009,-0.009 -0.0165,-0.0198 -0.0254,-0.0293 -0.008,-0.008 -0.006,-0.0169 -0.0117,-0.0254 -0.005,0.004 -0.008,0.008 -0.0137,0.0117 -0.0308,-0.018 -0.0667,-0.0255 -0.0918,-0.0508 -0.0199,-0.0202 -0.033,-0.0481 -0.0449,-0.0742 -0.005,-0.008 -0.0118,-0.0245 -0.0117,-0.0176 -0.004,-0.004 -0.01,-0.0167 -0.0117,-0.0195 -0.007,-0.0111 -0.0186,-0.026 -0.0234,-0.0391 -0.002,-0.006 -0.0102,-0.0112 -0.0137,-0.0234 -0.005,-0.0196 -0.016,-0.0398 -0.0176,-0.0586 -0.0208,-0.0234 -0.0411,-0.0391 -0.0742,-0.0957 -0.0164,-0.0414 -0.019,-0.067 -0.0234,-0.0918 -0.007,-0.0102 -0.006,-0.0168 -0.0117,-0.0215 0.002,0.004 0.009,0.008 0.0117,0.0117 -3.3e-4,-10e-4 2.3e-4,-0.0107 0,-0.0117 -0.006,-0.0151 -0.0102,-0.0301 -0.0176,-0.0449 -0.01,-0.007 -0.0195,-0.0142 -0.0293,-0.0215 -0.0318,-0.0528 -0.0379,-0.0934 -0.0527,-0.13086 -0.0114,-0.008 -0.012,-0.0226 -0.0195,-0.0332 h 0.0117 c -0.0154,-0.0156 -0.0187,-0.0368 -0.0293,-0.0547 l -0.0117,-0.0117 c -0.009,-0.016 -0.0263,-0.0278 -0.0293,-0.0469 -0.0171,0.0129 -0.0338,0.0265 -0.0508,0.0391 -12.53453,-25.14977 -36.16212,-44.67361 -63.49414,-51.10938 -6.82724,-1.60794 -13.69736,-2.43956 -20.5,-2.52343 z m 85.41016,56.03711 c 0.002,0.003 0.01,0.009 0.008,0.006 -0.0277,-0.0455 -0.0266,-0.0405 -0.0293,-0.0449 0.005,-0.005 0.0137,0.0262 0.0215,0.0391 z M 278.78516,218.07812 c 0.009,-0.01 0.009,-0.0141 0.0176,-0.0234 -0.0123,0.006 -0.0247,0.0117 -0.0371,0.0176 0.006,0.004 0.0133,0.003 0.0195,0.006 z m 0.0176,-0.0234 c 0.0157,-0.008 0.0312,-0.0157 0.0469,-0.0234 -0.0118,6.3e-4 -0.019,5e-4 -0.0312,0.002 -0.007,0.008 -0.008,0.013 -0.0156,0.0215 z m 0.0469,-0.0234 c 0.0522,-0.003 0.0961,-0.008 0.13867,-0.0117 0.0895,-0.0546 0.16249,-0.10333 0.22852,-0.16797 -0.12165,0.0613 -0.24519,0.11917 -0.36719,0.17969 z m -1.62695,0.9707 c -0.008,0.004 -0.0237,0.0108 -0.0332,0.0156 -0.0127,0.0319 -0.035,0.0694 -0.0605,0.11328 0.15526,-0.0538 0.30648,-0.11625 0.0937,-0.125 7e-5,-0.003 -8e-5,1.2e-4 0,-0.004 z m 122.12695,46.54102 c 4.1e-4,10e-4 0.002,0.003 0.002,0.004 0.003,0.002 0.007,0.004 0.01,0.006 -0.004,-0.003 -0.008,-0.006 -0.0117,-0.01 z m -3.17578,0.64062 c 0.003,0.008 0.003,0.0184 0.006,0.0293 4.1e-4,0.002 -9.5e-4,0.002 0.002,0.004 4.2e-4,0.002 0.002,0.002 0.002,0.004 0.003,0.002 0.007,0.01 0.01,0.0117 -0.005,-0.0153 -0.0126,-0.032 -0.0195,-0.0488 z m 0.82812,1.2793 c 0.008,0.007 0.009,0.009 0.0195,0.0195 0.004,0.004 -0.008,-0.005 -0.0156,-0.008 -0.003,-0.003 -0.003,-0.008 -0.004,-0.0117 z m 3.03125,0.69727 c -0.002,0.003 -0.004,0.005 -0.006,0.008 0.002,-10e-4 0.003,0.001 0.004,-0.002 0.002,-10e-4 -10e-4,-0.004 0.002,-0.006 z m -0.77539,0.80468 c -2.4e-4,0.008 -0.002,0.0156 -0.002,0.0234 1.3e-4,0.007 0.003,-0.0181 0.004,-0.0215 z m -1.46093,0.0801 c 0.004,0.008 0.004,0.0113 0.008,0.0156 0.008,0.009 0.0414,0.0288 0.0312,0.0215 -0.0518,-0.0373 -0.0664,-0.0469 -0.0293,-0.0234 -0.004,-0.004 -0.006,-0.01 -0.01,-0.0137 z m 0.0449,0.0703 c 0.006,0.01 0.01,0.0185 0.0195,0.0293 0.0126,0.0142 0.078,0.0316 -0.0195,-0.0293 z m 1.95508,0.6836 c -0.004,0.002 -0.005,0.005 -0.008,0.008 4.8e-4,0.002 -4.1e-4,0.004 0,0.006 h 0.002 c 0.003,-0.006 0.003,-0.008 0.006,-0.0137 z m -1.03516,0.36523 c 5e-4,0.002 -5.2e-4,0.004 0,0.006 0.003,0.004 0.0155,0.0236 0.0117,0.0176 -0.002,-0.003 -0.008,-0.0159 -0.0117,-0.0234 z m 0.3789,0.73633 c 0.001,0.004 0.004,0.008 0.006,0.0117 0.005,6.3e-4 0.0175,0.004 0.0137,0.004 -0.008,-0.006 -0.0133,-0.0105 -0.0195,-0.0156 z m -0.38867,0.22266 c 0.002,0.003 0.003,0.007 0.006,0.01 0.002,0.002 0.01,0.009 0.01,0.006 -0.004,-0.006 -0.0101,-0.0109 -0.0156,-0.0156 z m 0.41602,1.11914 c 5.8e-4,0.002 -5.9e-4,0.002 0,0.004 0.008,0.007 0.0154,0.0126 0.0234,0.0195 -0.008,-0.008 -0.0154,-0.0158 -0.0234,-0.0234 z m 0.0586,0.17578 c 7.8e-4,-0.0149 -0.001,0.0294 0.008,0.043 9.2e-4,0.002 0.003,0.004 0.004,0.006 -0.002,-0.0169 -0.0128,-0.0292 -0.0117,-0.0488 z m 0.85938,2.45898 c -1.1e-4,-0.005 0.008,0.0213 0.0137,0.0312 0.001,0.002 0.008,0.009 0.006,0.006 -0.0221,-0.0384 -0.0193,-0.0359 -0.0195,-0.0371 z m 1.47851,0.11914 c 0.004,0.0179 0.008,0.0368 0.0195,0.0508 0.002,0.003 0.005,0.006 0.008,0.008 l 0.006,0.006 c -8.1e-4,-0.003 0.001,-0.005 -0.002,-0.008 -0.0102,-0.019 -0.0199,-0.0384 -0.0312,-0.0566 z m -1.21875,0.36524 c 0.005,0.009 0.005,0.0113 0.01,0.0156 0.008,0.008 0.04,0.0255 0.0312,0.0176 -0.002,-0.002 -0.003,-0.002 -0.004,-0.004 -0.0203,-0.018 -0.0271,-0.0225 -0.0371,-0.0293 z m 0.12891,0.2207 c 0.005,0.005 0.0101,0.01 0.0156,0.0137 0.005,0.003 0.0226,0.005 0.0176,0.002 -0.0216,-0.0128 -0.0196,-0.009 -0.0332,-0.0156 z m 2.10547,1.69336 c 0.003,0.009 -0.002,0.005 0.002,0.0156 0.003,0.004 0.004,0.005 0.006,0.008 0.002,0.003 0.004,0.007 0.006,0.01 1.6e-4,-0.001 -1.7e-4,-0.003 0,-0.004 -0.005,-0.0114 -0.01,-0.0183 -0.0137,-0.0293 z m 10.12695,1.41211 c -0.006,0.009 -0.008,0.0131 -0.0137,0.0215 0.0112,0.0129 0.0188,0.0178 0.041,0.043 0.005,-0.004 0.009,-0.008 0.0137,-0.0117 -0.009,-0.0116 -0.027,-0.0347 -0.041,-0.0527 z m -0.0176,0.0273 c -0.0347,0.0534 -0.0722,0.11536 -0.0879,0.13868 0.0365,-0.0283 0.0728,-0.0534 0.10938,-0.082 -0.007,-0.0188 -0.0144,-0.0377 -0.0215,-0.0566 z m -11.16211,0.0527 -0.002,0.002 c 0.004,0.007 0.01,0.0177 0.008,0.0137 -0.004,-0.004 10e-4,-0.009 -0.004,-0.0137 z m 0.26172,0.33008 c -0.001,10e-4 10e-4,0.005 -0.002,0.006 4.9e-4,-0.002 0.002,-0.003 0.002,-0.006 z m 7.71875,0.25781 c 7.8e-4,0.002 -0.001,0.004 0.002,0.006 0.0127,0.0106 0.0205,0.0154 0.0391,0.0312 -0.0138,-0.0123 -0.0273,-0.0249 -0.041,-0.0371 z m 0.041,0.0371 v 0.002 c 0.003,0.003 0.003,0.004 0.006,0.006 0.004,0.004 0.01,0.006 0.0117,0.008 -0.006,-0.005 -0.0117,-0.0104 -0.0176,-0.0156 z m -7.46485,0.72461 c -4e-4,0.002 -0.004,0.002 -0.004,0.004 1e-4,0.004 0.005,0.0107 0.004,0.0117 3.3e-4,-0.005 -2.8e-4,-0.0105 0,-0.0156 z m 5.10938,0.17187 c 0.002,0.003 0.004,0.005 0.006,0.008 0.002,0.004 0.002,0.008 0.004,0.0117 0.002,0.003 0.004,0.005 0.006,0.008 -0.003,-0.008 -0.005,-0.0156 -0.008,-0.0234 -0.004,-0.003 -0.005,-0.002 -0.008,-0.004 z m -4.93945,0.20508 c -4.4e-4,0.002 -0.002,0.003 -0.002,0.006 10e-4,0.002 -0.001,0.002 0.002,0.004 1.3e-4,-0.003 -1.6e-4,-0.007 0,-0.01 z m 0.8164,3.82031 c 0.0172,0.006 10e-4,0.0401 0.0117,0.0547 10e-4,0.002 0.004,0.002 0.006,0.004 -0.007,-0.003 -0.0333,-0.0639 -0.0176,-0.0586 z"
       style="stroke-width:0.99996096"
       transform="scale(1.0000391)"
       id="path12"
       inkscape:connector-curvature="0" />
    <path
       inkscape:connector-curvature="0"
       id="path18"
       d="m 130.76415,217.062 c -5.523,0 -9.996,4.478 -9.996,10 0,5.522 4.48,10 10.003,10 5.523,0 10,-4.478 10,-10 0,-5.522 -4.477,-10 -10,-10 z" />
  </g>
</svg>
