<?xml version="1.0" encoding="iso-8859-1"?>
<!-- Generator: Adobe Illustrator 19.0.0, SVG Export Plug-In . SVG Version: 6.00 Build 0)  -->
<svg version="1.1" id="Capa_1" xmlns="http://www.w3.org/2000/svg" xmlns:xlink="http://www.w3.org/1999/xlink" x="0px" y="0px"
	 viewBox="0 0 512 512" style="enable-background:new 0 0 512 512;" xml:space="preserve">
<path style="fill:#A66856;" d="M487.157,274.95l-457,61.261C18.163,337.818,7.5,328.489,7.5,316.388V143.612
	c0-12.101,10.663-21.431,22.657-19.823l457,61.261c9.93,1.331,17.343,9.804,17.343,19.823v50.254
	C504.5,265.146,497.087,273.618,487.157,274.95z"/>
<path style="fill:#8F5040;" d="M487.157,185.05l-15.917-2.134c2.058,4.121,3.26,9.02,3.26,14.255v65.657
	c0,5.235-1.201,10.134-3.26,14.255l15.917-2.134c9.93-1.331,17.343-9.804,17.343-19.823v-50.254
	C504.5,194.854,497.087,186.381,487.157,185.05z"/>
<rect x="45.796" y="96" style="fill:#F3B573;" width="60" height="268"/>
<rect x="75.8" y="96" style="fill:#F5A257;" width="30" height="268"/>
<rect x="133.46" y="108.33" style="fill:#F3B573;" width="60" height="243.33"/>
<rect x="163.46" y="108.33" style="fill:#F5A257;" width="30" height="243.33"/>
<rect x="221.13" y="119.53" style="fill:#F3B573;" width="60" height="220.94"/>
<rect x="251.13" y="119.53" style="fill:#F5A257;" width="30" height="220.94"/>
<rect x="308.8" y="129.7" style="fill:#F3B573;" width="60" height="200.6"/>
<rect x="338.8" y="129.7" style="fill:#F5A257;" width="30" height="200.6"/>
<rect x="396.46" y="138.93" style="fill:#F3B573;" width="60" height="182.14"/>
<rect x="426.46" y="138.93" style="fill:#F5A257;" width="30" height="182.14"/>
<path style="fill:#FFBF7B;" d="M413.012,412.192L413.012,412.192c-5.077,5.077-13.308,5.077-18.385,0L279.369,296.934l18.385-18.385
	l115.258,115.258C418.089,398.884,418.089,407.116,413.012,412.192z"/>
<circle style="fill:#735458;" cx="276.79" cy="275.97" r="21.431"/>
<path style="fill:#FFDEA9;" d="M284.155,379.821L284.155,379.821c-5.077-5.077-5.077-13.308,0-18.385l115.258-115.258l18.385,18.385
	L302.54,379.821C297.463,384.898,289.232,384.898,284.155,379.821z"/>
<circle style="fill:#735458;" cx="420.37" cy="243.6" r="21.431"/>
<path d="M488.158,177.616l-24.198-3.248V138.93c0-4.143-3.357-7.5-7.5-7.5h-60c-4.143,0-7.5,3.357-7.5,7.5v25.387l-12.66-1.698
	V129.7c0-4.143-3.357-7.5-7.5-7.5h-60c-4.143,0-7.5,3.357-7.5,7.5v22.867l-12.67-1.699V119.53c0-4.143-3.357-7.5-7.5-7.5h-60
	c-4.142,0-7.5,3.357-7.5,7.5v21.287l-12.667-1.698v-30.785c0-4.143-3.358-7.5-7.5-7.5h-60c-4.142,0-7.5,3.357-7.5,7.5v20.734
	l-12.667-1.699V96c0-4.143-3.358-7.5-7.5-7.5h-60c-4.142,0-7.5,3.357-7.5,7.5v21.315l-7.138-0.958
	c-7.862-1.058-15.796,1.334-21.765,6.557C3.423,128.135,0,135.679,0,143.61v172.78c0,7.932,3.423,15.476,9.393,20.697
	c5.042,4.411,11.486,6.801,18.104,6.801c1.217,0,2.44-0.081,3.661-0.244l7.138-0.958V364c0,4.143,3.358,7.5,7.5,7.5h60
	c4.142,0,7.5-3.357,7.5-7.5v-31.368l12.667-1.699v20.734c0,4.143,3.358,7.5,7.5,7.5h60c4.142,0,7.5-3.357,7.5-7.5v-30.785
	l12.667-1.698v21.287c0,4.143,3.358,7.5,7.5,7.5h60c4.143,0,7.5-3.357,7.5-7.5v-23.673l12.67,12.67v0.833
	c0,1.001,0.2,1.955,0.556,2.828l-23.008,23.009c-7.985,7.983-7.987,20.984-0.001,28.987c3.997,3.997,9.248,5.995,14.498,5.995
	c5.251,0,10.502-1.998,14.499-5.995l24.557-24.557l17.564,17.563c1.465,1.464,3.385,2.196,5.304,2.196s3.839-0.732,5.304-2.196
	c2.929-2.93,2.929-7.678,0-10.607l-17.564-17.563l7.772-7.773l56.932,56.931c1.037,1.035,1.607,2.414,1.607,3.882
	c0,1.468-0.57,2.847-1.618,3.893c-1.034,1.036-2.413,1.607-3.881,1.607c-1.469,0-2.848-0.571-3.887-1.613l-16.736-16.736
	c-2.93-2.928-7.678-2.928-10.607,0c-2.929,2.93-2.929,7.678,0,10.607l16.732,16.731c3.869,3.876,9.019,6.011,14.499,6.011
	c5.479-0.001,10.628-2.136,14.486-6.001c3.877-3.869,6.012-9.019,6.012-14.499s-2.135-10.63-6.006-14.494l-50.707-50.707h1.192
	c4.143,0,7.5-3.357,7.5-7.5v-13.632l12.66-12.66v17.063c0,4.143,3.357,7.5,7.5,7.5h60c4.143,0,7.5-3.357,7.5-7.5v-35.439
	l24.196-3.248C501.749,280.563,512,268.846,512,255.13v-50.26C512,191.153,501.749,179.438,488.158,177.616z M448.96,146.43v92.807
	c-0.892-5.894-3.598-11.564-8.127-16.094c-10.017-10.015-25.606-11.13-36.873-3.358V146.43H448.96z M410.525,253.451
	c-5.432-5.432-5.432-14.269,0-19.7c2.716-2.716,6.283-4.074,9.85-4.074c3.567,0,7.135,1.358,9.851,4.074
	c5.432,5.432,5.432,14.269,0,19.7C424.795,258.883,415.958,258.885,410.525,253.451z M388.96,179.451v66.571l-12.66,12.66v-80.93
	L388.96,179.451z M361.3,137.2v136.483l-14.417,14.417c-1.039-0.59-2.238-0.932-3.518-0.932c-3.943,0-7.14,3.197-7.14,7.14
	c0,1.28,0.341,2.479,0.932,3.518l-4.76,4.76L316.3,286.492V137.2H361.3z M314.015,320.969l-21.028-21.028
	c1.502-1.016,2.932-2.182,4.261-3.511c1.329-1.329,2.496-2.759,3.511-4.262l21.028,21.028L314.015,320.969z M276.792,262.048
	c3.567,0,7.135,1.358,9.85,4.074c5.432,5.432,5.432,14.269,0,19.7c-5.43,5.432-14.269,5.432-19.7,0
	c-2.631-2.631-4.08-6.129-4.08-9.851c0-3.721,1.449-7.219,4.081-9.85C269.657,263.406,273.225,262.048,276.792,262.048z
	 M301.3,167.701v92.908c-1.134-1.809-2.479-3.522-4.051-5.094c-2.563-2.563-5.492-4.536-8.619-5.935v-83.578L301.3,167.701z
	 M98.296,356.5h-45l0,0c0-0.015,0,0,0-0.015V198.25c0-4.143-3.358-7.5-7.5-7.5s-7.5,3.357-7.5,7.5v129.3l-9.133,1.226
	c-3.625,0.49-7.141-0.57-9.894-2.979C16.516,323.389,15,320.048,15,316.39V143.61c0-3.658,1.516-6.999,4.269-9.407
	c2.752-2.409,6.265-3.473,9.893-2.979l9.134,1.226v34c0,4.143,3.358,7.5,7.5,7.5s7.5-3.357,7.5-7.5V103.5c0-0.015,0,0.015,0,0l0,0
	h45C98.296,103.5,98.296,356.5,98.296,356.5z M113.296,317.497V142.502l12.667,1.699v171.597L113.296,317.497z M200.962,305.747
	v-11.438c0-4.143-3.358-7.5-7.5-7.5s-7.5,3.357-7.5,7.5v49.858h-45V115.833h45V261.75c0,4.143,3.358,7.5,7.5,7.5s7.5-3.357,7.5-7.5
	V154.253l12.667,1.698v148.098L200.962,305.747z M228.63,332.97V127.03h45v120.204c-6.322,0.689-12.458,3.445-17.294,8.281
	c-5.464,5.465-8.474,12.729-8.474,20.457c0,7.729,3.01,14.993,8.474,20.458c4.836,4.836,10.973,7.591,17.294,8.281v28.26h-45V332.97
	z M297.236,374.517c-2.146,2.148-5.639,2.145-7.777,0.006c-2.145-2.148-2.146-5.638-0.005-7.778l0,0
	c0.027-0.026-0.053,0.054-0.027,0.027c0.027-0.027,0,0,0.027-0.027l106.95-106.951c0.034-0.033-0.067,0.068-0.033,0.034
	s0,0,0.033-0.034l0,0c1.016,1.504,2.184,2.935,3.514,4.265c1.33,1.329,2.76,2.496,4.263,3.512L297.236,374.517
	C297.236,374.517,297.237,374.516,297.236,374.517L297.236,374.517z M403.96,313.57v-24.563l16.49-16.49
	c7.384-0.019,14.761-2.838,20.383-8.458c4.529-4.529,7.235-10.199,8.127-16.094v65.605L403.96,313.57L403.96,313.57z M497,255.13
	c0,6.234-4.658,11.56-10.838,12.387l-22.202,2.979v-80.992l22.204,2.98c6.178,0.827,10.836,6.152,10.836,12.387V255.13z"/>
<circle cx="76.61" cy="129.7" r="7.5"/>
<circle cx="76.61" cy="330.299" r="7.5"/>
<circle cx="163.46" cy="141.95" r="7.5"/>
<circle cx="163.46" cy="317.5" r="7.5"/>
<circle cx="251.13" cy="153.95" r="7.5"/>
<circle cx="251.13" cy="304.95" r="7.5"/>
<circle cx="338.8" cy="166.45" r="7.5"/>
<circle cx="426.82" cy="182.45" r="7.14"/>
<circle cx="426.82" cy="283.84" r="7.14"/>
<g>
</g>
<g>
</g>
<g>
</g>
<g>
</g>
<g>
</g>
<g>
</g>
<g>
</g>
<g>
</g>
<g>
</g>
<g>
</g>
<g>
</g>
<g>
</g>
<g>
</g>
<g>
</g>
<g>
</g>
</svg>
