<?xml version="1.0" encoding="UTF-8" standalone="no"?>
<!-- Generator: Adobe Illustrator 16.0.0, SVG Export Plug-In . SVG Version: 6.00 Build 0)  -->

<svg
   xmlns:dc="http://purl.org/dc/elements/1.1/"
   xmlns:cc="http://creativecommons.org/ns#"
   xmlns:rdf="http://www.w3.org/1999/02/22-rdf-syntax-ns#"
   xmlns:svg="http://www.w3.org/2000/svg"
   xmlns="http://www.w3.org/2000/svg"
   xmlns:sodipodi="http://sodipodi.sourceforge.net/DTD/sodipodi-0.dtd"
   xmlns:inkscape="http://www.inkscape.org/namespaces/inkscape"
   version="1.1"
   id="Capa_1"
   x="0px"
   y="0px"
   width="20.427935"
   height="12.593702"
   viewBox="0 0 20.427934 12.593702"
   xml:space="preserve"
   sodipodi:docname="igual.svg"
   inkscape:version="0.92.4 (5da689c313, 2019-01-14)"><metadata
   id="metadata45"><rdf:RDF><cc:Work
       rdf:about=""><dc:format>image/svg+xml</dc:format><dc:type
         rdf:resource="http://purl.org/dc/dcmitype/StillImage" /></cc:Work></rdf:RDF></metadata><defs
   id="defs43" /><sodipodi:namedview
   pagecolor="#ffffff"
   bordercolor="#666666"
   borderopacity="1"
   objecttolerance="10"
   gridtolerance="10"
   guidetolerance="10"
   inkscape:pageopacity="0"
   inkscape:pageshadow="2"
   inkscape:window-width="1664"
   inkscape:window-height="775"
   id="namedview41"
   showgrid="false"
   inkscape:zoom="15.500185"
   inkscape:cx="-10.6314"
   inkscape:cy="-3.4055611"
   inkscape:window-x="0"
   inkscape:window-y="0"
   inkscape:window-maximized="0"
   inkscape:current-layer="Capa_1" />
<g
   id="g8"
   transform="matrix(0.16771015,0,0,0.25847551,0,-9.4449536)">
	<g
   id="g6">
		<path
   d="m 7.308,85.264 h 107.188 c 4.037,0 7.309,-3.271 7.309,-7.31 0,-4.039 -3.271,-7.309 -7.309,-7.309 H 7.308 C 3.271,70.646 0,73.916 0,77.954 c 0,4.038 3.271,7.31 7.308,7.31 z"
   id="path2"
   inkscape:connector-curvature="0" />
		<path
   d="m 7.308,51.158 h 107.188 c 4.037,0 7.309,-3.272 7.309,-7.309 0,-4.037 -3.271,-7.308 -7.309,-7.308 H 7.308 C 3.271,36.541 0,39.812 0,43.849 c 0,4.037 3.271,7.309 7.308,7.309 z"
   id="path4"
   inkscape:connector-curvature="0" />
	</g>
</g>
<g
   id="g10"
   transform="translate(-11.883459,-72.157082)">
</g>
<g
   id="g12"
   transform="translate(-11.883459,-72.157082)">
</g>
<g
   id="g14"
   transform="translate(-11.883459,-72.157082)">
</g>
<g
   id="g16"
   transform="translate(-11.883459,-72.157082)">
</g>
<g
   id="g18"
   transform="translate(-11.883459,-72.157082)">
</g>
<g
   id="g20"
   transform="translate(-11.883459,-72.157082)">
</g>
<g
   id="g22"
   transform="translate(-11.883459,-72.157082)">
</g>
<g
   id="g24"
   transform="translate(-11.883459,-72.157082)">
</g>
<g
   id="g26"
   transform="translate(-11.883459,-72.157082)">
</g>
<g
   id="g28"
   transform="translate(-11.883459,-72.157082)">
</g>
<g
   id="g30"
   transform="translate(-11.883459,-72.157082)">
</g>
<g
   id="g32"
   transform="translate(-11.883459,-72.157082)">
</g>
<g
   id="g34"
   transform="translate(-11.883459,-72.157082)">
</g>
<g
   id="g36"
   transform="translate(-11.883459,-72.157082)">
</g>
<g
   id="g38"
   transform="translate(-11.883459,-72.157082)">
</g>
</svg>