<?xml version="1.0" encoding="UTF-8" standalone="no"?>
<!-- Created with Inkscape (http://www.inkscape.org/) -->

<svg
   xmlns:dc="http://purl.org/dc/elements/1.1/"
   xmlns:cc="http://creativecommons.org/ns#"
   xmlns:rdf="http://www.w3.org/1999/02/22-rdf-syntax-ns#"
   xmlns:svg="http://www.w3.org/2000/svg"
   xmlns="http://www.w3.org/2000/svg"
   xmlns:xlink="http://www.w3.org/1999/xlink"
   xmlns:sodipodi="http://sodipodi.sourceforge.net/DTD/sodipodi-0.dtd"
   xmlns:inkscape="http://www.inkscape.org/namespaces/inkscape"
   width="20.549757mm"
   height="10.232539mm"
   viewBox="0 0 20.549757 10.23254"
   version="1.1"
   id="svg8"
   sodipodi:docname="inicio.svg"
   inkscape:version="0.92.4 (5da689c313, 2019-01-14)">
  <defs
     id="defs2">
    <linearGradient
       inkscape:collect="always"
       id="linearGradient4596">
      <stop
         style="stop-color:#00a1ff;stop-opacity:1;"
         offset="0"
         id="stop4592" />
      <stop
         style="stop-color:#003cff;stop-opacity:0"
         offset="1"
         id="stop4594" />
    </linearGradient>
    <inkscape:perspective
       sodipodi:type="inkscape:persp3d"
       inkscape:vp_x="0 : 148.50001 : 1"
       inkscape:vp_y="0 : 1000.0001 : 0"
       inkscape:vp_z="210.00001 : 148.50001 : 1"
       inkscape:persp3d-origin="104.99999 : 99.000005 : 1"
       id="perspective3757" />
    <linearGradient
       inkscape:collect="always"
       xlink:href="#linearGradient4596"
       id="linearGradient4598"
       x1="60.854172"
       y1="110.46874"
       x2="168.95537"
       y2="114.2485"
       gradientUnits="userSpaceOnUse"
       gradientTransform="matrix(1.1899582,0,0,1.2490874,-12.271812,-44.091969)" />
    <linearGradient
       inkscape:collect="always"
       xlink:href="#linearGradient4596"
       id="linearGradient4618"
       gradientUnits="userSpaceOnUse"
       gradientTransform="matrix(0.34476764,5.311318e-4,-4.2987135e-4,0.60472333,11.813933,15.060377)"
       x1="60.854172"
       y1="110.46874"
       x2="168.95537"
       y2="114.2485" />
  </defs>
  <sodipodi:namedview
     id="base"
     pagecolor="#ffffff"
     bordercolor="#666666"
     borderopacity="1.0"
     inkscape:pageopacity="0.0"
     inkscape:pageshadow="2"
     inkscape:zoom="3.959798"
     inkscape:cx="-14.589413"
     inkscape:cy="16.472678"
     inkscape:document-units="mm"
     inkscape:current-layer="layer1"
     showgrid="false"
     inkscape:window-width="1920"
     inkscape:window-height="1001"
     inkscape:window-x="-9"
     inkscape:window-y="-9"
     inkscape:window-maximized="1"
     inkscape:snap-page="false" />
  <metadata
     id="metadata5">
    <rdf:RDF>
      <cc:Work
         rdf:about="">
        <dc:format>image/svg+xml</dc:format>
        <dc:type
           rdf:resource="http://purl.org/dc/dcmitype/StillImage" />
        <dc:title />
      </cc:Work>
    </rdf:RDF>
  </metadata>
  <g
     inkscape:label="Capa 1"
     inkscape:groupmode="layer"
     id="layer1"
     transform="translate(-51.121766,-91.563163)">
    <g
       id="g840"
       transform="matrix(0.92761297,0,0,0.95035431,20.745236,18.833258)">
      <path
         inkscape:connector-curvature="0"
         d="m 35.965359,76.529255 15.724272,0.02424 c 1.780862,0.0028 3.212849,2.4006 3.210728,5.376371 -0.0022,2.975764 -1.437503,5.369209 -3.218364,5.366462 l -15.724271,-0.02424 c -1.780862,-0.0028 -3.212849,-2.400603 -3.210734,-5.376372 0.0021,-2.975766 1.437511,-5.369208 3.218369,-5.366461 z"
         style="fill:url(#linearGradient4618);fill-opacity:1;stroke-width:0.11703368"
         id="rect3773" />
      <g
         id="g4"
         transform="matrix(0.01013189,0,0,0.01064492,43.952345,79.579229)">
        <path
           id="path2"
           d="m 692.72283,267.42179 h -26.899 v 124.201 c 0,22 -17.7,39.799 -39.801,39.799 h -236.3 c -22,0 -39.8,-17.699 -39.8,-39.799 v -124.201 h -26.9 c -30,0 -50.2,-36.699 -23.3,-64.299 l 159.2,-162.099997 c 13.5,-14.1 31.2,-20.8 49,-20.8 17.8,0 35.5,6.7 49.6,20.8 l 36.101,36.7 v -32.4 c 0,-14.1 11.6,-25.1 25.7,-25.1 h 21.399 c 13.5,0 25.101,11 25.101,25.1 V 151.82279 l 50.199,51.4 c 26.801,27.5 7.301,64.199 -23.3,64.199 z"
           inkscape:connector-curvature="0" />
      </g>
      <text
         transform="scale(1.0286822,0.97211753)"
         id="text827"
         y="83.322197"
         x="35.452541"
         style="font-style:normal;font-weight:normal;font-size:3.01686764px;line-height:1.25;font-family:sans-serif;letter-spacing:0px;word-spacing:0px;fill:#000000;fill-opacity:1;stroke:none;stroke-width:0.07542169"
         xml:space="preserve"><tspan
           style="stroke-width:0.07542169"
           y="83.322197"
           x="35.452541"
           id="tspan825"
           sodipodi:role="line">Menu</tspan><tspan
           id="tspan829"
           style="stroke-width:0.07542169"
           y="87.093285"
           x="35.452541"
           sodipodi:role="line">inicio</tspan></text>
    </g>
  </g>
</svg>
