<?xml version="1.0" encoding="UTF-8" standalone="no"?>
<svg
   xmlns:dc="http://purl.org/dc/elements/1.1/"
   xmlns:cc="http://creativecommons.org/ns#"
   xmlns:rdf="http://www.w3.org/1999/02/22-rdf-syntax-ns#"
   xmlns:svg="http://www.w3.org/2000/svg"
   xmlns="http://www.w3.org/2000/svg"
   xmlns:xlink="http://www.w3.org/1999/xlink"
   xmlns:sodipodi="http://sodipodi.sourceforge.net/DTD/sodipodi-0.dtd"
   xmlns:inkscape="http://www.inkscape.org/namespaces/inkscape"
   id="svg2"
   viewBox="0 0 1292.657 382.62652"
   version="1.1"
   sodipodi:docname="piezas.svg"
   width="1292.6571"
   height="382.6265"
   inkscape:version="0.92.4 (5da689c313, 2019-01-14)">
  <sodipodi:namedview
     pagecolor="#ffffff"
     bordercolor="#666666"
     borderopacity="1"
     objecttolerance="10"
     gridtolerance="10"
     guidetolerance="10"
     inkscape:pageopacity="0"
     inkscape:pageshadow="2"
     inkscape:window-width="1730"
     inkscape:window-height="763"
     id="namedview71"
     showgrid="false"
     inkscape:zoom="0.58020028"
     inkscape:cx="597.11835"
     inkscape:cy="305.11882"
     inkscape:window-x="156"
     inkscape:window-y="45"
     inkscape:window-maximized="0"
     inkscape:current-layer="svg2" />
  <defs
     id="defs4">
    <filter
       id="filter6773"
       style="color-interpolation-filters:sRGB">
      <feGaussianBlur
         id="feGaussianBlur6775"
         stdDeviation="2.6663444" />
    </filter>
    <linearGradient
       id="linearGradient3867">
      <stop
         id="stop3869"
         stop-color="#b3b3b3"
         offset="0" />
      <stop
         id="stop3875"
         stop-color="#fffcfc"
         offset=".5" />
      <stop
         id="stop3871"
         stop-color="#bbb"
         offset="1" />
    </linearGradient>
    <linearGradient
       id="linearGradient4157"
       y2="256.29001"
       xlink:href="#linearGradient3867"
       gradientUnits="userSpaceOnUse"
       x2="215.78"
       gradientTransform="translate(9.616,78.48)"
       y1="256.29001"
       x1="202.00999" />
    <linearGradient
       id="linearGradient4159"
       y2="256.29001"
       xlink:href="#linearGradient3867"
       gradientUnits="userSpaceOnUse"
       x2="215.78"
       gradientTransform="translate(226.4,78.48)"
       y1="256.29001"
       x1="202.00999" />
    <linearGradient
       id="linearGradient4161"
       y2="256.29001"
       xlink:href="#linearGradient3867"
       gradientUnits="userSpaceOnUse"
       x2="215.78"
       gradientTransform="translate(202.31,78.48)"
       y1="256.29001"
       x1="202.00999" />
    <linearGradient
       id="linearGradient4163"
       y2="256.29001"
       xlink:href="#linearGradient3867"
       gradientUnits="userSpaceOnUse"
       x2="215.78"
       gradientTransform="translate(178.23,78.48)"
       y1="256.29001"
       x1="202.00999" />
    <linearGradient
       id="linearGradient4165"
       y2="256.29001"
       xlink:href="#linearGradient3867"
       gradientUnits="userSpaceOnUse"
       x2="215.78"
       gradientTransform="translate(154.14,78.48)"
       y1="256.29001"
       x1="202.00999" />
    <linearGradient
       id="linearGradient4167"
       y2="256.29001"
       xlink:href="#linearGradient3867"
       gradientUnits="userSpaceOnUse"
       x2="215.78"
       gradientTransform="translate(130.05,78.48)"
       y1="256.29001"
       x1="202.00999" />
    <linearGradient
       id="linearGradient4169"
       y2="256.29001"
       xlink:href="#linearGradient3867"
       gradientUnits="userSpaceOnUse"
       x2="215.78"
       gradientTransform="translate(105.97,78.48)"
       y1="256.29001"
       x1="202.00999" />
    <linearGradient
       id="linearGradient4171"
       y2="256.29001"
       xlink:href="#linearGradient3867"
       gradientUnits="userSpaceOnUse"
       x2="215.78"
       gradientTransform="translate(81.878,78.48)"
       y1="256.29001"
       x1="202.00999" />
    <linearGradient
       id="linearGradient4173"
       y2="256.29001"
       xlink:href="#linearGradient3867"
       gradientUnits="userSpaceOnUse"
       x2="215.78"
       gradientTransform="translate(57.791,78.48)"
       y1="256.29001"
       x1="202.00999" />
    <linearGradient
       id="linearGradient4175"
       y2="256.29001"
       xlink:href="#linearGradient3867"
       gradientUnits="userSpaceOnUse"
       x2="215.78"
       gradientTransform="translate(33.703,78.48)"
       y1="256.29001"
       x1="202.00999" />
  </defs>
  <flowRoot
     transform="matrix(4.945422,0,0,1.3795188,-955.82823,-421.24983)"
     font-size="40px"
     xml:space="preserve"
     line-height="125%"
     style="font-size:40px;line-height:125%;font-family:'Courier 10 Pitch';letter-spacing:0px;word-spacing:0px;fill:#000000"
     id="flowRoot6694">
      <flowRegion
   id="flowRegion6696">
        <rect
   x="208.57001"
   height="218.57001"
   width="238.57001"
   y="360.92999"
   id="rect6698" />
      </flowRegion>
      <flowPara
   id="flowPara6700" />
    </flowRoot>  <path
     id="rect2985"
     d="m 34.952822,-85.129799 c -24.528261,0 -44.2284549,6.96789 -44.2284549,15.64344 V 366.35588 c 0,8.67555 19.7001939,15.70061 44.2284549,15.70061 H 1267.2028 c 24.5283,0 44.2285,-7.02506 44.2285,-15.70061 V -69.486359 c 0,-8.67555 -19.7002,-15.64344 -44.2285,-15.64344 z m 57.950255,18.7831 c 19.199663,0 34.705063,5.541203 34.705063,12.332052 0,6.79085 -15.50487,12.275052 -34.705063,12.275052 -19.199668,0 -34.705068,-5.484017 -34.705068,-12.275052 0,-6.790849 15.504883,-12.332052 34.705068,-12.332052 z m 125.260153,0 c 19.19967,0 34.70506,5.541203 34.70506,12.332052 0,6.79085 -15.50487,12.275052 -34.70506,12.275052 -19.19967,0 -34.86623,-5.484017 -34.86623,-12.275052 0,-6.790849 15.66656,-12.332052 34.86623,-12.332052 z m 122.51736,0 c 19.19966,0 34.86622,5.541203 34.86622,12.332052 0,6.79085 -15.66656,12.275052 -34.86622,12.275052 -19.19968,0 -34.70507,-5.484017 -34.70507,-12.275052 0,-6.790849 15.50488,-12.332052 34.70507,-12.332052 z m 122.83759,0 c 19.19967,0 34.70507,5.541203 34.70507,12.332052 0,6.79085 -15.50488,12.275052 -34.70507,12.275052 -19.19968,0 -34.70507,-5.484017 -34.70507,-12.275052 0,-6.790849 15.50488,-12.332052 34.70507,-12.332052 z m 123.48327,0 c 19.19967,0 34.86623,5.541203 34.86623,12.332052 0,6.79085 -15.66656,12.275052 -34.86623,12.275052 -19.19967,0 -34.70506,-5.484017 -34.70506,-12.275052 0,-6.790849 15.50487,-12.332052 34.70506,-12.332052 z m 124.28906,0 c 19.19967,0 34.70507,5.541203 34.70507,12.332052 0,6.79085 -15.50488,12.275052 -34.70507,12.275052 -19.19967,0 -34.86623,-5.484017 -34.86623,-12.275052 0,-6.790849 15.66656,-12.332052 34.86623,-12.332052 z m 124.93992,0 c 19.19965,0 34.86622,5.541203 34.86622,12.332052 0,6.79085 -15.66657,12.275052 -34.86622,12.275052 -19.19968,0 -34.70508,-5.484017 -34.70508,-12.275052 0,-6.790849 15.50489,-12.332052 34.70508,-12.332052 z m 125.42027,0 c 19.19967,0 34.86623,5.541203 34.86623,12.332052 0,6.79085 -15.66656,12.275052 -34.86623,12.275052 -19.19967,0 -34.70507,-5.484017 -34.70507,-12.275052 0,-6.790849 15.50488,-12.332052 34.70507,-12.332052 z m 122.3571,0 c 19.1997,0 34.7052,5.541203 34.7052,12.332052 0,6.79085 -15.505,12.275052 -34.7052,12.275052 -19.1995,0 -34.8661,-5.484017 -34.8661,-12.275052 0,-6.790849 15.6666,-12.332052 34.8661,-12.332052 z m 122.8376,0 c 19.1997,0 34.8664,5.541203 34.8664,12.332052 0,6.79085 -15.6667,12.275052 -34.8664,12.275052 -19.1996,0 -34.7049,-5.484017 -34.7049,-12.275052 0,-6.790849 15.5048,-12.332052 34.7049,-12.332052 z"
     inkscape:connector-curvature="0"
     style="fill:#dde9af;stroke:#677821;stroke-width:3.07196617" />
  <metadata
     id="metadata68">
    <rdf:RDF>
      <cc:Work>
        <dc:format>image/svg+xml</dc:format>
        <dc:type
           rdf:resource="http://purl.org/dc/dcmitype/StillImage" />
        <cc:license
           rdf:resource="http://creativecommons.org/licenses/publicdomain/" />
        <dc:publisher>
          <cc:Agent
             rdf:about="http://openclipart.org/">
            <dc:title>Openclipart</dc:title>
          </cc:Agent>
        </dc:publisher>
        <dc:title>Rmx_notes</dc:title>
        <dc:date>2012-05-06T01:40:18</dc:date>
        <dc:description>Notes, clip art, clipart, document, notepad, office, png, reminder, sticky, svg, </dc:description>
        <dc:source>http://openclipart.org/detail/169875/rmx_notes-by-gsagri04</dc:source>
        <dc:creator>
          <cc:Agent>
            <dc:title>gsagri04</dc:title>
          </cc:Agent>
        </dc:creator>
        <dc:subject>
          <rdf:Bag>
            <rdf:li>Notes</rdf:li>
            <rdf:li>clip art</rdf:li>
            <rdf:li>clipart</rdf:li>
            <rdf:li>document</rdf:li>
            <rdf:li>notepad</rdf:li>
            <rdf:li>office</rdf:li>
            <rdf:li>png</rdf:li>
            <rdf:li>reminder</rdf:li>
            <rdf:li>sticky</rdf:li>
            <rdf:li>svg</rdf:li>
          </rdf:Bag>
        </dc:subject>
      </cc:Work>
      <cc:License
         rdf:about="http://creativecommons.org/licenses/publicdomain/">
        <cc:permits
           rdf:resource="http://creativecommons.org/ns#Reproduction" />
        <cc:permits
           rdf:resource="http://creativecommons.org/ns#Distribution" />
        <cc:permits
           rdf:resource="http://creativecommons.org/ns#DerivativeWorks" />
      </cc:License>
    </rdf:RDF>
  </metadata>
</svg>
